<svg xmlns="http://www.w3.org/2000/svg" viewBox="0 0 1024 1024" style="width: 100%; height: 100%;"><defs data-highlight-filters="true"><filter id="pv-hover" color-interpolation-filters="sRGB"><feComponentTransfer><feFuncR type="linear" slope="0.85"/><feFuncG type="linear" slope="0.85"/><feFuncB type="linear" slope="0.85"/></feComponentTransfer></filter><filter id="pv-hl-sm" x="-20%" y="-20%" width="140%" height="140%" color-interpolation-filters="sRGB"><feGaussianBlur in="SourceAlpha" stdDeviation="1.5" result="blur"/><feFlood flood-color="rgb(99,102,241)" flood-opacity="0.6" result="glowColor"/><feComposite in="glowColor" in2="blur" operator="in" result="glow"/><feComponentTransfer in="SourceGraphic" result="dimmed"><feFuncR type="linear" slope="0.7"/><feFuncG type="linear" slope="0.7"/><feFuncB type="linear" slope="0.7"/></feComponentTransfer><feMerge><feMergeNode in="glow"/><feMergeNode in="dimmed"/></feMerge></filter><filter id="pv-hl-md" x="-30%" y="-30%" width="160%" height="160%" color-interpolation-filters="sRGB"><feGaussianBlur in="SourceAlpha" stdDeviation="3" result="blur"/><feFlood flood-color="rgb(99,102,241)" flood-opacity="0.6" result="glowColor"/><feComposite in="glowColor" in2="blur" operator="in" result="glow"/><feComponentTransfer in="SourceGraphic" result="dimmed"><feFuncR type="linear" slope="0.7"/><feFuncG type="linear" slope="0.7"/><feFuncB type="linear" slope="0.7"/></feComponentTransfer><feMerge><feMergeNode in="glow"/><feMergeNode in="dimmed"/></feMerge></filter><filter id="pv-hl-lg" x="-50%" y="-50%" width="200%" height="200%" color-interpolation-filters="sRGB"><feGaussianBlur in="SourceAlpha" stdDeviation="5" result="blur"/><feFlood flood-color="rgb(99,102,241)" flood-opacity="0.6" result="glowColor"/><feComposite in="glowColor" in2="blur" operator="in" result="glow"/><feComponentTransfer in="SourceGraphic" result="dimmed"><feFuncR type="linear" slope="0.7"/><feFuncG type="linear" slope="0.7"/><feFuncB type="linear" slope="0.7"/></feComponentTransfer><feMerge><feMergeNode in="glow"/><feMergeNode in="dimmed"/></feMerge></filter></defs><g id="group"><path d="M592.99,536.50 L572.50,516.41 L563.03,465.50 C557.86,450.28 540.19,455.60 539.86,468.58 C539.80,470.64 548.33,519.72 548.93,521.73 C553.45,536.93 568.83,548.46 577.90,559.50 C581.72,566.29 590.67,573.44 596.00,580.18 L596.00,621.45 L547.30,616.00 L560.00,630.90 L537.00,641.87 C537.00,642.20 541.10,646.57 546.11,651.58 L555.22,660.70 L543.29,666.72 L535.50,671.73 L544.25,673.15 C559.03,675.39 579.60,677.73 596.02,678.79 L596.00,711.82 L596.00,743.58 C599.51,761.20 624.62,763.03 628.00,741.50 C629.05,734.78 627.55,718.38 628.00,711.50 L628.00,681.00 L632.50,681.00 L637.00,681.00 L637.00,712.50 L637.00,806.37 C640.95,822.38 661.87,824.44 668.00,807.80 L668.00,711.90 C668.00,677.20 667.88,676.00 664.50,675.90 C732.82,668.77 781.13,641.79 832.80,619.16 L935.85,1024.00 L528.63,1024.00 L527.74,896.00 L511.95,896.00 L496.17,896.00 L495.50,1024.00 L88.50,1024.00 L196.34,600.88 C212.85,603.62 230.92,609.67 246.68,613.69 C260.23,619.79 281.48,628.89 295.25,633.50 C298.10,636.04 301.88,639.89 309.89,639.15 C325.99,643.86 345.45,647.68 364.04,650.35 L364.04,713.72 C367.35,730.84 387.66,733.31 395.00,717.90 L395.00,669.00 L405.00,669.00 L405.03,794.50 C411.66,811.99 431.23,809.57 435.96,793.37 L435.96,650.48 C457.57,647.60 479.98,644.11 498.98,638.77 L498.98,718.00 L525.32,718.00 C523.63,664.08 523.97,607.06 524.00,551.00 L501.00,551.00 L501.00,578.93 C481.19,584.93 457.98,589.56 435.94,592.86 L436.09,559.79 L486.46,537.17 C495.08,531.10 513.01,493.79 521.00,482.64 C523.22,471.35 512.12,463.41 503.32,468.99 C497.74,472.53 477.99,512.94 471.50,516.97 L429.50,531.00 L365.50,531.02 C347.80,541.49 330.47,556.16 315.32,567.90 L310.04,581.07 C278.57,568.22 247.18,553.88 210.04,546.85 L262.21,346.00 L248.40,346.00 L194.12,543.85 L159.28,539.59 L220.41,346.86 C220.12,346.39 185.48,346.00 143.44,346.00 L67.00,346.00 L67.00,546.75 L67.00,603.79 L67.00,718.00 C62.59,724.65 54.02,723.24 52.00,715.78 L52.03,160.50 C54.21,151.70 64.17,153.05 66.50,157.71 C66.95,158.61 66.99,174.92 67.08,175.01 L277.27,174.50 L331.75,-0.00 L350.00,-0.00 L302.00,175.00 L312.92,175.00 L359.87,0.00 L507.00,-0.00 L507.00,47.00 L512.14,47.00 L517.29,47.00 L516.87,0.00 L664.32,0.00 L711.38,175.06 L722.00,175.00 C707.04,115.64 688.73,59.59 674.00,-0.00 L692.50,0.02 L746.71,174.50 L957.00,175.01 C954.78,158.73 960.78,146.21 972.00,158.91 L972.00,716.73 C969.17,723.12 961.25,724.49 957.00,718.00 L957.00,600.00 L957.00,542.69 L957.00,347.00 L880.50,347.00 C812.51,347.00 804.00,347.17 804.01,348.53 C804.01,349.37 818.46,395.20 868.19,550.68 C857.22,553.55 843.42,556.71 834.39,559.98 L775.71,345.92 L762.50,346.50 L818.88,565.30 C771.91,585.32 729.01,610.90 667.80,618.46 L668.00,580.54 L686.71,559.50 C692.65,552.12 711.60,533.47 714.28,525.84 L723.99,470.50 C725.73,454.16 704.44,450.62 700.83,466.50 L691.33,516.72 L670.82,536.50 L662.86,543.09 L632.11,543.15 L601.36,543.21 L592.99,536.50 Z" fill="none"/><g id="group"><path d="M810.00,181.00 L810.00,234.00 L862.03,234.00 L862.00,286.97 L912.50,287.54 L862.00,287.53 L810.00,286.97 L810.00,339.50 L215.00,339.97 L215.00,288.03 L265.50,287.50 C265.99,272.73 266.98,249.01 264.96,234.00 L214.00,234.00 L214.00,181.00 L810.00,181.00 Z M188.67,234.00 L214.00,234.00 L214.00,260.50 L214.00,287.00 L188.00,287.00 L162.00,287.00 L162.00,261.17 C162.00,246.96 162.30,235.03 162.67,234.67 C163.03,234.30 174.73,234.00 188.67,234.00 Z M162.00,339.50 L110.97,340.02 L111.07,287.50 L136.54,287.23 L162.00,286.97 L162.00,339.50 Z" fill="#fbfcfc"/><path d="M483.03,220.00 L502.00,220.00 L502.00,316.00 L484.23,316.00 L446.50,257.89 L445.97,316.00 L427.00,316.00 L427.00,220.92 L444.50,221.50 L482.50,278.50 L483.03,220.00 Z" fill="#1f2933"/><path d="M645.00,220.00 L664.00,220.00 L664.00,259.00 L698.00,259.00 L698.00,220.00 L717.00,220.00 L717.00,316.00 L697.00,316.00 L697.00,276.00 L664.00,276.00 L664.00,316.00 L645.00,316.00 L645.00,220.00 Z" fill="#1f2933"/><path d="M593.66,220.02 C605.50,220.00 613.20,221.98 620.35,226.90 C626.09,230.85 626.15,230.28 619.33,237.17 L613.66,242.90 L610.76,240.83 C601.68,234.36 586.12,234.50 580.56,241.11 C574.80,247.96 578.83,255.88 589.06,257.80 C592.05,258.37 598.28,259.54 602.90,260.41 C617.16,263.09 624.70,269.43 627.04,280.71 C630.31,296.45 622.18,309.89 606.55,314.55 C590.56,319.32 569.85,315.86 558.54,306.54 L555.59,304.10 L561.68,297.76 L567.76,291.42 L571.13,293.77 C589.01,306.23 615.49,298.45 607.54,283.07 C605.68,279.49 600.66,277.46 590.01,276.00 C569.00,273.13 559.52,264.57 559.52,248.50 C559.52,230.90 572.50,220.07 593.66,220.02 Z" fill="#1f2933"/><path d="M307.00,220.00 L371.00,220.00 L371.00,237.00 L326.00,237.00 L326.00,260.00 L365.00,260.00 L365.00,277.00 L327.00,277.00 L327.00,316.00 L307.00,316.00 L307.00,220.00 Z" fill="#1f2933"/><path d="M387.00,220.00 L406.00,220.00 L406.00,316.00 L387.00,316.00 L387.00,220.00 Z" fill="#1f2933"/><path d="M522.00,220.00 L541.00,220.00 L541.00,316.00 L522.00,316.00 L522.00,220.00 Z" fill="#1f2933"/></g><g id="group"><path d="M110.50,181.00 L110.70,234.00 L136.45,234.00 L162.21,234.00 L162.50,181.00 L214.00,181.00 L214.00,234.00 L264.96,234.00 C266.98,249.01 265.99,272.73 265.50,287.50 L215.00,288.03 L215.00,339.97 L162.00,339.50 L162.00,286.97 L136.54,287.23 L111.07,287.50 L110.97,340.02 L59.00,340.00 L59.00,287.50 L111.00,287.30 L111.00,260.65 L111.00,234.00 L59.00,234.00 L59.00,181.00 L110.50,181.00 Z" fill="#e7504a" style=""/><path d="M188.67,234.00 L214.00,234.00 L214.00,260.50 L214.00,287.00 L188.00,287.00 L162.00,287.00 L162.00,261.17 C162.00,246.96 162.30,235.03 162.67,234.67 C163.03,234.30 174.73,234.00 188.67,234.00 Z" fill="#fbfcfc"/></g><path d="M913.50,181.00 L912.91,234.00 L965.00,234.00 L965.00,287.50 L913.00,287.30 L913.00,260.65 L913.00,234.00 L862.03,234.00 L861.50,181.00 L913.50,181.00 Z" fill="#fbfcfc"/><path d="M965.00,287.50 L965.00,340.00 L913.03,340.02 L912.50,287.54 L862.00,286.97 L862.03,234.00 L913.00,234.00 L913.00,260.65 L913.00,287.30 L965.00,287.50 Z M861.50,181.00 L862.03,234.00 L810.00,234.00 L810.00,181.00 L861.50,181.00 Z M965.00,234.00 L912.91,234.00 L913.50,181.00 L965.00,181.00 L965.00,234.00 Z M862.00,287.53 L862.00,339.50 L810.00,339.50 L810.00,286.97 L862.00,287.53 Z M784.50,234.00 L810.00,234.00 L810.00,260.50 L810.00,287.00 L784.50,287.00 L759.00,287.00 L759.00,260.50 L759.00,234.00 L784.50,234.00 Z" fill="#e7504a" style=""/><path d="M59.00,287.50 L59.00,234.00 L111.00,234.00 L111.00,260.65 L111.00,287.30 L59.00,287.50 Z M162.50,181.00 L162.21,234.00 L136.45,234.00 L110.70,234.00 L110.50,181.00 L162.50,181.00 Z" fill="#fbfcfc"/><path d="M912.50,287.54 L913.03,340.02 L862.00,339.50 L862.00,287.53 L912.50,287.54 Z" fill="#fbfcfc"/><path d="M633.64,480.36 C656.76,481.83 667.63,509.20 651.93,526.39 C637.99,541.64 616.17,537.62 607.21,518.13 C599.04,500.35 613.90,479.10 633.64,480.36 Z" fill="#f0b995"/><path d="M414.63,519.26 C406.29,524.48 393.50,524.49 385.50,519.31 C366.21,506.82 370.03,477.10 390.97,469.98 C422.88,459.11 440.67,502.99 414.63,519.26 Z" fill="#fbfcfc"/><path d="M503.00,346.00 L521.00,346.00 C521.29,382.40 520.10,420.93 522.31,455.00 L501.69,455.00 C503.97,421.00 502.66,382.35 503.00,346.00 Z" fill="none"/><path d="M506.00,84.00 L518.00,84.00 C518.74,105.22 516.47,130.24 519.23,149.00 L506.00,149.00 L506.00,84.00 Z" fill="none"/></g><path d="M142.89,596.00 L5.74,1024.00 L-0.00,1024.00 L0.00,0.00 L331.75,-0.00 L277.27,174.50 L67.08,175.01 C66.99,174.92 66.95,158.61 66.50,157.71 C64.17,153.05 54.21,151.70 52.03,160.50 L52.00,715.78 C54.02,723.24 62.59,724.65 67.00,718.00 L67.00,603.79 C88.97,599.31 114.83,594.76 142.89,596.00 Z" fill="none"/><path d="M957.00,600.00 L957.00,718.00 C961.25,724.49 969.17,723.12 972.00,716.73 L972.00,158.91 C960.78,146.21 954.78,158.73 957.00,175.01 L746.71,174.50 L692.50,0.02 L1024.00,-0.00 L1024.00,1024.00 L1018.05,1024.00 L884.12,604.67 C904.77,601.47 930.39,598.97 957.00,600.00 Z" fill="none"/><path d="M868.19,550.68 C818.46,395.20 804.01,349.37 804.01,348.53 C804.00,347.17 812.51,347.00 880.50,347.00 L957.00,347.00 L957.00,542.69 L911.50,543.95 L868.19,550.68 Z" fill="none"/><path d="M67.00,546.75 L67.00,346.00 L143.44,346.00 C185.48,346.00 220.12,346.39 220.41,346.86 L159.28,539.59 C127.92,537.43 92.44,540.97 67.00,546.75 Z" fill="none"/><path d="M957.00,542.69 L957.00,600.00 C930.39,598.97 904.77,601.47 884.12,604.67 L848.76,613.71 L832.80,619.16 C781.13,641.79 732.82,668.77 664.50,675.90 L624.13,679.00 L596.02,678.79 C579.60,677.73 559.03,675.39 544.25,673.15 L543.29,666.72 L555.22,660.70 L546.11,651.58 C541.10,646.57 537.00,642.20 537.00,641.87 L560.00,630.90 L547.30,616.00 L596.00,621.45 C617.95,623.34 645.93,621.15 667.12,618.88 L667.80,618.46 C729.01,610.90 771.91,585.32 818.88,565.30 L834.39,559.98 C843.42,556.71 857.22,553.55 868.19,550.68 L911.50,543.95 L957.00,542.69 Z" fill="#e7504a" style=""/><path d="M179.48,598.51 L64.59,1024.00 L5.74,1024.00 L142.89,596.00 C155.72,595.37 169.14,597.74 179.48,598.51 Z" fill="none"/><path d="M884.12,604.67 L1018.05,1024.00 L959.49,1024.00 L848.76,613.71 L884.12,604.67 Z" fill="none"/><path d="M159.28,539.59 L194.12,543.85 L210.04,546.85 C247.18,553.88 278.57,568.22 310.04,581.07 C295.44,622.96 294.04,627.93 295.25,633.50 C281.48,628.89 260.23,619.79 246.68,613.69 C230.92,609.67 212.85,603.62 196.34,600.88 L179.48,598.51 C169.14,597.74 155.72,595.37 142.89,596.00 C114.83,594.76 88.97,599.31 67.00,603.79 L67.00,546.75 C92.44,540.97 127.92,537.43 159.28,539.59 Z" fill="#e7504a" style=""/><path d="M501.00,578.93 C502.90,578.03 506.61,577.30 509.31,576.82 L499.80,593.50 L488.67,611.50 L499.82,618.50 C504.52,622.51 513.89,627.84 519.60,631.68 C513.65,634.84 504.29,636.28 498.98,638.77 C479.98,644.11 457.57,647.60 435.96,650.48 L364.04,650.35 C345.45,647.68 325.99,643.86 309.89,639.15 C316.37,633.00 318.13,629.13 333.12,587.88 L333.98,586.74 C342.34,589.79 354.88,591.10 364.01,592.84 L399.04,595.35 L435.94,592.86 C457.98,589.56 481.19,584.93 501.00,578.93 Z" fill="#e7504a" style=""/><path d="M435.94,592.86 L399.04,595.35 L364.01,592.84 L364.01,566.00 L362.82,566.00 C355.15,572.20 338.64,578.43 333.98,586.74 L333.12,587.88 C318.13,629.13 316.37,633.00 309.89,639.15 C301.88,639.89 298.10,636.04 295.25,633.50 C294.04,627.93 295.44,622.96 310.04,581.07 L315.32,567.90 C330.47,556.16 347.80,541.49 365.50,531.02 L429.50,531.00 L471.50,516.97 C477.99,512.94 497.74,472.53 503.32,468.99 C512.12,463.41 523.22,471.35 521.00,482.64 C513.01,493.79 495.08,531.10 486.46,537.17 L436.09,559.79 L435.94,592.86 Z" fill="#fbfcfc"/><path d="M196.34,600.88 L88.50,1024.00 L64.59,1024.00 L179.48,598.51 L196.34,600.88 Z" fill="none"/><path d="M848.76,613.71 L959.49,1024.00 L935.85,1024.00 L832.80,619.16 L848.76,613.71 Z" fill="none"/><path d="M435.96,650.48 L435.96,793.37 C431.23,809.57 411.66,811.99 405.03,794.50 L405.00,669.00 L395.00,669.00 L395.00,717.90 C387.66,733.31 367.35,730.84 364.04,713.72 L364.04,650.35 L435.96,650.48 Z" fill="#fbfcfc"/><path d="M592.99,536.50 L601.36,543.21 L632.11,543.15 L662.86,543.09 L670.82,536.50 L686.71,559.50 L668.00,580.54 L667.80,618.46 L667.12,618.88 C645.93,621.15 617.95,623.34 596.00,621.45 L596.00,580.18 C590.67,573.44 581.72,566.29 577.90,559.50 L592.99,536.50 Z" fill="#68c1be" style=""/><path d="M528.63,1024.00 L495.50,1024.00 L496.17,896.00 L511.95,896.00 L527.74,896.00 L528.63,1024.00 Z" fill="none"/><path d="M501.00,578.93 L501.00,551.00 L524.00,551.00 C523.97,607.06 523.63,664.08 525.32,718.00 L498.98,718.00 L498.98,638.77 C504.29,636.28 513.65,634.84 519.60,631.68 C513.89,627.84 504.52,622.51 499.82,618.50 L499.80,593.50 L509.31,576.82 C506.61,577.30 502.90,578.03 501.00,578.93 Z" fill="none"/><path d="M818.88,565.30 L762.50,346.50 L775.71,345.92 L834.39,559.98 L818.88,565.30 Z" fill="none"/><path d="M668.00,711.90 L668.00,807.80 C661.87,824.44 640.95,822.38 637.00,806.37 L637.00,712.50 L668.00,711.90 Z" fill="#f0b995"/><path d="M194.12,543.85 L248.40,346.00 L262.21,346.00 L210.04,546.85 L194.12,543.85 Z" fill="none"/><path d="M670.82,536.50 L691.33,516.72 L700.83,466.50 C704.44,450.62 725.73,454.16 723.99,470.50 L714.28,525.84 C711.60,533.47 692.65,552.12 686.71,559.50 L670.82,536.50 Z" fill="#f0b995"/><path d="M577.90,559.50 C568.83,548.46 553.45,536.93 548.93,521.73 C548.33,519.72 539.80,470.64 539.86,468.58 C540.19,455.60 557.86,450.28 563.03,465.50 L572.50,516.41 L592.99,536.50 L577.90,559.50 Z" fill="#f0b995"/><path d="M664.50,675.90 C667.88,676.00 668.00,677.20 668.00,711.90 L637.00,712.50 L637.00,681.00 L632.50,681.00 L628.00,681.00 L628.00,711.50 L596.00,711.82 L596.02,678.79 L624.13,679.00 L664.50,675.90 Z" fill="#68c1be" style=""/><path d="M350.00,-0.00 L359.87,0.00 L312.92,175.00 L302.00,175.00 L350.00,-0.00 Z" fill="none"/><path d="M664.32,0.00 L674.00,-0.00 C688.73,59.59 707.04,115.64 722.00,175.00 L711.38,175.06 L664.32,0.00 Z" fill="none"/><path d="M628.00,711.50 C627.55,718.38 629.05,734.78 628.00,741.50 C624.62,763.03 599.51,761.20 596.00,743.58 L596.00,711.82 L628.00,711.50 Z" fill="#f0b995"/><path d="M507.00,-0.00 L516.87,0.00 L517.29,47.00 L512.14,47.00 L507.00,47.00 L507.00,-0.00 Z" fill="none"/><path d="M333.98,586.74 C338.64,578.43 355.15,572.20 362.82,566.00 L364.01,566.00 L364.01,592.84 C354.88,591.10 342.34,589.79 333.98,586.74 Z" fill="#383e46"/><path d="M499.80,593.50 L499.82,618.50 L488.67,611.50 L499.80,593.50 Z" fill="#383e46"/><path d="M543.29,666.72 L544.25,673.15 L535.50,671.73 L543.29,666.72 Z" fill="#dd5a58" style=""/></svg>