<svg xmlns="http://www.w3.org/2000/svg" viewBox="0 0 1024 1024" style="width: 100%; height: 100%;"><defs data-highlight-filters="true"><filter id="pv-hover" color-interpolation-filters="sRGB"><feComponentTransfer><feFuncR type="linear" slope="0.85"/><feFuncG type="linear" slope="0.85"/><feFuncB type="linear" slope="0.85"/></feComponentTransfer></filter><filter id="pv-hl-sm" x="-20%" y="-20%" width="140%" height="140%" color-interpolation-filters="sRGB"><feGaussianBlur in="SourceAlpha" stdDeviation="1.5" result="blur"/><feFlood flood-color="rgb(99,102,241)" flood-opacity="0.6" result="glowColor"/><feComposite in="glowColor" in2="blur" operator="in" result="glow"/><feComponentTransfer in="SourceGraphic" result="dimmed"><feFuncR type="linear" slope="0.7"/><feFuncG type="linear" slope="0.7"/><feFuncB type="linear" slope="0.7"/></feComponentTransfer><feMerge><feMergeNode in="glow"/><feMergeNode in="dimmed"/></feMerge></filter><filter id="pv-hl-md" x="-30%" y="-30%" width="160%" height="160%" color-interpolation-filters="sRGB"><feGaussianBlur in="SourceAlpha" stdDeviation="3" result="blur"/><feFlood flood-color="rgb(99,102,241)" flood-opacity="0.6" result="glowColor"/><feComposite in="glowColor" in2="blur" operator="in" result="glow"/><feComponentTransfer in="SourceGraphic" result="dimmed"><feFuncR type="linear" slope="0.7"/><feFuncG type="linear" slope="0.7"/><feFuncB type="linear" slope="0.7"/></feComponentTransfer><feMerge><feMergeNode in="glow"/><feMergeNode in="dimmed"/></feMerge></filter><filter id="pv-hl-lg" x="-50%" y="-50%" width="200%" height="200%" color-interpolation-filters="sRGB"><feGaussianBlur in="SourceAlpha" stdDeviation="5" result="blur"/><feFlood flood-color="rgb(99,102,241)" flood-opacity="0.6" result="glowColor"/><feComposite in="glowColor" in2="blur" operator="in" result="glow"/><feComponentTransfer in="SourceGraphic" result="dimmed"><feFuncR type="linear" slope="0.7"/><feFuncG type="linear" slope="0.7"/><feFuncB type="linear" slope="0.7"/></feComponentTransfer><feMerge><feMergeNode in="glow"/><feMergeNode in="dimmed"/></feMerge></filter></defs><g id="group"><path d="M1024.00,-0.00 L1024.00,1024.00 L-0.00,1024.00 L0.00,0.00 L1024.00,-0.00 Z" fill="none"/><path d="M379.00,666.00 L369.00,666.00 L369.00,686.00 L358.00,686.00 L358.00,706.50 L358.00,727.00 L363.50,727.00 L369.00,727.00 L369.00,732.00 L369.00,737.00 L379.00,737.00 L389.00,737.00 L389.00,768.00 L379.00,768.00 L379.00,799.00 L369.00,799.00 L368.99,839.38 L368.50,838.89 L357.95,839.60 L358.23,855.05 L358.50,870.50 L363.75,870.80 L369.00,871.10 L369.00,876.05 L369.00,881.00 L384.00,881.00 L399.00,881.00 L399.00,891.00 L399.00,901.00 L379.00,901.00 L338.00,901.00 L338.00,906.00 L338.00,911.00 L297.00,911.00 L297.00,768.00 L287.00,768.00 L287.00,676.00 L292.00,676.00 L297.00,676.00 L297.00,671.00 L297.00,666.00 L307.00,666.00 L317.00,666.00 L317.00,655.00 L338.00,655.00 L338.00,650.00 L338.00,645.00 L343.00,645.00 L348.00,645.00 L348.00,640.00 L348.00,635.00 L358.50,635.00 L369.00,635.00 L369.00,630.00 L369.00,625.00 L374.00,625.00 L379.00,625.00 L379.00,619.50 L379.00,614.00 L384.00,614.00 L389.00,614.00 L389.00,609.00 L389.00,604.00 L394.00,604.00 L399.00,604.00 L399.00,619.50 L399.00,635.00 L394.00,635.00 L389.00,635.00 L389.00,640.00 L389.00,645.00 L384.00,645.00 L379.00,645.00 L379.00,666.00 Z" fill="none"/><path d="M379.00,901.00 L379.00,932.00 L435.36,932.00 L491.72,932.00 L491.72,901.00 L584.00,901.00 L584.00,932.00 L630.00,932.00 L676.00,932.00 L676.00,901.00 L696.00,901.00 L696.00,905.98 L696.00,910.96 L716.75,911.23 L737.50,911.50 L737.80,916.25 L738.11,921.00 L753.05,921.00 L768.00,921.00 L768.00,931.50 L768.00,942.00 L752.50,942.00 L737.00,942.00 L737.00,947.00 L737.00,952.00 L716.50,952.00 L696.00,952.00 L696.00,957.50 L696.00,963.00 L517.00,963.00 L338.00,963.00 L338.00,957.50 L338.00,952.00 L312.50,952.00 L287.00,952.00 L287.00,947.00 L287.00,942.00 L271.50,942.00 L256.00,942.00 L256.00,932.00 L256.00,922.00 L266.00,922.00 L276.00,922.00 L276.00,922.50 L276.00,932.00 L281.50,932.00 L287.00,932.00 L287.00,921.91 L297.00,922.00 L297.00,911.00 L338.00,911.00 L338.00,906.00 L338.00,901.00 L379.00,901.00 Z M491.58,891.00 L491.72,901.00 L491.58,891.00 Z" fill="#4B4B4B" style="fill: rgb(75, 75, 75);"/><g id="group"><path d="M635.00,82.00 L635.00,92.00 L645.00,92.00 L645.00,102.00 L656.00,101.95 L656.00,103.00 L656.00,112.00 L664.92,112.08 L666.00,113.11 L666.00,123.00 L676.00,123.00 L676.00,142.90 L681.25,143.20 L686.50,143.50 L686.80,148.75 L687.10,154.00 L691.55,154.00 L696.00,154.00 L696.00,169.00 L696.00,184.00 L686.00,184.00 L686.00,174.00 L676.00,174.00 L676.00,164.00 L665.67,164.00 L665.32,153.63 L654.99,153.27 L654.99,148.13 L655.00,143.00 L650.00,143.00 L645.00,143.00 L645.00,133.00 L645.00,123.00 L640.00,123.00 L635.00,123.00 L635.00,133.00 L625.00,133.00 L625.00,123.00 L615.00,123.00 C614.26,153.24 616.54,187.25 613.74,215.00 L625.00,215.00 L625.02,225.01 L615.00,225.00 L615.09,233.87 C615.94,238.57 595.57,234.43 594.00,236.00 L594.00,245.05 L564.50,244.88 L564.19,240.25 L563.89,235.62 L552.99,235.62 L563.01,235.27 L563.01,225.14 L563.00,215.00 L558.00,215.00 L553.00,215.00 L553.00,220.00 L553.00,225.00 L537.50,225.00 L522.00,225.00 L522.00,220.00 L522.00,215.00 L517.00,215.00 L512.00,215.00 L512.00,200.00 L512.00,185.00 L517.00,185.00 L522.00,185.00 L522.00,179.36 L522.00,173.72 L552.49,173.72 L552.83,185.11 L558.17,184.80 L563.50,184.50 L563.83,179.28 L564.16,174.06 L552.74,173.43 L552.74,164.00 L547.87,164.00 L543.00,164.00 L543.00,159.00 L543.00,154.00 L527.50,154.00 L512.00,154.00 L512.00,159.00 L512.00,164.00 L507.00,164.00 L502.00,164.00 L502.00,169.00 L502.00,174.00 L497.05,174.00 L492.10,174.00 L491.80,179.25 L491.50,184.50 L486.75,184.80 L482.00,185.11 L482.00,205.05 L482.00,225.00 L487.00,225.00 L492.00,225.00 L492.00,230.50 L492.00,236.00 L497.00,236.00 L502.00,236.00 L502.00,241.05 L502.00,246.11 L497.25,245.80 L492.50,245.50 L492.20,240.74 L491.89,235.98 L450.75,235.98 L451.00,215.00 L461.00,215.00 L460.82,195.14 L471.00,195.00 L471.00,176.81 C471.00,174.39 472.37,174.00 476.00,174.00 L481.00,174.00 L481.00,154.00 L482.00,154.05 L491.51,153.67 L491.81,148.89 L492.11,144.11 L496.80,143.80 L501.50,143.50 L501.80,138.25 L502.10,133.00 L507.05,133.00 L512.00,133.00 L512.00,128.00 L512.00,123.00 L517.00,123.00 L522.00,123.00 L522.00,118.00 L522.00,113.00 L526.95,113.00 L531.90,113.00 L532.20,107.75 L532.50,102.50 L542.75,102.22 L553.00,101.93 L553.00,96.97 L553.00,92.00 L563.50,92.00 L574.00,92.00 L574.00,87.00 L574.00,82.00 L635.00,82.00 Z M450.75,235.98 L450.75,246.00 L445.88,246.00 L441.00,246.00 L441.00,251.00 L441.00,256.00 L497.00,256.00 L553.00,256.00 L553.00,261.22 L553.00,266.43 L604.00,266.53 L593.89,266.53 L594.19,271.60 L594.49,276.67 L604.00,277.05 L624.81,277.00 L625.50,287.00 L635.00,287.00 L645.00,287.00 L645.00,292.00 L645.00,297.00 L655.56,297.00 L675.74,296.71 L676.00,307.00 L696.00,307.00 L696.00,317.00 L705.99,317.28 L727.00,318.07 L727.00,327.42 L687.11,327.00 L686.36,317.56 L645.00,317.44 L645.00,307.00 L624.50,307.00 L604.00,307.00 L604.00,302.00 L604.00,297.00 L578.50,297.00 L553.00,297.00 L553.00,292.00 L553.00,287.01 L455.75,286.75 L358.50,286.50 L358.50,281.50 L358.50,276.50 L373.75,276.22 L389.00,275.95 L389.00,270.97 L389.00,266.00 L409.50,266.00 L430.00,266.00 L430.00,261.00 L430.00,256.00 L435.00,256.00 L440.00,256.00 L440.00,250.50 L440.00,245.00 L445.19,245.01 L450.38,245.02 L450.75,235.98 Z" fill="#4a883e"/><path d="M604.00,113.00 L614.00,113.00 L614.00,123.00 L604.00,123.00 L604.00,113.00 Z" fill="#2a5e35"/></g><path d="M522.88,676.00 L572.96,676.00 L573.69,717.00 L574.00,727.00 L584.00,727.00 L584.00,737.00 L593.91,737.00 L594.55,748.15 L604.28,747.82 L614.00,747.50 L614.00,752.75 L614.00,758.00 L624.50,758.00 L635.00,758.00 L635.00,763.00 L635.00,768.00 L640.00,768.00 L645.00,768.00 L645.00,778.50 L645.00,789.00 L650.00,789.00 L655.00,789.00 L655.00,799.00 L655.00,809.00 L660.50,809.00 L666.00,809.00 L666.00,829.50 L666.00,850.00 L671.00,850.00 L676.00,850.00 L676.00,860.00 L666.00,860.00 L666.00,870.54 L564.00,870.43 L563.99,855.13 L563.98,839.82 L553.54,839.12 L552.94,799.57 L542.99,799.22 L542.99,783.61 L543.00,768.00 L533.00,768.00 L532.00,768.00 L532.00,760.52 L532.00,727.00 L522.61,727.00 L521.90,696.00 L512.00,696.00 L512.00,679.13 L512.00,676.00 L522.88,676.00 Z" fill="#4a883e"/><g id="group"><path d="M451.00,215.00 L450.75,235.98 L450.38,245.02 L445.19,245.01 L440.00,245.00 L440.00,250.50 L440.00,256.00 L435.00,256.00 L430.00,256.00 L430.00,261.00 L430.00,266.00 L409.50,266.00 L389.00,266.00 L389.00,270.97 L389.00,275.95 L373.75,276.22 L358.50,276.50 L358.50,281.50 L358.50,286.50 L455.75,286.75 L553.00,287.01 L553.00,292.00 L553.00,297.00 L578.50,297.00 L604.00,297.00 L604.00,302.00 L604.00,307.00 L624.50,307.00 L645.00,307.00 L645.00,317.44 L686.36,317.56 L686.36,328.00 L706.68,328.00 L727.00,328.00 L727.00,333.00 L727.00,338.00 L737.00,338.00 L747.00,338.00 L747.00,332.82 L747.00,327.65 L727.00,327.42 L727.00,318.07 L727.00,317.00 L748.00,317.00 L748.00,322.00 L748.00,327.00 L753.00,327.00 L758.00,327.00 L758.00,337.50 L758.00,348.00 L752.50,348.00 L747.00,348.00 L747.00,353.00 L747.00,358.00 L727.00,358.00 L727.00,369.00 L691.00,369.00 L655.00,369.00 L655.00,374.00 L655.00,379.00 L660.50,379.00 L666.00,379.00 L666.00,384.00 L666.00,389.00 L671.00,389.00 L676.00,389.00 L676.00,409.50 L676.00,430.00 L666.00,430.00 L666.00,410.00 L666.01,399.61 L655.00,398.95 L655.00,389.00 L642.00,389.00 L635.00,389.00 L635.00,379.00 L640.00,379.00 L645.00,379.00 L645.00,363.50 L645.00,348.00 L625.00,348.00 L615.00,348.00 L615.00,338.00 L645.00,338.00 L645.00,333.00 L645.00,328.00 L640.00,328.00 L635.00,328.00 L635.00,322.69 L635.00,317.38 L593.99,317.38 L593.99,307.00 L568.49,307.00 L543.00,307.00 L543.00,302.00 L543.00,297.00 L491.50,297.00 L440.00,297.00 L440.00,307.00 L430.00,307.00 L430.00,328.00 L429.96,338.00 L430.50,379.00 L440.00,379.00 L440.00,389.00 L440.00,398.67 L439.92,440.08 L431.10,440.00 L430.25,429.98 L430.00,419.68 L430.00,389.00 L420.00,389.00 L410.00,389.00 L410.00,379.00 L415.00,379.00 L420.00,379.00 L420.00,363.50 L420.00,348.00 L415.00,348.00 L410.00,348.00 L410.00,343.00 L410.00,338.00 L394.50,338.00 L379.00,338.00 L379.00,333.00 L379.00,328.00 L363.50,328.00 L348.00,328.00 L348.00,322.50 L348.00,317.00 L343.00,317.00 L338.00,317.00 L338.00,312.00 L338.00,307.00 L333.00,307.00 L328.00,307.00 L328.00,292.00 L328.00,277.00 L338.00,277.00 L348.00,277.00 L348.00,271.50 L348.00,266.00 L363.50,266.00 L379.00,266.00 L379.00,261.00 L379.00,256.00 L399.50,256.00 L420.00,256.00 L420.00,251.00 L420.00,246.00 L425.00,246.00 L430.00,246.00 L430.00,240.50 L430.00,235.00 L435.00,235.00 L440.00,235.00 L440.00,225.00 L440.00,215.00 L451.00,215.00 Z M717.00,502.00 L706.95,502.10 L707.00,501.00 L707.00,492.00 L666.00,492.00 L665.72,481.50 L696.00,481.34 L696.00,476.17 L696.00,471.00 L686.00,471.00 L686.00,461.00 L676.10,461.00 L676.00,451.02 L696.00,451.02 L696.00,456.01 L696.00,461.00 L701.50,461.00 L707.00,461.00 L707.00,471.00 L707.00,481.00 L712.00,481.00 L717.00,481.00 L717.00,502.00 Z M635.00,389.00 L635.00,399.00 L625.00,399.00 L625.00,408.90 L624.74,409.96 L622.97,418.89 L633.50,419.75 L615.00,420.00 L615.00,430.03 L614.00,430.00 L604.00,430.00 L604.00,420.00 L604.00,409.50 L609.28,409.84 L614.55,410.19 L614.55,389.00 L635.00,389.00 Z M666.00,430.00 L666.00,440.00 L671.00,440.00 L676.00,440.00 L676.00,451.02 L634.99,450.42 L634.99,440.00 L645.00,440.00 L655.00,440.00 L655.00,435.00 L655.00,430.00 L666.00,430.00 Z M737.00,522.00 L723.50,522.15 L717.00,522.00 L717.00,512.00 L717.00,502.00 L727.00,502.00 L727.00,507.00 L727.00,512.00 L732.00,512.00 L737.00,512.00 L737.00,522.00 Z M460.82,195.14 L461.00,215.00 L451.00,215.00 L450.92,184.92 L457.00,184.92 C456.33,190.15 458.19,193.69 460.82,195.14 Z M635.00,461.00 L615.00,461.00 L614.63,450.57 L635.00,451.00 L635.00,461.00 Z" fill="#091712"/><path d="M430.00,307.00 L420.00,307.00 L420.00,328.00 L389.00,328.00 L389.00,318.05 L358.50,317.50 C357.77,316.77 357.77,308.23 358.50,307.50 L369.00,306.90 L369.00,297.00 L430.00,297.00 L430.00,307.00 Z" fill="#295735"/><path d="M727.00,358.00 L656.00,358.00 L656.00,328.00 L676.00,328.00 L676.00,338.00 L717.00,338.00 L717.00,348.00 L727.00,348.00 L727.00,358.00 Z" fill="#295735"/><path d="M338.00,287.00 L358.00,287.00 L358.00,297.00 L338.00,297.00 L338.00,287.00 Z" fill="#4a883e"/></g><path d="M451.00,665.86 L451.00,676.00 L481.00,676.00 L481.00,715.67 L481.00,717.00 L471.00,717.00 L471.00,768.00 L461.00,768.00 L461.00,819.00 L450.00,819.00 L450.00,844.50 L450.00,870.00 L410.00,870.00 L410.00,860.00 L379.00,860.00 L379.00,850.00 L379.00,840.10 L379.00,809.00 L389.00,809.00 L389.00,799.00 L389.00,768.00 L399.46,768.00 L399.58,727.00 L404.29,726.99 L409.01,726.99 L410.14,716.01 L410.14,686.00 L415.07,686.00 L420.00,686.00 L420.00,675.81 L420.00,666.11 L451.00,665.86 Z" fill="#4a883e"/><g id="group"><path d="M419.99,531.91 L419.99,572.90 L414.75,573.20 L409.50,573.50 L409.50,594.00 L409.50,614.50 L414.75,614.80 L420.00,615.10 L420.00,620.05 L420.00,625.00 L435.00,625.00 L450.00,625.00 L450.00,635.00 L492.00,635.00 L492.00,594.00 L502.00,594.00 L502.00,635.00 L511.95,635.00 L584.00,635.00 L604.00,635.00 L604.00,625.00 L604.00,614.00 L614.35,614.00 L614.00,625.00 L635.00,625.00 L635.00,635.00 L625.00,635.00 L615.00,635.00 L615.00,645.00 L615.00,654.89 L619.84,655.19 L624.69,655.49 L625.05,666.00 L614.00,666.00 L614.00,661.00 L614.00,656.00 L609.00,656.00 L604.00,656.00 L604.00,650.50 L604.00,645.00 L594.00,645.00 L584.00,645.00 L584.00,650.00 L584.00,655.00 L589.00,655.00 L594.00,655.00 L594.00,664.90 L594.00,666.00 L584.00,666.00 L584.00,676.00 L584.00,717.00 L573.69,717.00 L574.00,666.00 L521.51,666.00 L512.00,666.00 L502.00,666.00 L502.12,682.50 L502.00,696.00 L512.00,696.00 L512.00,725.67 L510.67,727.00 L502.00,727.00 L502.00,722.00 L502.00,717.00 L492.00,717.00 L492.00,676.00 L492.00,666.00 L451.00,665.86 C451.09,662.76 451.24,656.97 449.79,655.00 L420.00,655.00 L420.00,666.11 L420.00,675.81 L409.00,676.50 L409.03,716.30 L399.00,717.56 L399.46,768.00 L389.00,768.00 L389.00,737.00 L379.00,737.00 L369.00,737.00 L369.00,732.00 L369.00,727.00 L363.50,727.00 L358.00,727.00 L358.00,706.50 L358.00,686.00 L369.00,686.00 L369.00,717.00 L374.00,717.00 L379.00,717.00 L379.00,722.00 L379.00,727.00 L384.00,727.00 L389.00,727.00 L389.00,722.00 L389.00,717.00 L394.00,717.00 L399.00,717.00 L399.00,665.67 L409.42,665.31 L409.65,645.00 L404.33,645.00 L399.01,645.00 L399.01,655.22 L389.00,655.67 L389.00,666.00 L379.00,666.00 L379.00,645.00 L384.00,645.00 L389.00,645.00 L389.00,640.00 L389.00,635.00 L394.00,635.00 L399.00,635.00 L399.00,619.50 L399.00,604.00 L394.00,604.00 L389.00,604.00 L389.00,609.00 L389.00,614.00 L384.00,614.00 L379.00,614.00 L379.00,619.50 L379.00,625.00 L374.00,625.00 L369.00,625.00 L369.00,630.00 L369.00,635.00 L358.50,635.00 L348.00,635.00 L348.00,640.00 L348.00,645.00 L343.00,645.00 L338.00,645.00 L338.00,650.00 L338.00,655.00 L317.00,655.00 L317.00,645.00 L318.00,645.00 L328.00,645.00 L328.00,640.04 L328.00,635.07 L337.75,634.79 L347.50,634.50 L347.80,629.75 L348.11,625.00 L353.00,625.00 L357.90,625.00 L358.20,619.75 L358.50,614.50 L363.75,614.20 L369.00,613.90 L369.00,608.95 L369.00,604.00 L374.00,604.00 L379.00,604.00 L379.00,599.00 L379.00,594.00 L384.00,594.00 L389.00,594.00 L389.00,589.00 L389.00,584.00 L394.00,584.00 L399.00,584.00 L399.00,573.50 L399.00,563.00 L404.65,563.00 L410.30,563.00 L409.72,547.77 L409.13,532.54 L419.99,531.91 Z M532.55,809.00 L543.30,808.66 L543.00,840.00 L553.08,840.08 L553.08,881.00 L609.54,881.00 L666.00,881.00 L666.00,870.54 L707.00,871.00 L706.72,860.52 L717.00,859.90 L717.00,850.00 L717.00,840.00 L727.00,840.00 L727.00,855.00 L727.00,870.00 L722.00,870.00 L717.00,870.00 L717.00,875.50 L717.00,881.00 L706.50,881.00 L696.00,881.00 L696.00,886.00 L696.00,891.00 L681.00,891.00 L666.00,891.00 L666.00,901.00 L665.00,901.00 L655.00,900.96 L655.00,891.00 L624.50,891.00 L594.00,891.00 L594.00,906.50 L594.00,922.00 L630.00,922.00 L666.00,922.00 L666.00,901.00 L676.00,901.00 L676.00,932.00 L630.00,932.00 L584.00,932.00 L584.00,901.00 L584.00,891.00 L491.58,891.00 L491.72,901.00 L491.72,932.00 L435.36,932.00 L379.00,932.00 L379.00,901.00 L399.00,901.00 L399.00,891.00 L399.00,881.00 L384.00,881.00 L369.00,881.00 L369.00,876.05 L369.00,871.10 L363.75,870.80 L358.50,870.50 L358.23,855.05 L357.95,839.60 L368.50,838.89 L369.09,849.99 L369.00,860.00 L379.00,860.00 L379.00,861.00 L379.00,870.42 L408.87,871.50 L409.63,881.02 L461.00,881.00 L461.00,828.37 C464.32,826.37 464.42,821.92 471.00,823.00 L471.00,881.00 L481.50,881.00 L485.50,880.69 C503.94,881.21 525.04,881.20 543.00,880.69 C543.75,879.94 542.06,843.58 541.69,840.00 L532.40,840.00 C531.91,839.51 531.56,809.51 532.55,809.00 Z M266.00,492.00 L266.00,522.00 L256.00,522.00 L256.00,502.00 L245.50,502.00 L235.00,502.00 L235.00,527.50 L235.00,553.00 L256.00,553.00 L266.00,553.00 L266.00,522.00 L277.00,522.00 L277.00,517.00 L277.00,512.00 L282.00,512.00 L287.00,512.00 L287.00,492.00 L317.00,492.00 L316.84,501.78 C314.30,502.41 309.07,508.73 307.14,501.55 L297.00,501.58 L297.00,553.00 L307.00,553.00 L307.00,643.67 L307.00,645.00 L297.00,645.00 L297.00,655.42 L307.00,655.28 L317.00,655.00 L317.00,666.00 L307.00,666.00 L297.00,666.00 L297.00,671.00 L297.00,676.00 L292.00,676.00 L287.00,676.00 L287.00,768.00 L277.00,768.00 L277.00,696.50 L277.00,625.00 L271.50,625.00 L266.00,625.00 L266.00,584.00 L266.00,563.00 L261.00,563.00 L256.00,563.00 L256.00,584.00 L256.08,623.92 L246.00,623.92 L246.00,593.46 L246.00,563.00 L235.50,563.00 L225.00,563.00 L225.00,527.50 L225.00,492.00 L235.50,492.00 L246.00,492.00 L246.00,451.00 L256.00,451.00 L256.00,471.50 L256.00,492.00 L266.00,492.00 Z M676.00,604.00 L676.00,614.00 L686.00,614.00 L686.00,615.00 L686.00,635.00 L691.00,635.00 L696.00,635.00 L696.00,645.50 L696.00,656.00 L705.99,656.00 L706.53,717.00 L716.48,716.72 L716.84,727.01 L711.42,727.00 L706.00,727.00 L706.00,732.00 L706.00,737.00 L701.00,737.00 L696.00,737.00 L696.00,752.50 L696.00,768.00 L706.46,768.00 L706.46,809.11 L701.48,808.80 L696.50,808.50 L696.22,793.25 L695.95,778.00 L690.97,778.00 L686.00,778.00 L686.00,757.50 L686.00,737.00 L681.00,737.00 L676.00,737.00 L676.00,732.00 L676.00,727.00 L666.00,727.00 L666.00,696.00 L675.50,695.72 L676.07,717.00 L686.00,717.00 L686.00,696.10 L675.72,695.48 L676.00,666.00 L666.00,666.00 L666.00,656.00 L671.00,656.00 L676.00,656.00 L676.00,645.00 L676.00,635.00 L676.00,625.00 L671.00,625.00 L666.00,625.00 L666.00,619.50 L666.00,614.00 L660.88,614.00 L655.75,614.00 L655.75,604.50 L656.00,604.00 L676.00,604.00 Z M389.00,921.48 L389.00,911.00 L394.00,911.00 L399.00,911.00 L399.00,906.46 L399.01,901.93 L419.99,900.86 L419.99,891.00 L481.00,891.00 L481.00,920.83 C453.53,922.99 415.96,922.06 389.00,921.48 Z M665.72,552.95 L706.00,552.95 L706.00,557.97 L706.00,563.00 L691.00,563.00 L676.00,563.00 L676.00,568.50 L676.00,574.00 L671.05,574.00 L666.11,574.00 L665.80,578.75 L665.50,583.50 L660.64,583.80 L655.77,584.11 L655.77,593.97 L655.14,604.00 L639.77,604.25 L624.39,604.51 L625.22,614.25 L614.35,614.00 L615.13,594.00 L625.00,594.00 L635.00,594.00 L635.00,589.00 L635.00,584.00 L639.95,584.00 L644.90,584.00 L645.20,578.75 L645.50,573.50 L650.25,573.20 L655.00,572.89 L655.00,563.00 L664.90,563.00 L665.72,552.95 Z M276.00,922.00 L266.00,922.00 L266.00,768.00 L276.00,768.00 L276.00,922.00 Z M297.00,911.00 L297.00,922.00 L287.00,921.91 L287.00,768.00 L297.00,768.00 L297.00,911.00 Z M256.50,624.72 L266.00,625.00 L266.00,768.00 L255.99,768.00 L256.50,624.72 Z M666.00,666.00 L666.00,696.00 L615.00,696.00 L615.05,686.00 L655.00,686.00 L655.00,681.00 L655.00,676.00 L640.03,676.00 L625.05,676.00 L625.05,666.00 L666.00,666.00 Z M246.00,451.00 L236.00,451.00 L236.00,369.00 L246.00,369.00 L246.00,451.00 Z M645.00,727.00 L666.00,727.00 L666.00,737.00 L593.91,737.00 L594.00,727.00 L645.00,727.00 Z M492.00,717.00 L492.00,768.00 L487.04,768.00 L482.08,768.00 L482.08,716.92 L492.00,717.00 Z M379.00,799.00 L379.00,809.00 L379.00,840.10 L368.99,839.38 L369.00,799.00 L379.00,799.00 Z M532.00,768.00 L532.00,809.00 L527.00,809.00 L522.00,809.00 L522.00,770.40 L524.40,768.00 L532.00,768.00 Z M236.00,369.00 L225.00,369.00 L225.00,338.00 L236.00,338.00 L236.00,369.00 Z M706.50,809.02 L717.00,809.00 L717.00,840.00 L706.69,840.00 L706.50,809.02 Z M727.00,696.00 L736.95,696.00 L736.95,706.00 L731.97,706.00 L727.00,706.00 L727.00,711.42 L727.01,716.84 L716.72,716.48 L716.90,713.50 L717.00,696.00 L727.00,696.00 Z M389.00,768.00 L389.00,799.00 L379.00,799.00 L379.00,768.00 L389.00,768.00 Z M379.00,666.00 L379.00,686.00 L369.00,686.00 L369.00,666.00 L379.00,666.00 Z M277.00,533.00 L286.00,533.00 L286.00,553.00 L277.00,553.00 L277.00,533.00 Z M214.99,327.15 L225.00,328.25 L225.00,338.00 L215.00,338.00 L215.01,332.86 L215.01,327.73 L204.99,327.38 L214.99,327.15 Z M287.00,921.91 L287.00,932.00 L281.50,932.00 L276.00,932.00 L276.00,922.50 L287.00,921.91 Z M512.02,583.75 L511.87,594.01 L502.00,594.00 L502.00,583.80 L512.02,583.75 Z M594.00,727.00 L584.00,727.00 L584.00,717.00 L594.00,717.00 L594.00,727.00 Z M686.00,717.00 L696.00,717.00 L696.00,727.00 L686.00,727.00 L686.00,717.00 Z" fill="#091712"/><path d="M594.00,676.00 L594.00,686.00 L604.00,686.00 L604.00,696.00 L613.90,696.05 L615.00,697.33 L615.00,707.00 L630.00,707.00 L645.00,707.00 L645.00,727.00 L594.00,727.00 L594.00,717.00 L584.00,717.00 L584.00,676.00 L594.00,676.00 Z" fill="#815b38"/><path d="M409.42,665.31 L399.00,665.67 L399.00,717.00 L394.00,717.00 L389.00,717.00 L389.00,722.00 L389.00,727.00 L384.00,727.00 L379.00,727.00 L379.00,722.00 L379.00,717.00 L374.00,717.00 L369.00,717.00 L369.00,686.00 L379.00,686.00 L379.00,666.00 L389.00,666.00 L389.00,655.67 L399.01,655.22 L409.00,655.00 L409.42,665.31 Z" fill="#815b38"/><path d="M419.99,900.86 L419.99,891.00 L481.00,891.00 L481.00,920.83 C453.53,922.99 415.96,922.06 389.00,921.48 L451.00,921.48 L451.00,916.24 L451.00,911.00 L445.50,911.00 L440.00,911.00 L440.00,905.93 L440.00,900.86 L419.99,900.86 Z" fill="#5b3b2b" style=""/><path d="M563.00,645.00 L563.00,655.42 L451.00,655.42 L451.00,650.21 L451.00,645.00 L563.00,645.00 Z" fill="#815b38"/><path d="M655.00,900.96 L665.00,901.00 L665.00,921.00 L634.50,921.00 L604.00,921.00 L604.00,916.00 L604.00,911.00 L609.00,911.00 L614.00,911.00 L614.00,906.10 L614.00,901.21 L655.00,900.96 Z" fill="#815b38"/><path d="M256.00,522.00 L256.00,553.00 L235.00,553.00 L235.00,527.50 L235.00,502.00 L245.50,502.00 L256.00,502.00 L256.00,522.00 Z" fill="#e8b68e"/><path d="M419.99,900.86 L440.00,900.86 L440.00,905.93 L440.00,911.00 L445.50,911.00 L451.00,911.00 L451.00,916.24 L451.00,921.48 L389.00,921.48 L389.00,911.00 L394.00,911.00 L399.00,911.00 L399.00,906.46 L399.01,901.93 L419.99,900.86 Z" fill="#815b38"/><path d="M594.00,664.90 L594.00,655.00 L589.00,655.00 L584.00,655.00 L584.00,650.00 L584.00,645.00 L594.00,645.00 L604.00,645.00 L604.00,650.50 L604.00,656.00 L609.00,656.00 L614.00,656.00 L614.00,661.00 L614.00,666.00 L625.05,666.00 L625.05,676.00 L640.03,676.00 L655.00,676.00 L655.00,681.00 L655.00,686.00 L615.05,686.00 L614.38,675.99 L605.33,676.00 L604.00,674.67 L604.01,665.62 L594.00,664.90 Z" fill="#815b38"/><path d="M665.00,901.00 L666.00,901.00 L666.00,922.00 L630.00,922.00 L594.00,922.00 L594.00,906.50 L594.00,891.00 L624.50,891.00 L655.00,891.00 L655.00,900.96 L614.00,901.21 L614.00,906.10 L614.00,911.00 L609.00,911.00 L604.00,911.00 L604.00,916.00 L604.00,921.00 L634.50,921.00 L665.00,921.00 L665.00,901.00 Z" fill="#5b3b2b" style=""/><path d="M666.00,696.00 L666.00,727.00 L645.00,727.00 L645.00,707.00 L630.00,707.00 L615.00,707.00 L615.00,697.33 L615.00,696.00 L666.00,696.00 Z M615.05,686.00 L615.00,696.00 L613.90,696.05 L614.00,686.00 L615.05,686.00 Z" fill="#5b3b2b" style=""/><path d="M266.00,522.00 L266.00,553.00 L256.00,553.00 L256.00,522.00 L266.00,522.00 Z" fill="#c0896a" style=""/><path d="M450.00,635.00 L450.00,640.00 L450.00,645.00 L435.00,645.00 L420.00,645.00 L420.00,640.00 L420.00,635.00 L450.00,635.00 Z" fill="#7e5c3b" style=""/><path d="M675.72,695.48 L675.50,695.72 L666.00,696.00 L666.00,666.00 L676.00,666.00 L675.72,695.48 Z" fill="#2b5f3a"/><path d="M675.72,695.48 L686.00,696.10 L686.00,717.00 L676.07,717.00 L675.50,695.72 L675.72,695.48 Z" fill="#295735"/><path d="M277.00,533.00 L286.00,533.00 L286.00,553.00 L277.00,553.00 L277.00,533.00 Z" fill="#c0896a" style=""/><path d="M563.00,655.42 L563.00,645.00 L574.10,645.00 L573.80,650.21 L573.50,655.42 L563.00,655.42 Z" fill="#5a3f2d"/><path d="M399.01,655.22 L399.01,645.00 L404.33,645.00 L409.65,645.00 L409.42,665.31 L409.00,655.00 L399.01,655.22 Z M399.01,655.22 L389.00,655.67 L399.01,655.22 Z M409.42,665.31 L399.00,665.67 L409.42,665.31 Z" fill="#5a3f2d"/><path d="M594.00,666.00 L594.00,676.00 L584.00,676.00 L584.00,666.00 L594.00,666.00 Z M604.00,676.00 L604.00,686.00 L594.00,686.00 L594.00,676.00 L604.00,676.00 Z M604.01,665.62 L594.00,666.00 L594.00,664.90 L604.01,665.62 Z" fill="#523929"/><path d="M604.01,665.62 L604.00,674.67 L604.00,676.00 L594.00,676.00 L594.00,666.00 L604.01,665.62 Z" fill="#070f0c"/><path d="M605.33,676.00 L614.38,675.99 L614.00,686.00 L604.00,686.00 L604.00,676.00 L605.33,676.00 Z" fill="#091712"/><path d="M614.00,686.00 L613.90,696.05 L604.00,696.00 L604.00,686.00 L614.00,686.00 Z M615.05,686.00 L614.00,686.00 L614.38,675.99 L615.05,686.00 Z" fill="#603f29"/><path d="M686.00,717.00 L696.00,717.00 L696.00,727.00 L686.00,727.00 L686.00,717.00 Z" fill="#2b5f3a"/></g><g id="group"><path d="M625.00,357.98 L625.00,359.00 L613.95,359.00 L614.55,389.00 L614.55,410.19 L609.28,409.84 L604.00,409.50 L604.00,420.00 L594.00,420.00 L594.00,430.00 L584.00,430.00 L584.06,440.00 L574.00,440.00 L574.00,460.90 L563.00,461.00 L563.00,471.00 L553.00,471.00 L553.00,481.00 L543.00,481.00 L543.00,476.00 L543.00,471.00 L538.00,471.00 L533.00,471.00 L533.00,476.00 L533.00,481.00 L527.50,481.00 L522.00,481.00 L522.00,492.00 L492.00,492.00 L492.00,491.00 L492.00,481.50 L471.00,480.94 L471.00,471.00 L461.00,471.00 L461.00,461.00 L451.07,461.00 L450.28,439.87 L450.28,430.00 L445.68,430.00 L441.08,430.00 L441.08,399.92 L450.00,399.92 L450.00,404.96 L450.00,410.00 L455.50,410.00 L461.00,410.00 L461.00,405.00 L461.00,400.00 L466.00,400.00 L471.00,400.00 L471.00,389.00 L481.00,389.00 L481.00,379.00 L482.00,379.00 L482.00,389.00 L507.00,389.00 L532.00,389.00 L532.00,379.00 L532.00,377.67 L533.08,378.92 L533.00,389.00 L549.50,389.21 C541.89,391.78 542.91,386.46 543.00,398.89 L552.50,399.50 L553.10,410.00 L573.90,410.00 L574.50,399.50 L583.50,398.50 L584.11,389.00 L594.00,389.00 L594.00,379.00 L604.00,379.00 L604.00,358.55 C599.04,359.29 588.89,359.28 584.09,358.55 L625.00,357.98 Z M584.09,358.55 L583.42,379.00 L582.68,359.93 L584.09,358.55 Z" fill="#98918d"/><path d="M482.00,410.00 L531.73,410.00 C532.13,410.61 533.84,429.16 533.00,430.00 L522.00,430.00 L522.00,420.00 L492.00,420.00 L492.00,430.00 L482.00,430.00 L482.00,410.00 Z" fill="#e8b68e"/></g><path d="M706.09,501.42 L706.95,502.10 L707.00,512.00 L717.00,512.00 L717.00,522.00 L723.50,522.15 L727.00,523.15 L727.00,532.00 L727.00,543.00 L736.95,543.00 L737.62,553.01 L746.93,553.00 L747.72,572.50 L748.00,573.00 L748.00,594.00 L738.00,594.00 L738.00,625.00 L727.00,625.00 L727.00,645.00 L717.00,645.00 C716.33,649.84 718.93,654.02 714.50,654.79 L706.98,655.25 L707.00,635.00 L696.65,635.01 L695.87,615.00 L686.00,615.00 L686.00,614.00 L686.00,604.00 L676.00,604.00 L676.00,594.00 L655.77,593.97 L655.77,584.11 L660.64,583.80 L665.50,583.50 L665.80,578.75 L666.11,574.00 L671.05,574.00 L676.00,574.00 L676.00,568.50 L676.00,563.00 L691.00,563.00 L706.00,563.00 L706.00,557.97 L706.00,552.95 L665.72,552.95 L665.45,543.50 L656.29,542.95 L655.00,541.67 L655.00,532.00 L645.00,531.90 L644.90,512.00 L666.00,512.00 L666.00,502.04 L706.09,501.42 Z" fill="#4a883e"/><path d="M625.00,594.00 L615.13,594.00 L614.35,614.00 L604.00,614.00 L604.00,625.00 L584.00,625.00 L584.00,635.00 L511.95,635.00 L512.50,603.98 L522.00,604.00 L522.00,584.05 L532.30,583.50 L532.79,573.99 L543.00,574.00 L543.01,563.04 L567.00,563.00 L574.00,563.00 L574.00,553.00 L594.00,553.00 L594.00,543.03 L613.81,543.00 L614.50,532.63 L625.01,532.27 L625.01,542.63 L625.00,553.00 L630.00,553.00 L635.00,553.00 L635.00,563.50 L635.00,574.00 L630.00,574.00 L625.00,574.00 L625.00,594.00 Z" fill="#4a883e"/><path d="M552.49,173.72 L522.00,173.72 L522.00,179.36 L522.00,185.00 L517.00,185.00 L512.00,185.00 L512.00,200.00 L512.00,215.00 L517.00,215.00 L522.00,215.00 L522.00,220.00 L522.00,225.00 L537.50,225.00 L553.00,225.00 L553.00,220.00 L553.00,215.00 L558.00,215.00 L563.00,215.00 L563.01,225.14 L563.01,235.27 L552.99,235.62 L553.00,246.00 L594.00,246.00 L604.00,246.00 L604.00,251.00 L604.00,256.00 L614.50,256.00 L625.00,256.00 L625.00,261.00 L625.00,265.99 L634.50,265.99 L635.05,277.00 L624.81,277.00 L604.00,277.05 L604.00,266.53 L553.00,266.43 L553.00,261.22 L553.00,256.00 L497.00,256.00 L441.00,256.00 L441.00,251.00 L441.00,246.00 L445.88,246.00 L450.75,246.00 L450.75,235.98 L491.89,235.98 L492.20,240.74 L492.50,245.50 L497.25,245.80 L502.00,246.11 L502.00,241.05 L502.00,236.00 L497.00,236.00 L492.00,236.00 L492.00,230.50 L492.00,225.00 L487.00,225.00 L482.00,225.00 L482.00,205.05 L482.00,185.11 L486.75,184.80 L491.50,184.50 L491.80,179.25 L492.10,174.00 L497.05,174.00 L502.00,174.00 L502.00,169.00 L502.00,164.00 L507.00,164.00 L512.00,164.00 L512.00,159.00 L512.00,154.00 L527.50,154.00 L543.00,154.00 L543.00,159.00 L543.00,164.00 L547.87,164.00 L552.74,164.00 L552.74,173.43 L552.49,173.72 Z" fill="#ead59a"/><path d="M389.00,490.15 L389.00,491.50 L389.00,502.00 L399.00,501.91 L399.00,512.00 L408.87,512.00 L410.00,512.00 L410.00,522.00 L399.00,522.00 L399.00,543.00 L389.00,543.00 L389.00,563.00 L379.00,563.00 C378.74,563.26 379.23,572.48 379.00,572.87 C377.67,575.10 358.59,573.43 358.50,573.54 L357.90,584.00 L338.00,584.00 L338.00,594.00 L318.00,594.00 L318.00,553.00 L307.00,553.00 L307.00,512.00 L338.00,512.00 L338.00,502.00 L339.33,502.00 L369.00,502.00 L369.00,492.05 L378.87,491.50 C380.53,487.97 384.30,490.53 389.00,490.15 Z" fill="#4a883e"/><path d="M706.46,768.00 L706.50,809.02 L706.69,840.00 L717.00,840.00 L717.00,850.00 L707.19,850.00 L706.30,860.22 L676.00,860.00 L676.00,850.00 L671.00,850.00 L666.00,850.00 L666.00,829.50 L666.00,809.00 L660.50,809.00 L655.00,809.00 L655.00,799.00 L655.00,789.00 L650.00,789.00 L645.00,789.00 L645.00,778.50 L645.00,768.00 L640.00,768.00 L635.00,768.00 L635.00,763.00 L635.00,758.00 L624.50,758.00 L614.00,758.00 L614.00,752.75 L614.00,747.50 L604.28,747.82 L594.55,748.15 L593.91,737.00 L666.00,737.00 L666.00,727.00 L676.00,727.00 L676.00,732.00 L676.00,737.00 L681.00,737.00 L686.00,737.00 L686.00,757.50 L686.00,778.00 L690.97,778.00 L695.95,778.00 L696.22,793.25 L696.50,808.50 L701.48,808.80 L706.46,809.11 L706.46,768.00 Z M594.00,727.00 L593.91,737.00 L584.00,737.00 L584.00,727.00 L594.00,727.00 Z" fill="#295a36"/><path d="M428.67,532.00 L429.95,533.10 L430.00,543.00 L440.00,543.00 L440.00,553.00 L461.00,553.00 L471.00,553.00 L471.00,568.02 C471.00,572.79 471.39,573.01 480.50,573.28 L480.95,574.22 L481.00,583.81 L492.00,584.50 L492.00,594.00 L492.00,635.00 L450.00,635.00 L450.00,625.00 L435.00,625.00 L420.00,625.00 L420.00,620.05 L420.00,615.10 L414.75,614.80 L409.50,614.50 L409.50,594.00 L409.50,573.50 L414.75,573.20 L419.99,572.90 L419.99,531.91 L428.67,532.00 Z" fill="#4a883e"/><path d="M195.00,256.00 L203.67,256.00 L205.00,257.33 L205.00,297.00 L215.00,297.00 L215.00,307.00 L225.00,307.00 L225.00,309.00 L225.00,318.00 L235.50,318.00 L246.00,318.00 L246.00,323.05 L246.00,328.11 L250.75,327.80 L255.50,327.50 L255.80,322.61 L256.09,317.72 L266.01,317.38 L266.00,307.78 L266.00,297.00 L267.00,297.00 L277.00,297.00 L277.00,292.00 L277.00,287.00 L282.00,287.00 L287.00,287.00 L287.00,307.00 L287.00,308.00 L277.00,308.00 L277.00,317.67 L277.00,327.34 L287.02,327.34 L277.07,328.50 L276.42,348.01 L276.42,328.00 L271.21,328.00 L266.00,328.00 L266.00,338.00 L256.00,338.00 L256.00,348.00 L256.00,430.00 L265.99,430.00 L266.53,491.00 L267.00,492.00 L266.00,492.00 L256.00,492.00 L256.00,471.50 L256.00,451.00 L246.00,451.00 L246.00,369.00 L236.00,369.00 L236.00,338.00 L225.00,338.00 L225.00,328.25 L214.99,327.15 L215.00,317.00 L205.53,317.27 L205.15,307.99 L199.90,307.99 L194.65,308.00 L194.65,317.32 C192.36,304.49 197.66,309.62 184.98,307.33 L194.00,307.00 L194.00,256.00 L195.00,256.00 Z M205.19,317.77 L194.65,317.32 L205.19,317.77 Z" fill="#815b38"/><path d="M482.08,716.92 L482.08,768.00 L487.04,768.00 L492.00,768.00 L492.00,717.00 L502.00,717.00 L502.00,722.00 L502.00,727.00 L510.67,727.00 L512.00,727.00 L512.00,768.00 L522.00,768.00 L522.00,770.40 L522.00,809.00 L527.00,809.00 L532.00,809.00 L532.00,768.00 L533.00,768.00 L533.00,807.90 L532.55,809.00 C531.56,809.51 531.91,839.51 532.40,840.00 L541.69,840.00 C542.06,843.58 543.75,879.94 543.00,880.69 C525.04,881.20 503.94,881.21 485.50,880.69 L532.00,880.58 L532.00,870.29 L532.00,860.00 L527.00,860.00 L522.00,860.00 L522.00,839.50 L522.00,819.00 L517.00,819.00 L512.00,819.00 L512.00,804.00 L512.00,789.00 L507.00,789.00 L502.00,789.00 L502.00,783.45 L502.00,777.90 L496.75,778.20 L491.50,778.50 L491.23,803.75 L490.97,829.00 L486.23,829.00 L481.50,829.00 L481.50,881.00 L471.00,881.00 L471.00,823.00 L471.32,820.50 C470.58,818.46 477.28,819.06 481.00,819.00 L481.00,768.00 L481.00,717.00 L481.00,715.67 L482.08,716.92 Z" fill="#295a36"/><path d="M420.00,512.00 L420.00,522.00 L430.00,522.00 L430.50,522.00 L429.90,532.00 L428.67,532.00 L419.99,531.91 L409.13,532.54 L409.72,547.77 L410.30,563.00 L404.65,563.00 L399.00,563.00 L399.00,573.50 L399.00,584.00 L394.00,584.00 L389.00,584.00 L389.00,589.00 L389.00,594.00 L384.00,594.00 L379.00,594.00 L379.00,599.00 L379.00,604.00 L374.00,604.00 L369.00,604.00 L369.00,608.95 L369.00,613.90 L363.75,614.20 L358.50,614.50 L358.20,619.75 L357.90,625.00 L353.00,625.00 L348.11,625.00 L347.80,629.75 L347.50,634.50 L337.75,634.79 L328.00,635.07 L328.00,640.04 L328.00,645.00 L318.00,645.00 L318.00,594.00 L338.00,594.00 L338.00,584.00 L357.90,584.00 L358.50,573.54 C358.59,573.43 377.67,575.10 379.00,572.87 C379.23,572.48 378.74,563.26 379.00,563.00 L389.00,563.00 L389.00,543.00 L399.00,543.00 L399.00,522.00 L410.00,522.00 L410.00,512.00 L420.00,512.00 Z M440.00,522.00 L441.00,522.00 L441.00,532.00 L441.00,533.00 L440.00,533.00 L429.95,533.10 L429.90,532.00 L440.19,532.00 L439.50,522.00 L440.00,522.00 Z M409.80,506.50 L410.00,512.00 L408.87,512.00 L409.80,506.50 Z" fill="#295a36"/><path d="M667.19,461.00 L665.88,471.02 L664.84,481.06 L645.11,481.06 L644.81,486.11 L644.51,491.16 L624.63,491.60 L623.89,500.91 L614.00,501.50 L614.00,511.50 L614.00,512.00 L594.00,512.00 L594.00,521.97 L574.00,522.58 L574.00,532.00 L573.00,532.00 L533.10,532.00 L532.25,522.10 L532.00,512.00 L533.00,512.00 L543.00,512.00 L553.00,512.00 L553.00,502.00 L563.00,502.00 L563.00,492.06 L583.50,491.61 L583.79,486.71 L584.08,481.82 L593.91,481.20 L613.89,481.20 L614.20,476.35 L614.50,471.50 L624.75,471.22 L635.00,470.93 L635.00,461.00 L667.19,461.00 Z" fill="#4a883e"/><path d="M266.00,584.00 L266.00,625.00 L271.50,625.00 L277.00,625.00 L277.00,696.50 L277.00,768.00 L287.00,768.00 L287.00,921.91 L276.00,922.50 L276.00,922.00 L276.00,768.00 L266.00,768.00 L266.00,625.00 L256.50,624.72 L256.08,623.92 L256.00,584.00 L266.00,584.00 Z" fill="#815b38"/><path d="M481.50,881.00 L481.50,829.00 L486.23,829.00 L490.97,829.00 L491.23,803.75 L491.50,778.50 L496.75,778.20 L502.00,777.90 L502.00,783.45 L502.00,789.00 L507.00,789.00 L512.00,789.00 L512.00,804.00 L512.00,819.00 L517.00,819.00 L522.00,819.00 L522.00,839.50 L522.00,860.00 L527.00,860.00 L532.00,860.00 L532.00,870.29 L532.00,880.58 L485.50,880.69 L481.50,881.00 Z" fill="#4a883e"/><path d="M593.99,317.38 L604.00,318.10 L604.00,328.00 L574.00,328.00 L574.00,317.00 L553.50,317.00 L533.00,317.00 L533.00,328.00 L533.00,338.00 L532.00,338.00 L532.00,318.00 L507.00,318.00 L482.00,318.00 L482.00,338.00 L481.00,338.00 L481.00,328.00 L481.00,318.00 L451.00,318.00 L441.00,318.00 L441.00,322.50 L441.00,327.00 L451.00,327.00 L451.00,328.00 L441.00,328.00 L440.00,328.00 L440.00,307.00 L440.00,297.00 L491.50,297.00 L543.00,297.00 L543.00,302.00 L543.00,307.00 L568.49,307.00 L593.99,307.00 L593.99,317.38 Z" fill="#c58b6a"/><path d="M553.00,492.00 L553.00,502.00 L553.00,512.00 L543.00,512.00 L543.00,502.00 L538.00,502.00 L533.00,502.00 L533.00,512.00 L532.00,512.00 L521.89,512.00 L522.19,516.85 L522.49,521.70 L532.25,522.10 L532.00,532.00 L532.00,543.00 L573.45,543.01 L573.50,553.00 L564.50,553.10 L543.00,553.00 L532.00,553.00 L532.00,562.95 L532.00,572.90 L522.00,572.90 L522.00,562.95 L491.64,563.50 L490.89,573.00 L482.50,573.32 L481.93,553.00 L471.00,553.00 L461.00,553.00 L461.00,543.00 L482.00,543.00 L482.00,532.00 L482.00,522.50 L490.99,522.55 L491.00,553.00 L502.50,553.00 L522.00,553.00 L522.00,537.50 L522.00,522.00 L512.00,522.00 L501.50,522.00 L492.50,522.28 L491.96,502.50 L492.00,502.00 L522.00,502.00 L522.00,492.00 L553.00,492.00 Z M584.00,461.50 L584.00,471.00 L589.00,471.00 L594.00,471.00 L594.00,461.00 L604.50,461.00 L614.13,461.00 L613.67,470.92 L603.99,471.21 L594.31,471.49 L593.91,481.20 L563.00,481.50 L563.00,492.06 L553.00,492.00 L553.00,481.00 L563.00,481.00 L563.00,471.00 L574.00,471.00 L574.00,460.90 L584.00,461.50 Z M594.00,440.00 L594.00,441.00 L594.00,461.00 L583.88,461.00 L584.06,440.00 L594.00,440.00 Z M441.00,533.00 L461.00,533.00 L461.00,543.00 L440.00,543.00 L440.00,533.00 L441.00,533.00 Z M594.00,533.00 L594.00,543.03 L574.00,542.42 L574.00,533.00 L594.00,533.00 Z" fill="#091712"/><path d="M430.00,451.00 L430.00,461.00 L440.00,461.00 L440.00,471.00 L445.00,471.00 L450.00,471.00 L450.00,481.39 C450.00,491.51 450.06,491.79 454.50,491.79 L461.00,492.00 L461.00,502.00 L471.00,502.00 L471.00,512.00 L481.00,512.00 L481.00,532.00 L461.00,532.00 L461.00,522.00 L441.00,522.00 L440.00,522.00 L440.00,512.00 L430.00,512.00 L430.00,502.00 L420.00,502.00 L420.02,491.63 L410.50,490.88 L409.32,481.50 L400.00,480.95 L400.00,470.90 L400.00,461.07 L409.75,460.79 L419.50,460.50 L419.80,455.75 L420.11,451.00 L430.00,451.00 Z" fill="#4a883e"/><path d="M482.00,154.05 L482.00,133.00 L487.00,133.00 L492.00,133.00 L492.00,128.00 L492.00,123.00 L497.00,123.00 L502.00,123.00 L502.00,118.00 L502.00,113.00 L507.00,113.00 L512.00,113.00 L512.00,107.50 L512.00,102.00 L517.00,102.00 L522.00,102.00 L522.00,97.00 L522.00,92.00 L532.50,92.00 L543.00,92.00 L543.00,87.00 L543.00,82.00 L553.00,82.00 L563.00,82.00 L563.00,77.00 L563.00,72.00 L599.00,72.00 L635.00,72.00 L635.00,82.00 L574.00,82.00 L574.00,87.00 L574.00,92.00 L563.50,92.00 L553.00,92.00 L553.00,96.97 L553.00,101.93 L542.75,102.22 L532.50,102.50 L532.20,107.75 L531.90,113.00 L526.95,113.00 L522.00,113.00 L522.00,118.00 L522.00,123.00 L517.00,123.00 L512.00,123.00 L512.00,128.00 L512.00,133.00 L507.05,133.00 L502.10,133.00 L501.80,138.25 L501.50,143.50 L496.80,143.80 L492.11,144.11 L491.81,148.89 L491.51,153.67 L482.00,154.05 Z M645.00,92.00 L635.00,92.00 L635.00,82.00 L645.00,82.00 L645.00,92.00 Z" fill="#091712"/><path d="M758.00,573.00 L758.00,625.00 L753.05,625.00 L748.10,625.00 L747.80,640.16 L747.50,655.32 L757.50,655.32 L748.04,656.50 L747.44,686.00 C747.05,658.83 746.69,655.02 744.50,655.16 L737.58,655.75 L737.35,676.00 L732.18,676.00 L727.00,676.00 L727.00,696.00 L717.00,696.00 L717.08,655.83 L714.50,654.79 C718.93,654.02 716.33,649.84 717.00,645.00 L727.00,645.00 L727.00,625.00 L738.00,625.00 L738.00,594.00 L748.00,594.00 L748.00,573.00 L758.00,573.00 Z" fill="#295a36"/><path d="M215.00,235.00 L215.00,225.00 L240.50,225.00 L266.00,225.00 L266.00,230.50 L266.00,236.00 L271.00,236.00 L276.00,236.00 L276.00,241.00 L276.00,246.00 L281.50,246.00 L287.00,246.00 L287.00,251.00 L287.00,256.00 L292.00,256.00 L297.00,256.00 L297.00,281.50 L297.00,307.00 L287.00,307.00 L287.00,287.00 L282.00,287.00 L277.00,287.00 L277.00,292.00 L277.00,297.00 L267.00,297.00 L267.00,287.11 L271.75,286.80 L276.50,286.50 L276.79,271.44 L277.08,256.38 L266.00,255.48 L266.00,246.00 L256.00,246.00 L226.33,246.00 L225.00,244.67 L225.00,235.00 L215.00,235.00 Z" fill="#091712"/><path d="M655.77,593.97 L656.00,604.00 L655.75,604.50 L655.39,615.02 L660.04,615.01 L664.70,615.00 L665.35,625.00 L666.01,635.00 L676.00,635.00 L676.00,645.00 L666.26,645.00 L665.60,649.95 L664.95,654.89 L660.22,655.20 L655.50,655.50 L655.20,660.25 L654.89,665.00 L649.95,665.00 L645.00,665.00 L645.00,660.00 L645.00,655.00 L640.00,655.00 L635.00,655.00 L635.00,650.00 L635.00,645.00 L615.00,645.00 L615.00,635.00 L625.00,635.00 L635.00,635.00 L635.00,625.00 L635.00,614.00 L625.50,614.00 L625.22,614.25 L624.39,604.51 L639.77,604.25 L655.14,604.00 L655.77,593.97 Z" fill="#e8b68e"/><path d="M666.00,870.54 L666.00,881.00 L609.54,881.00 L553.08,881.00 L553.08,840.08 L553.54,839.12 L563.98,839.82 L563.99,855.13 L564.00,870.43 L666.00,870.54 Z M676.00,860.00 L706.30,860.22 L706.72,860.52 L707.00,871.00 L666.00,870.54 L666.00,860.00 L676.00,860.00 Z" fill="#ead59a"/><path d="M644.90,512.00 L645.00,531.90 L635.00,532.58 L635.00,537.79 L635.00,543.00 L645.00,543.00 L645.00,563.00 L655.00,563.00 L655.00,572.89 L650.25,573.20 L645.50,573.50 L645.20,578.75 L644.90,584.00 L639.95,584.00 L635.00,584.00 L635.00,589.00 L635.00,594.00 L625.00,594.00 L625.00,574.00 L630.00,574.00 L635.00,574.00 L635.00,563.50 L635.00,553.00 L630.00,553.00 L625.00,553.00 L625.01,542.63 L625.01,532.27 L614.50,532.63 L594.00,533.00 L594.00,532.00 L614.00,532.00 L614.00,522.00 L625.00,522.00 L625.00,512.09 L644.90,512.00 Z M707.00,501.00 L706.09,501.42 L666.00,502.04 L666.00,492.00 L707.00,492.00 L707.00,501.00 Z M666.00,502.04 L666.00,512.00 L644.90,512.00 L645.74,501.98 L666.00,502.04 Z M656.29,542.95 L665.45,543.50 L665.72,552.95 L664.90,563.00 L655.00,563.00 L655.00,543.00 L656.29,542.95 Z" fill="#295a36"/><path d="M635.00,133.00 L635.00,154.00 L665.32,153.63 L665.67,164.00 L676.00,164.00 L676.00,174.00 L655.00,174.00 L655.00,169.00 L655.00,164.00 L645.02,164.00 L635.04,164.00 L635.04,225.00 L625.02,225.01 L625.00,215.00 L625.00,133.00 L635.00,133.00 Z M644.99,276.38 L655.00,277.10 L654.83,286.00 L654.32,286.86 L635.00,285.73 L635.05,277.00 L634.50,265.99 L635.04,225.00 L645.00,225.00 L644.99,276.38 Z" fill="#091712"/><path d="M533.00,338.00 L553.00,338.00 L553.00,353.50 L553.00,369.00 L558.20,369.00 L563.40,369.00 L563.55,338.00 L563.55,345.00 L568.28,345.00 L573.00,345.00 L573.00,338.00 L574.00,338.00 L574.39,377.96 L573.08,379.08 L533.08,378.92 L532.00,377.67 L532.00,338.00 L533.00,338.00 Z M482.00,338.00 L482.00,318.00 L507.00,318.00 L532.00,318.00 L532.00,338.00 L522.00,338.00 L522.00,343.00 L522.00,348.00 L507.00,348.00 L492.00,348.00 L492.00,343.00 L492.00,338.00 L482.00,338.00 Z M549.50,389.21 L573.38,389.01 L574.10,379.00 L583.42,379.00 L584.09,358.55 C588.89,359.28 599.04,359.29 604.00,358.55 L604.00,379.00 L594.00,379.00 L594.00,389.00 L584.11,389.00 L583.50,398.50 L574.50,399.50 L573.90,410.00 L553.10,410.00 L552.50,399.50 L543.00,398.89 C542.91,386.46 541.89,391.78 549.50,389.21 Z M604.00,328.00 L604.00,338.00 L604.00,348.00 L584.00,348.00 L584.00,343.00 L584.00,338.00 L574.00,338.00 L574.00,328.00 L604.00,328.00 Z" fill="#e8b68e"/><path d="M256.00,248.00 L256.00,256.00 L266.00,256.00 L266.00,286.29 L256.18,287.24 L255.50,297.00 L226.00,297.00 L225.00,297.00 L225.00,287.11 L215.98,286.37 C215.15,279.85 218.01,272.46 225.07,274.00 C225.07,276.74 226.89,277.00 235.46,277.00 L245.85,277.00 L245.85,256.02 L249.50,248.02 L256.00,248.00 Z" fill="#7ee94f"/><path d="M441.00,338.00 L461.00,338.00 L460.99,368.38 L471.00,369.10 L471.00,352.64 L481.00,353.10 L481.00,379.00 L471.50,378.71 C467.28,377.47 454.17,377.78 448.99,378.50 C450.22,374.51 442.80,373.76 441.00,371.96 L441.00,379.00 L440.00,379.00 L440.00,338.00 L441.00,338.00 Z" fill="#e8b68e"/><path d="M666.00,410.00 L666.00,430.00 L655.00,430.00 L655.00,435.00 L655.00,440.00 L645.00,440.00 L634.99,440.00 L634.99,450.42 L614.63,450.57 L614.13,461.00 L604.50,461.00 L603.37,440.99 L603.00,440.00 L604.00,440.00 L614.00,440.00 L614.00,430.00 L615.00,430.03 L635.03,429.50 C635.96,423.30 644.29,430.80 641.15,426.82 C646.07,424.87 648.43,420.44 655.39,420.31 L656.05,410.00 L666.00,410.00 Z" fill="#4a883e"/><path d="M532.00,379.00 L532.00,389.00 L507.00,389.00 L482.00,389.00 L482.00,379.00 L491.00,379.00 L491.00,368.50 L491.00,358.00 L506.50,358.00 L522.00,358.00 L522.00,368.50 L522.00,379.00 L532.00,379.00 Z" fill="#e8b68e"/><path d="M461.00,819.00 L461.00,819.90 L461.00,828.37 L461.00,881.00 L409.63,881.02 L410.00,870.00 L450.00,870.00 L450.00,844.50 L450.00,819.00 L461.00,819.00 Z M481.00,717.00 L481.00,768.00 L471.00,768.00 L471.00,717.00 L481.00,717.00 Z M471.00,768.00 L471.00,819.00 L461.00,819.00 L461.00,768.00 L471.00,768.00 Z" fill="#ead59a"/><path d="M532.00,338.00 L532.00,377.67 L532.00,379.00 L522.00,379.00 L522.00,368.50 L522.00,358.00 L506.50,358.00 L491.00,358.00 L491.00,368.50 L491.00,379.00 L482.00,379.00 L482.00,338.00 L492.00,338.00 L492.00,343.00 L492.00,348.00 L507.00,348.00 L522.00,348.00 L522.00,343.00 L522.00,338.00 L532.00,338.00 Z" fill="#454437"/><path d="M318.00,594.00 L318.00,645.00 L317.00,645.00 L308.33,645.00 L307.00,643.67 L307.00,553.00 L318.00,553.00 L318.00,594.00 Z" fill="#e9d899"/><path d="M686.00,184.00 L696.00,184.00 L696.00,169.00 L696.00,154.00 L691.55,154.00 L687.10,154.00 L686.80,148.75 L686.50,143.50 L681.25,143.20 L676.00,142.90 L676.00,123.00 L686.00,123.00 L686.00,128.00 L686.00,133.00 L691.50,133.00 L697.00,133.00 L697.00,142.95 L697.00,152.89 L701.75,153.20 L706.50,153.50 L706.77,174.25 L707.04,195.00 L696.52,195.00 L686.00,195.00 L686.00,184.00 Z M676.00,123.00 L666.00,123.00 L666.00,113.11 L676.00,113.00 L676.00,123.00 Z" fill="#091712"/><path d="M635.04,225.00 L634.50,265.99 L625.00,265.99 L625.00,261.00 L625.00,256.00 L614.50,256.00 L604.00,256.00 L604.00,251.00 L604.00,246.00 L594.00,246.00 L594.00,245.05 L594.00,236.00 C595.57,234.43 615.94,238.57 615.09,233.87 C619.04,233.61 615.37,235.39 617.98,234.98 C617.27,229.12 622.66,227.87 625.02,225.01 L635.04,225.00 Z" fill="#295735"/><path d="M625.00,133.00 L625.00,215.00 L613.74,215.00 C616.54,187.25 614.26,153.24 615.00,123.00 L625.00,123.00 L625.00,133.00 Z" fill="#295735"/><path d="M765.00,573.00 C767.80,573.00 768.00,577.11 768.00,604.00 L768.00,635.00 L762.86,635.00 L757.72,635.00 L757.50,655.32 L747.50,655.32 L747.80,640.16 L748.10,625.00 L753.05,625.00 L758.00,625.00 L758.00,573.00 L765.00,573.00 Z M758.00,567.26 L758.00,573.00 L748.00,573.00 L747.72,572.50 L748.00,543.00 L758.00,543.00 L758.00,567.26 Z M747.44,686.00 L737.50,686.01 L742.00,675.00 L737.58,675.00 C738.26,670.14 738.29,660.94 737.58,655.75 L744.50,655.16 C746.69,655.02 747.05,658.83 747.44,686.00 Z" fill="#091712"/><path d="M584.00,901.00 L491.72,901.00 L491.58,891.00 L584.00,891.00 L584.00,901.00 Z" fill="#b9b9b9"/><path d="M635.00,389.00 L614.55,389.00 L613.95,359.00 L625.00,359.00 L625.00,379.11 L629.75,378.80 L634.50,378.50 L634.78,368.24 L635.07,357.98 L625.00,357.98 L625.00,348.00 L645.00,348.00 L645.00,363.50 L645.00,379.00 L640.00,379.00 L635.00,379.00 L635.00,389.00 Z" fill="#e8b68e"/><path d="M419.33,430.03 L419.62,440.38 L430.00,441.10 L430.00,451.00 L420.11,451.00 L419.80,455.75 L419.50,460.50 L409.75,460.79 L400.00,461.07 L400.00,470.90 L388.95,471.71 L379.00,471.50 L379.00,461.00 L384.00,461.00 L389.00,461.00 L389.00,456.00 L389.00,451.00 L399.50,451.00 L410.00,451.00 L410.00,430.00 L419.33,430.03 Z M450.28,439.87 L450.35,461.00 L440.00,461.00 L430.00,461.00 L430.00,451.00 L441.00,451.00 L440.73,440.53 L450.28,439.87 Z M451.07,461.00 L461.00,461.00 L461.00,471.00 L461.00,481.00 L451.13,481.00 L450.35,461.00 L451.07,461.00 Z M471.00,480.94 L471.00,490.94 L462.50,491.77 L462.33,492.00 L461.03,490.81 L461.00,481.00 L471.00,480.94 Z" fill="#091712"/><path d="M266.00,348.00 L265.99,430.00 L256.00,430.00 L256.00,348.00 L266.00,348.00 Z M266.53,491.00 L265.99,430.00 L276.00,430.00 L276.00,456.00 L276.00,482.00 L281.50,482.00 L287.00,482.00 L287.00,486.50 L287.00,491.00 L266.53,491.00 Z M276.42,348.01 L266.00,348.00 L266.00,338.00 L266.00,328.00 L271.21,328.00 L276.42,328.00 L276.42,348.01 Z" fill="#091712"/><path d="M615.00,338.00 L614.00,338.00 L604.00,338.00 L604.00,328.00 L604.00,318.10 L593.99,317.38 L635.00,317.38 L635.00,322.69 L635.00,328.00 L640.00,328.00 L645.00,328.00 L645.00,333.00 L645.00,338.00 L615.00,338.00 Z" fill="#716b66"/><path d="M573.00,338.00 L563.55,338.00 L563.40,369.00 L558.20,369.00 L553.00,369.00 L553.00,353.50 L553.00,338.00 L533.00,338.00 L533.00,328.00 L573.00,328.00 L573.00,338.00 Z" fill="#454437"/><path d="M604.00,348.00 L614.00,348.00 L614.00,338.00 L615.00,338.00 L615.00,348.00 L625.00,348.00 L625.00,357.98 L584.09,358.55 L582.68,359.93 C579.34,365.19 587.23,371.02 576.00,367.77 C575.38,367.49 577.27,358.49 574.83,358.48 C575.82,360.94 574.48,375.66 574.39,377.96 L574.00,338.00 L584.00,338.00 L584.00,343.00 L584.00,348.00 L604.00,348.00 Z" fill="#454437"/><path d="M676.00,645.00 L676.00,656.00 L671.00,656.00 L666.00,656.00 L666.00,666.00 L625.05,666.00 L624.69,655.49 L619.84,655.19 L615.00,654.89 L615.00,645.00 L635.00,645.00 L635.00,650.00 L635.00,655.00 L640.00,655.00 L645.00,655.00 L645.00,660.00 L645.00,665.00 L649.95,665.00 L654.89,665.00 L655.20,660.25 L655.50,655.50 L660.22,655.20 L664.95,654.89 L665.60,649.95 L666.26,645.00 L676.00,645.00 Z" fill="#c58b6a"/><path d="M706.98,655.25 L717.08,655.83 L717.00,696.00 L716.90,713.50 C715.52,707.90 710.55,713.82 708.88,709.00 C704.92,707.03 708.37,716.45 706.53,717.00 L705.99,656.00 L706.00,655.00 L706.98,655.25 Z M706.00,655.00 L697.00,655.00 L697.00,647.00 L706.00,647.00 L706.00,655.00 Z" fill="#e8d69d"/><path d="M451.00,328.00 L481.00,328.00 L481.00,338.00 L471.00,338.00 L471.00,352.41 C458.70,351.56 464.76,359.22 463.00,368.38 C463.00,368.38 461.10,367.79 460.99,368.38 L461.00,338.00 L441.00,338.00 L441.00,328.00 L451.00,328.00 Z" fill="#454437"/><path d="M573.69,717.00 L572.96,676.00 L522.88,676.00 C525.98,672.73 521.34,670.33 521.51,666.00 L574.00,666.00 L573.69,717.00 Z" fill="#295a36"/><path d="M267.00,492.00 L287.00,492.00 L287.00,512.00 L282.00,512.00 L277.00,512.00 L277.00,517.00 L277.00,522.00 L266.00,522.00 L266.00,492.00 L267.00,492.00 Z" fill="#e8b68e"/><path d="M481.00,768.00 L481.00,819.00 C477.28,819.06 470.58,818.46 471.32,820.50 L461.00,819.90 L461.00,819.00 L471.00,819.00 L471.00,768.00 L481.00,768.00 Z" fill="#091712"/><path d="M430.00,419.68 L420.12,419.70 L410.00,420.00 L410.00,429.00 L409.01,429.38 L409.35,420.01 L410.14,400.50 L420.03,399.39 L420.00,389.00 L430.00,389.00 L430.00,419.68 Z" fill="#295a36"/><path d="M307.14,501.55 L307.00,512.00 L307.00,553.00 L297.00,553.00 L297.00,501.58 L307.14,501.55 Z" fill="#e8d69d"/><path d="M707.17,297.50 C707.00,306.73 707.15,307.00 712.24,306.96 L727.01,307.59 L715.74,308.00 L716.75,317.00 L705.99,317.28 L706.00,307.00 L696.00,307.00 L676.00,307.00 L675.74,296.71 C676.91,291.68 681.16,296.78 680.00,287.00 C685.94,287.00 686.00,287.09 686.00,292.14 L686.00,297.29 L707.17,297.50 Z" fill="#091712"/><path d="M533.00,328.00 L533.00,317.00 L553.50,317.00 L574.00,317.00 L574.00,328.00 L574.00,338.00 L573.00,338.00 L573.00,328.00 L533.00,328.00 Z" fill="#877d74"/><path d="M194.00,256.00 L194.00,307.00 L184.98,307.33 L185.00,256.00 L194.00,256.00 Z" fill="#091712"/><path d="M533.10,532.00 L573.00,532.00 L573.00,542.00 L573.45,543.01 L532.00,543.00 L532.00,532.00 L533.10,532.00 Z" fill="#ead59a"/><path d="M471.00,389.00 L471.00,400.00 L466.00,400.00 L461.00,400.00 L461.00,405.00 L461.00,410.00 L455.50,410.00 L450.00,410.00 L450.00,404.96 L450.00,399.92 L441.08,399.92 L440.00,398.67 L440.00,389.00 L471.00,389.00 Z" fill="#e8b68e"/><path d="M492.00,676.00 L492.00,717.00 L482.08,716.92 L481.00,715.67 L481.00,676.00 L492.00,676.00 Z" fill="#ead59a"/><path d="M225.00,255.88 L245.85,256.02 L245.85,277.00 L235.46,277.00 C226.89,277.00 225.07,276.74 225.07,274.00 L224.50,256.00 L225.00,255.88 Z" fill="#dbfdd3"/><path d="M553.00,481.00 L553.00,492.00 L522.00,492.00 L522.00,481.00 L527.50,481.00 L533.00,481.00 L533.00,476.00 L533.00,471.00 L538.00,471.00 L543.00,471.00 L543.00,476.00 L543.00,481.00 L553.00,481.00 Z M522.00,492.00 L522.00,502.00 L492.00,502.00 L492.00,492.00 L522.00,492.00 Z M584.06,440.00 L583.88,461.00 L584.00,461.50 L574.00,460.90 L574.00,440.00 L584.06,440.00 Z M574.00,460.90 L574.00,471.00 L563.00,471.00 L563.00,461.00 L574.00,460.90 Z M604.00,420.00 L604.00,430.00 L594.00,430.00 L594.00,420.00 L604.00,420.00 Z M594.00,430.00 L594.00,440.00 L584.06,440.00 L584.00,430.00 L594.00,430.00 Z M563.00,471.00 L563.00,481.00 L553.00,481.00 L553.00,471.00 L563.00,471.00 Z M492.00,491.00 L492.00,492.00 L471.00,492.00 L471.00,490.94 L492.00,491.00 Z M603.00,440.00 L603.37,440.99 L594.00,441.00 L594.00,440.00 L603.00,440.00 Z" fill="#6a655f"/><path d="M665.32,153.63 L635.00,154.00 L635.00,133.00 L635.00,123.00 L640.00,123.00 L645.00,123.00 L645.00,133.00 L645.00,143.00 L650.00,143.00 L655.00,143.00 L654.99,148.13 L654.99,153.27 L665.32,153.63 Z M665.67,164.00 L665.32,153.63 L665.67,164.00 Z" fill="#295a36"/><path d="M634.99,450.42 L676.00,451.02 L676.10,461.00 L667.19,461.00 L635.00,461.00 L635.00,451.00 L614.63,450.57 L634.99,450.42 Z M686.00,471.00 L675.50,471.00 L676.10,461.00 L686.00,461.00 L686.00,471.00 Z" fill="#295a36"/><path d="M614.63,450.57 L615.00,461.00 L635.00,461.00 L635.00,470.93 L624.75,471.22 L614.50,471.50 L614.20,476.35 L613.89,481.20 L593.91,481.20 L594.31,471.49 L603.99,471.21 L613.67,470.92 L614.13,461.00 L614.63,450.57 Z M593.91,481.20 L584.08,481.82 L583.79,486.71 L583.50,491.61 L563.00,492.06 L563.00,481.50 L593.91,481.20 Z M563.00,492.06 L563.00,502.00 L553.00,502.00 L553.00,492.00 L563.00,492.06 Z" fill="#295735"/><path d="M552.94,799.57 C535.27,799.92 548.11,801.31 543.30,808.66 L533.00,807.90 L533.00,768.00 L543.00,768.00 L542.99,783.61 L542.99,799.22 L552.94,799.57 Z" fill="#ead59a"/><path d="M511.87,594.01 L512.50,603.98 L511.95,635.00 L502.00,635.00 L502.00,594.00 L511.87,594.01 Z" fill="#e8d69d"/><path d="M441.00,379.00 L471.50,378.71 L481.00,379.00 L481.00,389.00 L471.00,389.00 L440.00,389.00 L440.00,379.00 L441.00,379.00 Z M440.00,338.00 L440.00,379.00 L430.50,379.00 L429.96,338.00 L440.00,338.00 Z" fill="#414033"/><path d="M409.01,398.38 L399.00,399.10 L399.00,420.00 L389.00,420.00 L389.00,404.50 L389.00,389.00 L399.01,389.00 L409.01,389.00 L409.01,398.38 Z M409.35,420.01 L409.01,429.38 L399.00,430.10 L399.00,420.00 L409.35,420.01 Z" fill="#091712"/><path d="M492.00,676.00 L481.00,676.00 L451.00,676.00 L451.00,665.86 L492.00,666.00 L492.00,676.00 Z M420.00,666.11 L420.00,655.00 L449.79,655.00 C451.24,656.97 451.09,662.76 451.00,665.86 L420.00,666.11 Z" fill="#295a36"/><path d="M522.00,768.00 L512.00,768.00 L512.00,727.00 L522.00,727.00 L522.00,768.00 Z M523.00,768.00 L524.40,768.00 L522.00,770.40 L522.00,768.00 L523.00,768.00 Z" fill="#0a1c14"/><path d="M213.67,256.00 L215.00,257.33 L215.00,286.00 L215.00,297.00 L205.00,297.00 L205.00,257.33 L205.00,256.00 L213.67,256.00 Z M225.00,297.00 L225.00,307.00 L215.00,307.00 L215.00,297.00 L225.00,297.00 Z" fill="#091712"/><path d="M502.50,553.00 L502.24,543.00 L512.00,543.00 L512.00,532.90 L512.00,522.00 L522.00,522.00 L522.00,537.50 L522.00,553.00 L502.50,553.00 Z" fill="#a78b56" style=""/><path d="M522.00,572.90 L511.77,573.50 L512.50,584.00 L512.02,583.75 L501.98,583.40 L501.99,578.49 L502.00,573.58 L492.00,572.90 L491.64,563.50 L522.00,562.95 L522.00,572.90 Z" fill="#295735"/><path d="M573.08,379.08 L573.38,389.01 L549.50,389.21 L533.00,389.00 L533.08,378.92 L573.08,379.08 Z" fill="#414033"/><path d="M552.94,799.57 L553.54,839.12 L553.08,840.08 L543.00,840.00 L543.30,808.66 C548.11,801.31 535.27,799.92 552.94,799.57 Z M543.30,808.66 L532.55,809.00 L533.00,807.90 L543.30,808.66 Z" fill="#e5d097"/><path d="M266.00,307.78 L266.01,317.38 L226.00,317.00 L226.00,309.00 C226.00,308.30 235.00,308.02 266.00,307.78 Z" fill="#091712"/><path d="M522.61,727.00 L523.00,759.00 L523.00,768.00 L522.00,768.00 L522.00,727.00 L512.00,727.00 L512.00,725.67 L512.00,696.00 L521.90,696.00 L522.61,727.00 Z" fill="#e8d09c"/><path d="M267.00,297.00 L266.00,297.00 L266.00,286.29 L266.00,256.00 L266.00,255.48 L277.08,256.38 L276.79,271.44 L276.50,286.50 L271.75,286.80 L267.00,287.11 L267.00,297.00 Z" fill="#59b455"/><path d="M665.88,471.02 L675.50,471.00 L686.00,471.00 L696.00,471.00 L696.00,476.17 L696.00,481.34 L665.72,481.50 L664.84,481.06 L665.88,471.02 Z" fill="#e8d09c"/><path d="M492.00,492.00 L492.00,502.00 L491.96,502.50 L481.00,501.81 L481.00,512.00 L471.00,512.00 L471.00,502.00 L471.00,492.00 L492.00,492.00 Z M471.00,490.94 L471.00,492.00 L462.50,491.77 L471.00,490.94 Z" fill="#0a1c14"/><path d="M532.00,760.52 C527.11,763.28 530.43,762.53 523.85,761.84 C522.22,760.79 528.30,758.53 523.00,759.00 L522.61,727.00 L532.00,727.00 L532.00,760.52 Z" fill="#ead59a"/><path d="M369.00,492.05 L369.00,502.00 L339.33,502.00 L338.00,500.67 L338.00,492.00 L369.00,492.05 Z M410.00,492.00 L410.00,502.00 L420.00,502.00 L420.00,512.00 L410.00,512.00 L409.80,506.50 C412.58,500.26 403.68,502.44 399.00,501.91 L399.00,492.00 L410.00,492.00 Z M389.00,481.00 L398.50,481.00 L399.20,492.21 L389.00,491.50 L389.00,490.15 L389.00,482.00 L379.00,482.00 L379.00,481.00 L389.00,481.00 Z M379.00,482.00 L378.87,491.50 L369.00,492.05 L369.00,482.00 L379.00,482.00 Z M430.00,512.00 L430.00,522.00 L420.00,522.00 L420.00,512.00 L430.00,512.00 Z" fill="#091712"/><path d="M255.50,297.00 L256.00,297.00 L256.00,307.00 L241.00,307.00 L226.00,307.00 L226.00,297.00 L255.50,297.00 Z" fill="#59b455"/><path d="M481.00,328.00 L451.00,328.00 L451.00,327.00 L451.00,318.00 L481.00,318.00 L481.00,328.00 Z" fill="#7f766f"/><path d="M174.94,205.00 C175.11,204.91 183.89,205.00 183.89,205.00 L184.50,214.50 L194.00,215.11 L194.00,225.07 L174.50,224.50 C173.93,223.11 173.32,205.87 174.94,205.00 Z" fill="#71cb5b"/><path d="M316.84,501.78 L338.00,502.00 L338.00,512.00 L307.00,512.00 L307.14,501.55 C309.07,508.73 314.30,502.41 316.84,501.78 Z M297.00,501.58 L307.14,501.55 L297.00,501.58 Z" fill="#0a1d13"/><path d="M481.00,154.00 L481.00,174.00 L476.00,174.00 C472.37,174.00 471.00,174.39 471.00,176.81 C464.36,175.22 467.19,175.69 468.97,171.19 C464.25,170.69 462.66,165.89 461.09,172.50 L461.09,164.00 L466.05,164.00 L471.00,164.00 L471.00,159.00 L471.00,154.00 L481.00,154.00 Z" fill="#091712"/><path d="M471.00,176.81 L471.00,195.00 L460.82,195.14 C458.19,193.69 456.33,190.15 457.00,184.92 L450.92,184.92 L451.64,184.00 L461.00,184.00 L461.00,177.00 L461.09,172.50 C462.66,165.89 464.25,170.69 468.97,171.19 C467.19,175.69 464.36,175.22 471.00,176.81 Z" fill="#0a1c14"/><path d="M379.00,870.42 L379.00,861.00 L409.00,861.00 L409.00,865.71 L409.00,870.42 L379.00,870.42 Z" fill="#ead59a"/><path d="M664.84,481.06 L665.72,481.50 L666.00,492.00 L646.00,492.00 L645.00,492.00 L624.63,491.60 L644.51,491.16 L644.81,486.11 L645.11,481.06 L664.84,481.06 Z M624.63,491.60 L625.00,501.00 L623.89,500.91 L624.63,491.60 Z" fill="#ead59a"/><path d="M461.00,532.00 L481.00,532.00 L482.00,532.00 L482.00,543.00 L461.00,543.00 L461.00,533.00 L441.00,533.00 L441.00,532.00 L461.00,532.00 Z" fill="#e8d69d"/><path d="M727.00,327.42 L747.00,327.65 L747.00,332.82 L747.00,338.00 L737.00,338.00 L727.00,338.00 L727.00,333.00 L727.00,328.00 L706.68,328.00 L686.36,328.00 L686.36,317.56 L687.11,327.00 L727.00,327.42 Z M686.36,317.56 L645.00,317.44 L686.36,317.56 Z" fill="#518846"/><path d="M737.58,655.75 C738.29,660.94 738.26,670.14 737.58,675.00 L742.00,675.00 L737.50,686.01 L736.95,696.00 L727.00,696.00 L727.00,676.00 L732.18,676.00 L737.35,676.00 L737.58,655.75 Z M744.50,655.16 L737.58,655.75 L744.50,655.16 Z" fill="#0a1c14"/><path d="M543.00,553.00 L543.01,563.04 C537.32,565.80 531.31,563.76 532.79,573.99 L532.30,583.50 L522.00,584.05 L522.00,572.90 L532.00,572.90 L532.00,562.95 L532.00,553.00 L543.00,553.00 Z" fill="#e8d69d"/><path d="M256.00,246.00 L256.00,248.00 L249.50,248.02 L245.85,256.02 L225.00,255.88 L225.00,247.33 L226.33,246.00 L256.00,246.00 Z" fill="#8bec5b"/><path d="M409.99,398.38 L420.03,399.39 L410.14,400.50 L409.35,420.01 L399.00,420.00 L399.00,399.10 L409.01,398.38 L409.99,398.38 Z" fill="#e8d09c"/><path d="M654.83,286.00 L655.92,287.08 L680.00,287.00 C681.16,296.78 676.91,291.68 675.74,296.71 L655.56,297.00 L654.32,286.86 L654.83,286.00 Z" fill="#0a1d13"/><path d="M564.50,553.10 C566.48,553.95 567.00,556.00 567.00,563.00 L543.01,563.04 L543.00,553.00 L564.50,553.10 Z" fill="#295a36"/><path d="M450.35,461.00 L451.13,481.00 L461.00,481.00 L461.03,490.81 L454.50,491.79 C450.06,491.79 450.00,491.51 450.00,481.39 L450.00,471.00 L445.00,471.00 L440.00,471.00 L440.00,461.00 L450.35,461.00 Z" fill="#295a36"/><path d="M491.96,502.50 L492.50,522.28 L492.08,523.08 L490.99,522.55 L482.00,522.50 L482.00,532.00 L481.00,532.00 L481.00,512.00 L481.00,501.81 L491.96,502.50 Z" fill="#295a36"/><path d="M696.65,635.01 L697.00,647.00 L697.00,655.00 L706.00,655.00 L705.99,656.00 L696.00,656.00 L696.00,645.50 L696.00,635.00 L691.00,635.00 L686.00,635.00 L686.00,615.00 L695.87,615.00 L696.65,635.01 Z" fill="#e5d097"/><path d="M153.75,245.50 L164.07,246.20 L163.50,265.50 C162.77,266.23 154.23,266.23 153.50,265.50 C152.84,263.14 152.47,246.01 153.75,245.50 Z" fill="#96f766"/><path d="M748.00,542.50 L738.10,543.09 L737.50,522.00 L748.00,522.00 L748.00,542.50 Z" fill="#0a1c14"/><path d="M646.00,492.00 L645.74,501.98 L644.90,512.00 L625.00,512.09 L625.00,502.00 L645.00,502.00 L645.00,492.00 L646.00,492.00 Z M625.00,512.09 L625.00,522.00 L614.00,522.00 L614.00,512.00 L614.00,511.50 L625.00,512.09 Z" fill="#0a1c14"/><path d="M440.00,307.00 L440.00,328.00 L430.00,328.00 L430.00,307.00 L440.00,307.00 Z M441.00,328.00 L441.00,338.00 L440.00,338.00 L440.00,328.00 L441.00,328.00 Z" fill="#716b66"/><path d="M461.00,543.00 L461.00,553.00 L440.00,553.00 L440.00,543.00 L461.00,543.00 Z" fill="#295a36"/><path d="M256.00,584.00 L256.00,563.00 L261.00,563.00 L266.00,563.00 L266.00,584.00 L256.00,584.00 Z" fill="#5a3f2d"/><path d="M625.00,359.00 L625.00,357.98 L635.07,357.98 L634.78,368.24 L634.50,378.50 L629.75,378.80 L625.00,379.11 L625.00,359.00 Z" fill="#c38162" style=""/><path d="M492.00,491.00 L471.00,490.94 L471.00,480.94 L492.00,481.50 L492.00,491.00 Z" fill="#716b66"/><path d="M224.50,256.00 L225.07,274.00 C218.01,272.46 215.15,279.85 215.98,286.37 L215.00,286.00 L215.00,257.33 L214.95,256.00 L224.50,256.00 Z" fill="#81e656"/><path d="M574.00,542.42 L594.00,543.03 L594.00,553.00 L574.00,553.00 L573.50,553.00 L573.45,543.01 L573.00,542.00 L574.00,542.42 Z" fill="#295735"/><path d="M603.37,440.99 L604.50,461.00 L594.00,461.00 L594.00,441.00 L603.37,440.99 Z" fill="#e8d69d"/><path d="M614.50,532.63 L613.81,543.00 L594.00,543.03 L594.00,533.00 L614.50,532.63 Z M574.00,532.00 L594.00,532.00 L594.00,533.00 L574.00,533.00 L574.00,542.42 L573.00,542.00 L573.00,532.00 L574.00,532.00 Z" fill="#2a5e35"/><path d="M645.00,399.00 L655.00,398.95 L655.00,409.00 L645.00,409.00 L635.00,409.00 L635.00,399.00 L645.00,399.00 Z M635.02,409.75 L624.74,409.96 L625.00,408.90 L635.02,409.75 Z" fill="#0a1c14"/><path d="M655.00,410.00 L655.39,420.31 L635.00,420.00 L635.02,409.75 L655.00,410.00 Z M633.50,419.75 L635.00,420.00 L635.03,429.50 L615.00,430.03 L615.00,420.00 L633.50,419.75 Z" fill="#e8d69d"/><path d="M645.00,492.00 L645.00,502.00 L625.00,502.00 L625.00,501.00 L624.63,491.60 L645.00,492.00 Z" fill="#e8d69d"/><path d="M666.00,492.00 L666.00,502.04 L645.74,501.98 L646.00,492.00 L666.00,492.00 Z" fill="#070f0c"/><path d="M461.00,532.00 L441.00,532.00 L441.00,522.00 L461.00,522.00 L461.00,532.00 Z" fill="#ead59a"/><path d="M614.00,512.00 L614.00,522.00 L594.00,521.97 L594.00,512.00 L614.00,512.00 Z M594.00,521.97 L594.00,523.00 L574.00,522.58 L594.00,521.97 Z" fill="#e9d899"/><path d="M614.00,522.00 L614.00,532.00 L594.00,532.00 L594.00,523.00 L594.00,521.97 L614.00,522.00 Z" fill="#091712"/><path d="M653.67,543.00 L655.00,543.00 L655.00,563.00 L645.00,563.00 L645.00,543.00 L653.67,543.00 Z M645.00,531.90 L645.00,543.00 L635.00,543.00 L635.00,537.79 L635.00,532.58 L645.00,531.90 Z" fill="#0a1d13"/><path d="M676.00,604.00 L656.00,604.00 L655.77,593.97 L676.00,594.00 L676.00,604.00 Z M686.00,614.00 L676.00,614.00 L676.00,604.00 L686.00,604.00 L686.00,614.00 Z" fill="#e8d69d"/><path d="M604.00,625.00 L604.00,635.00 L584.00,635.00 L584.00,625.00 L604.00,625.00 Z" fill="#295735"/><path d="M512.50,584.00 L522.00,584.05 L522.00,604.00 L512.50,603.98 L511.87,594.01 L512.02,583.75 L512.50,584.00 Z" fill="#e5d091"/><path d="M512.00,679.13 L512.00,696.00 L502.00,696.00 L502.12,682.50 C503.53,677.83 504.10,675.28 508.12,672.58 C513.17,676.62 503.38,677.26 512.00,679.13 Z" fill="#ead59a"/><path d="M287.00,308.00 L287.02,327.34 L277.00,327.34 L277.00,317.67 L277.00,308.00 L287.00,308.00 Z" fill="#091712"/><path d="M481.00,338.00 L482.00,338.00 L482.00,379.00 L481.00,379.00 L481.00,353.10 L471.00,352.64 L471.00,352.41 L471.00,338.00 L481.00,338.00 Z" fill="#e6bd97"/><path d="M594.00,523.00 L594.00,532.00 L574.00,532.00 L574.00,522.58 L594.00,523.00 Z" fill="#e8d69d"/><path d="M226.00,297.00 L226.00,307.00 L241.00,307.00 L256.00,307.00 L256.00,297.00 L266.00,297.00 L266.00,307.78 C235.00,308.02 226.00,308.30 226.00,309.00 L225.00,309.00 L225.00,307.00 L225.00,297.00 L226.00,297.00 Z" fill="#0a1d13"/><path d="M226.00,309.00 L226.00,317.00 L266.01,317.38 L256.09,317.72 L255.80,322.61 L255.50,327.50 L250.75,327.80 L246.00,328.11 L246.00,323.05 L246.00,318.00 L235.50,318.00 L225.00,318.00 L225.00,309.00 L226.00,309.00 Z" fill="#603f29"/><path d="M410.14,716.01 L409.01,726.99 L404.29,726.99 L399.58,727.00 L399.46,768.00 L399.00,717.56 L409.03,716.30 L410.14,716.01 Z" fill="#2b6236"/><path d="M400.00,480.95 L400.00,491.00 L404.66,491.00 L409.32,491.00 L409.32,481.50 L410.50,490.88 L420.02,491.63 L410.00,492.00 L399.00,492.00 L399.00,501.91 L389.00,502.00 L389.00,491.50 L399.20,492.21 L398.50,481.00 L400.00,480.95 Z" fill="#2b6236"/><path d="M594.00,245.05 L594.00,246.00 L553.00,246.00 L552.99,235.62 L563.89,235.62 L564.19,240.25 L564.50,244.88 L594.00,245.05 Z" fill="#47813f"/><path d="M635.00,399.00 L635.00,409.00 L645.00,409.00 L655.00,409.00 L655.00,398.95 L666.01,399.61 L656.00,400.00 L656.05,410.00 L655.00,410.00 L635.02,409.75 L625.00,408.90 L625.00,399.00 L635.00,399.00 Z M655.00,398.95 L645.00,399.00 C646.31,388.92 641.59,396.07 642.00,389.00 L655.00,389.00 L655.00,398.95 Z" fill="#295735"/><path d="M482.50,573.32 L480.95,574.22 L480.50,573.28 C481.48,571.94 480.93,563.90 480.83,560.52 C478.41,564.09 475.02,565.75 471.00,568.02 L471.00,553.00 L481.93,553.00 L482.50,573.32 Z" fill="#e5d097"/><path d="M625.22,614.25 L614.98,614.61 L614.99,619.30 L615.00,624.00 L619.91,624.00 L624.83,624.00 L625.50,614.00 L635.00,614.00 L635.00,625.00 L614.00,625.00 L614.35,614.00 L625.22,614.25 Z" fill="#c58b6a"/><path d="M420.00,675.81 L420.00,686.00 L415.07,686.00 L410.14,686.00 L410.14,716.01 L409.03,716.30 L409.00,676.50 L420.00,675.81 Z" fill="#295735"/><path d="M492.08,523.08 L492.00,532.00 L492.00,532.81 L492.00,543.00 L502.24,543.00 L502.50,553.00 L491.00,553.00 L490.99,522.55 L492.08,523.08 Z" fill="#ab965d"/><path d="M655.75,604.50 L655.75,614.00 L660.88,614.00 L666.00,614.00 L666.00,619.50 L666.00,625.00 L671.00,625.00 L676.00,625.00 L676.00,635.00 L666.01,635.00 L665.35,625.00 L664.70,615.00 L660.04,615.01 L655.39,615.02 L655.75,604.50 Z" fill="#c69071"/><path d="M441.08,399.92 L441.08,430.00 L445.68,430.00 L450.28,430.00 L450.28,439.87 L440.73,440.53 L439.92,440.08 L440.00,398.67 L441.08,399.92 Z M451.07,461.00 L450.35,461.00 L450.28,439.87 L451.07,461.00 Z" fill="#6a655f"/><path d="M471.00,352.41 L471.00,352.64 L471.00,369.10 L460.99,368.38 C461.10,367.79 463.00,368.38 463.00,368.38 C464.76,359.22 458.70,351.56 471.00,352.41 Z" fill="#4e4c3d"/><path d="M512.00,522.00 L512.00,532.90 L501.99,533.50 L492.00,532.81 L492.00,532.00 L500.81,532.00 L501.50,522.00 L512.00,522.00 Z" fill="#96ea77"/><path d="M203.89,173.90 L215.50,174.50 C216.24,175.86 216.24,183.14 215.50,184.50 C214.76,185.24 205.24,185.24 204.50,184.50 L203.89,173.90 Z" fill="#9ff671"/><path d="M706.98,655.25 L706.00,655.00 L706.00,647.00 L697.00,647.00 L696.65,635.01 L707.00,635.00 L706.98,655.25 Z M714.50,654.79 L717.08,655.83 L706.98,655.25 L714.50,654.79 Z" fill="#ead59a"/><path d="M552.74,173.43 L564.16,174.06 L563.83,179.28 L563.50,184.50 L558.17,184.80 L552.83,185.11 L552.49,173.72 L552.74,173.43 Z" fill="#e9d899"/><path d="M431.10,440.00 L439.92,440.08 L440.73,440.53 L441.00,451.00 L430.00,451.00 L430.00,441.10 L430.00,440.00 L431.10,440.00 Z" fill="#ecd8a7"/><path d="M748.00,542.50 L748.00,543.00 L747.72,572.50 L746.93,553.00 L737.62,553.01 L738.10,543.09 L748.00,542.50 Z M737.00,522.00 L737.50,522.00 L738.10,543.09 L736.95,543.00 L737.00,532.00 L727.00,532.00 L727.00,523.15 L723.50,522.15 L737.00,522.00 Z" fill="#295735"/><path d="M490.89,573.00 L492.00,572.90 L492.00,584.00 L492.00,584.50 L481.00,583.81 L480.95,574.22 L482.50,573.32 L490.89,573.00 Z" fill="#ead59a"/><path d="M623.89,500.91 L625.00,501.00 L625.00,502.00 L625.00,512.09 L614.00,511.50 L614.00,501.50 L623.89,500.91 Z" fill="#e5d097"/><path d="M512.02,583.75 L502.00,583.80 L500.00,583.80 L492.00,584.00 L492.00,572.90 L502.00,573.58 L501.99,578.49 L501.98,583.40 L512.02,583.75 Z M522.00,572.90 L522.00,584.05 L512.50,584.00 L511.77,573.50 L522.00,572.90 Z M491.64,563.50 L492.00,572.90 L490.89,573.00 L491.64,563.50 Z" fill="#0a1d13"/><path d="M430.00,419.68 L430.25,429.98 L420.00,430.00 L419.62,440.38 L419.33,430.03 L420.12,419.70 L430.00,419.68 Z M431.10,440.00 L430.00,440.00 L430.25,429.98 L431.10,440.00 Z M430.00,440.00 L430.00,441.10 L419.62,440.38 L430.00,440.00 Z" fill="#264d30"/><path d="M582.68,359.93 L583.42,379.00 L574.10,379.00 L573.38,389.01 L573.08,379.08 L574.39,377.96 C574.48,375.66 575.82,360.94 574.83,358.48 C577.27,358.49 575.38,367.49 576.00,367.77 C587.23,371.02 579.34,365.19 582.68,359.93 Z" fill="#4e4c3d"/><path d="M654.32,286.86 L655.56,297.00 L645.00,297.00 L645.00,292.00 L645.00,287.00 L635.00,287.00 L635.00,285.73 L654.32,286.86 Z M655.92,287.08 L654.83,286.00 L655.00,277.10 L644.99,276.38 L656.00,276.00 L655.92,287.08 Z" fill="#295a36"/><path d="M656.00,101.95 L645.00,102.00 L645.00,92.00 L656.00,92.00 L656.00,101.95 Z M666.00,113.11 L664.92,112.08 L665.38,102.63 L666.00,113.11 Z M665.38,102.63 L656.00,103.00 L656.00,101.95 L665.38,102.63 Z" fill="#0a1d13"/><path d="M400.00,470.90 L400.00,480.95 L398.50,481.00 L389.00,481.00 L388.95,471.71 L400.00,470.90 Z M409.32,481.50 L409.32,491.00 L404.66,491.00 L400.00,491.00 L400.00,480.95 L409.32,481.50 Z" fill="#e8d69d"/><path d="M736.95,543.00 L727.00,543.00 L727.00,532.00 L737.00,532.00 L736.95,543.00 Z M738.10,543.09 L737.62,553.01 L736.95,543.00 L738.10,543.09 Z" fill="#2b6236"/><path d="M225.00,244.67 L225.00,246.00 L215.52,245.72 L215.18,245.16 L215.00,236.00 L215.00,235.00 L225.00,235.00 L225.00,244.67 Z" fill="#815b38"/><path d="M655.00,541.67 L653.67,543.00 L645.00,543.00 L645.00,531.90 L655.00,532.00 L655.00,541.67 Z" fill="#2a5e35"/><path d="M521.51,666.00 C521.34,670.33 525.98,672.73 522.88,676.00 L512.00,676.00 L512.00,666.00 L521.51,666.00 Z" fill="#2a5e35"/><path d="M512.00,666.00 L512.00,676.00 L512.00,679.13 C503.38,677.26 513.17,676.62 508.12,672.58 C504.10,675.28 503.53,677.83 502.12,682.50 L502.00,666.00 L512.00,666.00 Z" fill="#e8d69d"/><path d="M624.74,409.96 L635.02,409.75 L635.00,420.00 L633.50,419.75 L622.97,418.89 L624.74,409.96 Z" fill="#070f0c"/><path d="M409.80,506.50 L408.87,512.00 L399.00,512.00 L399.00,501.91 C403.68,502.44 412.58,500.26 409.80,506.50 Z" fill="#2a5e35"/><path d="M266.00,286.29 L266.00,297.00 L256.00,297.00 L255.50,297.00 L256.18,287.24 L266.00,286.29 Z" fill="#b6fb90"/><path d="M717.00,850.00 L717.00,859.90 L706.72,860.52 L706.30,860.22 L707.19,850.00 L717.00,850.00 Z" fill="#e8d69d"/><path d="M215.52,245.72 L214.95,256.00 L213.67,256.00 L205.00,256.00 L205.00,246.00 L209.50,245.86 L215.18,245.16 L215.52,245.72 Z" fill="#7e5c3b" style=""/><path d="M215.98,286.37 L225.00,287.11 L225.00,297.00 L215.00,297.00 L215.00,286.00 L215.98,286.37 Z" fill="#5bb64f"/><path d="M368.99,839.38 L379.00,840.10 L379.00,850.00 L369.09,849.99 L368.50,838.89 L368.99,839.38 Z" fill="#2a5e35"/><path d="M686.00,184.00 L676.00,184.00 L676.00,174.00 L686.00,174.00 L686.00,184.00 Z" fill="#0a1d13"/><path d="M215.52,245.72 L225.00,246.00 L225.00,247.33 L225.00,255.88 L224.50,256.00 L214.95,256.00 L215.52,245.72 Z M215.18,245.16 L209.50,245.86 L215.18,245.16 Z" fill="#091e0e"/><path d="M205.00,246.00 L205.00,256.00 L203.67,256.00 L195.00,256.00 L195.00,246.00 L205.00,246.00 Z" fill="#070f0c"/><path d="M266.00,255.48 L266.00,256.00 L256.00,256.00 L256.00,248.00 L256.00,246.00 L266.00,246.00 L266.00,255.48 Z" fill="#5bb64f"/><path d="M705.99,317.28 L696.00,317.00 L696.00,307.00 L706.00,307.00 L705.99,317.28 Z M716.75,317.00 L727.00,317.00 L727.00,318.07 L705.99,317.28 L716.75,317.00 Z" fill="#2a5e35"/><path d="M440.00,328.00 L440.00,338.00 L429.96,338.00 L430.00,328.00 L440.00,328.00 Z" fill="#9f9d98"/><path d="M266.00,338.00 L266.00,348.00 L256.00,348.00 L256.00,338.00 L266.00,338.00 Z" fill="#6b492f"/><path d="M614.00,338.00 L614.00,348.00 L604.00,348.00 L604.00,338.00 L614.00,338.00 Z" fill="#98918d"/><path d="M420.00,389.00 L420.03,399.39 L409.99,398.38 L410.00,389.00 L420.00,389.00 Z" fill="#ecd8a7"/><path d="M666.01,399.61 L666.00,410.00 L656.05,410.00 L656.00,400.00 L666.01,399.61 Z M656.05,410.00 L655.39,420.31 L655.00,410.00 L656.05,410.00 Z" fill="#e8d09c"/><path d="M420.12,419.70 L419.33,430.03 L410.00,430.00 L410.00,429.00 L410.00,420.00 L420.12,419.70 Z M430.25,429.98 L430.00,440.00 L419.62,440.38 L420.00,430.00 L430.25,429.98 Z" fill="#e8d69d"/><path d="M604.00,430.00 L604.00,440.00 L603.00,440.00 L594.00,440.00 L594.00,430.00 L604.00,430.00 Z" fill="#070f0c"/><path d="M614.00,430.00 L614.00,440.00 L604.00,440.00 L604.00,430.00 L614.00,430.00 Z" fill="#ead59a"/><path d="M594.00,461.00 L594.00,471.00 L589.00,471.00 L584.00,471.00 L584.00,461.50 L583.88,461.00 L594.00,461.00 Z" fill="#e8d09c"/><path d="M471.00,480.94 L461.00,481.00 L461.00,471.00 L471.00,471.00 L471.00,480.94 Z" fill="#6a655f"/><path d="M462.33,492.00 L462.50,491.77 L471.00,492.00 L471.00,502.00 L461.00,502.00 L461.00,492.00 L462.33,492.00 Z M461.03,490.81 L461.00,492.00 L454.50,491.79 L461.03,490.81 Z" fill="#2a5e35"/><path d="M420.02,491.63 L420.00,502.00 L410.00,502.00 L410.00,492.00 L420.02,491.63 Z M430.00,512.00 L420.00,512.00 L420.00,502.00 L430.00,502.00 L430.00,512.00 Z M440.00,522.00 L439.50,522.00 L430.50,522.00 L430.00,522.00 L430.00,512.00 L440.00,512.00 L440.00,522.00 Z" fill="#e8d69d"/><path d="M533.00,512.00 L533.00,502.00 L538.00,502.00 L543.00,502.00 L543.00,512.00 L533.00,512.00 Z" fill="#295735"/><path d="M717.00,502.00 L717.00,512.00 L707.00,512.00 L706.95,502.10 L717.00,502.00 Z" fill="#2b6236"/><path d="M440.00,533.00 L440.00,543.00 L430.00,543.00 L429.95,533.10 L440.00,533.00 Z" fill="#2b6236"/><path d="M512.00,532.90 L512.00,543.00 L502.24,543.00 L501.99,533.50 L512.00,532.90 Z" fill="#2f783f"/><path d="M500.00,583.80 L502.00,583.80 L502.00,594.00 L492.00,594.00 L492.00,584.50 L492.00,584.00 L500.00,583.80 Z" fill="#e5d097"/><path d="M307.00,645.00 L307.00,655.28 L297.00,655.42 L297.00,645.00 L307.00,645.00 Z" fill="#e8d69d"/><path d="M308.33,645.00 L317.00,645.00 L317.00,655.00 L307.00,655.28 L307.00,645.00 L308.33,645.00 Z M307.00,655.28 L297.00,655.42 L307.00,655.28 Z" fill="#295735"/><path d="M584.00,717.00 L584.00,727.00 L574.00,727.00 L573.69,717.00 L584.00,717.00 Z" fill="#2b5f3a"/><path d="M389.00,799.00 L389.00,809.00 L379.00,809.00 L379.00,799.00 L389.00,799.00 Z" fill="#2b6236"/><path d="M379.00,850.00 L379.00,860.00 L369.00,860.00 L369.09,849.99 L379.00,850.00 Z M410.00,870.00 L409.63,881.02 L408.87,871.50 L379.00,870.42 L409.00,870.42 L409.00,865.71 L409.00,861.00 L379.00,861.00 L379.00,860.00 L410.00,860.00 L410.00,870.00 Z" fill="#e8d69d"/><path d="M164.00,267.00 L174.11,267.00 L173.50,276.50 L164.00,277.11 L164.00,267.00 Z" fill="#9ff671"/><path d="M604.00,266.53 L604.00,277.05 L594.49,276.67 L594.19,271.60 L593.89,266.53 L604.00,266.53 Z" fill="#2b6236"/><path d="M635.05,277.00 L635.00,285.73 L635.00,287.00 L625.50,287.00 L624.81,277.00 L635.05,277.00 Z" fill="#366b3d"/><path d="M214.99,327.15 L204.99,327.38 L205.19,317.77 L205.53,317.27 L215.00,317.00 L214.99,327.15 Z" fill="#070f0c"/><path d="M532.00,512.00 L532.25,522.10 L522.49,521.70 L522.19,516.85 L521.89,512.00 L532.00,512.00 Z M533.10,532.00 L532.00,532.00 L532.25,522.10 L533.10,532.00 Z" fill="#295735"/><path d="M501.99,533.50 L502.24,543.00 L492.00,543.00 L492.00,532.81 L501.99,533.50 Z" fill="#8ee364"/><path d="M439.50,522.00 L440.19,532.00 L429.90,532.00 L430.50,522.00 L439.50,522.00 Z" fill="#0a1d13"/><path d="M727.01,307.59 L727.00,317.00 L716.75,317.00 L715.74,308.00 L727.01,307.59 Z" fill="#070f0c"/><path d="M215.00,236.00 L215.18,245.16 L209.50,245.86 L205.00,246.00 L205.00,236.00 L215.00,236.00 Z" fill="#091712"/><path d="M543.01,563.04 L543.00,574.00 L532.79,573.99 C531.31,563.76 537.32,565.80 543.01,563.04 Z" fill="#e5d091"/><path d="M194.65,317.32 L194.65,308.00 L199.90,307.99 L205.15,307.99 L205.53,317.27 L205.19,317.77 L194.65,317.32 Z" fill="#091712"/><path d="M388.95,471.71 L389.00,481.00 L379.00,481.00 L379.00,471.50 L388.95,471.71 Z" fill="#070f0c"/><path d="M625.50,614.00 L624.83,624.00 L619.91,624.00 L615.00,624.00 L614.99,619.30 L614.98,614.61 L625.22,614.25 L625.50,614.00 Z" fill="#daa985"/><path d="M451.00,318.00 L451.00,327.00 L441.00,327.00 L441.00,322.50 L441.00,318.00 L451.00,318.00 Z" fill="#e8b68e"/><path d="M676.10,461.00 L675.50,471.00 L665.88,471.02 L667.19,461.00 L676.10,461.00 Z" fill="#47813f"/><path d="M501.50,522.00 L500.81,532.00 L492.00,532.00 L492.08,523.08 L492.50,522.28 L501.50,522.00 Z" fill="#d5fecb"/><path d="M642.00,389.00 C641.59,396.07 646.31,388.92 645.00,399.00 L635.00,399.00 L635.00,389.00 L642.00,389.00 Z" fill="#2b5f3a"/><path d="M655.39,420.31 C648.43,420.44 646.07,424.87 641.15,426.82 C644.29,430.80 635.96,423.30 635.03,429.50 L635.00,420.00 L655.39,420.31 Z" fill="#47813f"/><path d="M480.50,573.28 C471.39,573.01 471.00,572.79 471.00,568.02 C475.02,565.75 478.41,564.09 480.83,560.52 C480.93,563.90 481.48,571.94 480.50,573.28 Z" fill="#e8d69d"/><path d="M665.38,102.63 L664.92,112.08 L656.00,112.00 L656.00,103.00 L665.38,102.63 Z" fill="#091712"/><path d="M389.00,490.15 C384.30,490.53 380.53,487.97 378.87,491.50 L379.00,482.00 L389.00,482.00 L389.00,490.15 Z" fill="#47813f"/><path d="M573.50,553.00 L574.00,553.00 L574.00,563.00 L567.00,563.00 C567.00,556.00 566.48,553.95 564.50,553.10 L573.50,553.00 Z" fill="#2a5e35"/><path d="M573.00,338.00 L573.00,345.00 L568.28,345.00 L563.55,345.00 L563.55,338.00 L573.00,338.00 Z" fill="#e6bd97"/><path d="M441.00,379.00 L441.00,371.96 C442.80,373.76 450.22,374.51 448.99,378.50 C454.17,377.78 467.28,377.47 471.50,378.71 L441.00,379.00 Z" fill="#e6bd97"/><path d="M716.90,713.50 L716.72,716.48 L716.48,716.72 L706.53,717.00 C708.37,716.45 704.92,707.03 708.88,709.00 C710.55,713.82 715.52,707.90 716.90,713.50 Z" fill="#ecd8a7"/><path d="M532.00,760.52 L532.00,768.00 L524.40,768.00 L523.00,768.00 L523.00,759.00 C528.30,758.53 522.22,760.79 523.85,761.84 C530.43,762.53 527.11,763.28 532.00,760.52 Z" fill="#e8d69d"/><path d="M625.02,225.01 C622.66,227.87 617.27,229.12 617.98,234.98 C615.37,235.39 619.04,233.61 615.09,233.87 L615.00,225.00 L625.02,225.01 Z" fill="#2a5e35"/><path d="M471.32,820.50 L471.00,823.00 C464.42,821.92 464.32,826.37 461.00,828.37 L461.00,819.90 L471.32,820.50 Z" fill="#070f0c"/><path d="M765.00,573.00 L758.00,573.00 L758.00,567.26 C765.63,567.60 765.14,561.52 765.00,573.00 Z" fill="#c0c2bf"/><path d="M461.00,177.00 L461.00,184.00 L451.64,184.00 C453.84,182.52 456.87,176.31 461.00,177.00 Z" fill="#c0c2bf"/><path d="M712.24,306.96 C707.15,307.00 707.00,306.73 707.17,297.50 C709.97,297.90 712.13,303.57 712.24,306.96 Z" fill="#c0c2bf"/><path d="M532.79,573.99 L532.30,583.50 L532.79,573.99 Z" fill="#7f766f"/></g></svg>