<svg xmlns="http://www.w3.org/2000/svg" viewBox="0 0 928 1152" style="width: 100%; height: 100%;"><defs data-highlight-filters="true"><filter id="pv-hover" color-interpolation-filters="sRGB"><feComponentTransfer><feFuncR type="linear" slope="0.85"/><feFuncG type="linear" slope="0.85"/><feFuncB type="linear" slope="0.85"/></feComponentTransfer></filter><filter id="pv-hl-sm" x="-20%" y="-20%" width="140%" height="140%" color-interpolation-filters="sRGB"><feGaussianBlur in="SourceAlpha" stdDeviation="1.5" result="blur"/><feFlood flood-color="rgb(99,102,241)" flood-opacity="0.6" result="glowColor"/><feComposite in="glowColor" in2="blur" operator="in" result="glow"/><feComponentTransfer in="SourceGraphic" result="dimmed"><feFuncR type="linear" slope="0.7"/><feFuncG type="linear" slope="0.7"/><feFuncB type="linear" slope="0.7"/></feComponentTransfer><feMerge><feMergeNode in="glow"/><feMergeNode in="dimmed"/></feMerge></filter><filter id="pv-hl-md" x="-30%" y="-30%" width="160%" height="160%" color-interpolation-filters="sRGB"><feGaussianBlur in="SourceAlpha" stdDeviation="3" result="blur"/><feFlood flood-color="rgb(99,102,241)" flood-opacity="0.6" result="glowColor"/><feComposite in="glowColor" in2="blur" operator="in" result="glow"/><feComponentTransfer in="SourceGraphic" result="dimmed"><feFuncR type="linear" slope="0.7"/><feFuncG type="linear" slope="0.7"/><feFuncB type="linear" slope="0.7"/></feComponentTransfer><feMerge><feMergeNode in="glow"/><feMergeNode in="dimmed"/></feMerge></filter><filter id="pv-hl-lg" x="-50%" y="-50%" width="200%" height="200%" color-interpolation-filters="sRGB"><feGaussianBlur in="SourceAlpha" stdDeviation="5" result="blur"/><feFlood flood-color="rgb(99,102,241)" flood-opacity="0.6" result="glowColor"/><feComposite in="glowColor" in2="blur" operator="in" result="glow"/><feComponentTransfer in="SourceGraphic" result="dimmed"><feFuncR type="linear" slope="0.7"/><feFuncG type="linear" slope="0.7"/><feFuncB type="linear" slope="0.7"/></feComponentTransfer><feMerge><feMergeNode in="glow"/><feMergeNode in="dimmed"/></feMerge></filter></defs><g id="group"><path d="M 928 0 L 928 1152 L 0 1152 L 0 0 L 928 0 Z" fill="none"/><path d="M 545.031 772.875 L 545.065 784.508 L 556.271 785.812 L 557.003 807.761 L 568.738 807.75 L 568.738 819 L 580 819 L 580 842.625 L 591.262 842.625 L 591.262 843.188 L 591.262 866.25 L 597.456 866.25 L 603.65 866.25 L 603.65 877.5 L 603.65 888.75 L 609.27 888.75 L 614.901 888.75 L 614.901 900.428 L 626.175 900.979 L 626.175 912.375 L 631.806 912.375 L 637.437 912.375 L 637.437 918.664 L 637.437 924.964 L 649.352 924.188 L 649.352 935.291 L 661.065 935.584 L 661.087 958.5 L 672.789 958.477 L 672.35 982.125 L 684.738 982.125 L 684.738 1004.625 L 690.369 1004.625 L 696 1004.625 L 696 1016.246 L 684.265 1016.651 L 684.006 1039.5 L 678.183 1039.5 L 672.35 1039.5 L 672.35 1033.875 L 672.35 1028.25 L 406.27 1028.25 L 405.876 1005.345 L 395.301 1004.501 L 394.817 982.125 L 406.563 982.125 L 406.563 959.062 L 406.563 936 L 412.194 936 L 417.825 936 L 417.825 918.562 L 417.825 901.125 L 423.456 901.125 L 429.087 901.125 L 429.087 894.938 L 429.087 888.75 L 434.707 888.75 L 440.338 888.75 L 440.338 866.036 L 452.738 866.25 L 452.524 842.614 L 464 842.614 L 464 836.989 L 464 831.375 L 470.194 831.375 L 476.388 831.375 L 476.388 825.75 L 476.388 820.125 L 481.682 820.125 L 486.986 820.114 L 487.774 808.312 L 487.313 807.75 L 498.913 807.75 L 498.913 802.125 L 498.913 796.5 L 504.544 796.5 L 510.175 796.5 L 510.175 790.875 L 510.175 785.25 L 516.031 785.25 L 521.899 785.239 L 522.687 773.438 L 522.09 772.864 L 545.031 772.875 Z" fill="none"/><g id="group"><path d="M 486.963 448.481 L 487.211 471.127 L 498.913 471.938 L 498.913 483.75 L 498.913 495 L 510.175 495 L 510.175 506.25 L 515.783 506.25 L 521.403 506.25 L 521.403 495 L 522 471.06 L 533.127 471.364 L 533.882 482.625 L 533.825 495 L 544.502 494.685 L 545.144 506.25 L 545.087 517.5 L 533.825 517.5 L 533.825 511.819 L 533.825 506.137 L 527.913 506.475 L 522 506.812 L 521.662 512.1 L 521.313 517.376 L 515.918 517.714 L 510.524 518.051 L 510.118 529.875 L 498.913 529.875 L 498.913 535.444 L 498.913 541.024 L 487.639 541.024 L 475.262 541.744 L 475.273 547.211 L 475.273 552.679 L 463.989 553.072 L 464.011 564.188 L 452.738 564.806 L 441.048 564.739 L 440.654 576.011 L 434.876 576.011 L 429.087 576 L 429.087 581.704 L 429.076 587.408 L 440.687 587.812 L 441.138 598.972 L 464 599.231 L 464 604.991 L 464 610.762 L 469.913 611.1 L 475.825 611.438 L 476.163 616.781 L 476.512 622.125 L 522.056 622.125 L 567.612 622.125 L 567.612 616.5 L 567.612 610.875 L 562.544 610.875 L 557.476 610.875 L 557.476 599.423 L 557.476 587.981 L 568.175 587.981 L 568.884 598.871 L 580.023 599.254 L 580.011 610.684 L 580 622.125 L 591.262 622.125 L 602.524 622.125 L 602.524 616.5 L 602.524 610.875 L 596.893 610.875 L 591.251 610.875 L 591.251 599.062 L 591.228 588.004 L 602.389 587.137 L 603.223 598.928 L 614.913 599.794 L 614.913 610.875 L 626.175 610.875 L 637.865 610.886 L 638.259 599.614 L 644.037 599.614 L 649.825 599.625 L 649.825 593.438 L 649.825 587.25 L 643.631 587.25 L 637.437 587.25 L 637.437 593.021 L 637.437 598.793 L 626.197 598.793 L 626.186 587.947 L 614.913 587.194 L 603.65 587.194 L 603.65 576.045 L 649.262 575.438 C 650.828 570.296 649.363 559.17 648.519 553.399 L 626.175 552.038 L 626.175 541.125 L 602.524 541.125 L 602.524 529.875 L 614.913 529.875 L 614.913 523.688 L 614.913 517.5 L 625.612 517.5 L 626.332 529.875 L 631.885 529.875 L 637.437 529.875 L 637.437 535.5 L 637.437 541.125 L 654.893 541.125 L 672.35 541.125 L 672.35 546.75 L 672.35 552.375 L 689.75 552.375 L 707.138 552.375 L 707.487 547.031 L 707.825 541.688 L 713.175 541.35 L 718.524 541.001 L 718.524 529.875 L 718.524 506.25 L 719.763 506.25 L 730.913 506.25 L 730.913 529.875 L 730.913 541.125 L 719.549 541.125 C 719.369 541.249 718.288 552.296 718.209 552.375 C 716.643 553.939 704.638 547.234 707.262 563.389 C 708.445 565.38 729.19 564.874 731.476 564.581 C 743.256 563.096 741.702 565.312 742.738 552.938 L 752.874 551.812 L 753.561 541.125 C 753.763 540.923 763.043 541.44 763.629 541.125 C 767.852 538.864 765.499 500.344 765.037 495 L 764.699 483.75 L 777.11 483.334 L 777.11 541.125 L 770.904 541.125 L 764.699 541.125 L 764.699 546.75 L 764.699 552.375 L 759.068 552.375 L 753.437 552.375 L 753.437 558 L 753.437 563.625 L 747.806 563.625 L 742.175 563.625 L 742.175 569.812 L 742.175 576 L 712.893 576 L 683.612 576 L 683.612 570.375 L 683.612 564.75 L 672.35 564.75 L 661.087 564.75 L 661.087 575.989 L 661.087 587.227 L 672.732 587.227 L 672.732 599.625 L 666.91 599.625 L 661.087 599.625 L 661.087 610.875 L 661.087 622.125 L 666.718 622.125 L 672.35 622.125 L 672.35 610.661 L 672.35 599.209 L 684.76 599.209 L 684.76 633.375 L 690.38 633.375 L 696 633.375 L 696 657 L 684.738 657 L 684.321 669.6 L 683.814 679.995 C 684.366 680.051 673.442 681.491 672.338 680.389 L 672.35 669.476 C 654.251 663.008 663.193 679.174 661.087 691.875 L 637.381 691.875 L 638.135 680.614 L 649.262 680.22 L 649.882 645.75 L 637.437 645.75 L 626.175 645.75 L 626.175 651.375 L 626.175 656.989 L 637.752 656.989 L 637.448 679.928 L 625.826 680.726 C 626.389 677.329 626.546 657.551 625.353 656.91 C 613.572 659.149 597.073 650.284 603.696 668.25 L 614.913 668.25 L 614.913 691.875 L 602.524 691.875 L 602.524 680.625 L 602.524 669.375 L 591.262 669.375 L 580 669.375 L 580 691.875 L 568.31 691.886 C 568.817 686.194 569.616 673.571 567.375 669.375 L 533.949 669.375 L 533.262 680.062 L 522.36 680.839 C 523.126 682.324 522.811 668.79 521.606 668.812 L 521.606 657 L 516.189 657 L 510.772 657 L 510.096 668.812 L 510.209 714.611 L 498.913 715.714 L 498.913 703.688 L 498.913 680.625 L 493.282 680.625 L 487.65 680.625 L 487.65 702.911 L 487.65 738 L 498.913 738 L 510.175 738 L 510.175 726.75 L 510.175 715.5 L 522 715.084 L 522.18 750.375 L 533.634 750.375 L 545.087 750.375 L 545.087 732.859 L 545.099 715.342 L 533.341 714.938 L 533.825 680.625 L 545.087 680.625 L 545.087 715.5 L 550.718 715.5 L 556.35 715.5 L 556.35 726.75 L 556.35 738 L 573.806 738 L 591.262 738 L 591.262 726.75 L 614.913 726.75 L 614.913 691.875 L 625.42 691.841 L 626.231 704.25 L 626.175 714.893 L 672.35 715.028 L 672.35 709.639 L 672.35 704.25 L 678.138 704.25 L 683.927 704.25 L 684.175 680.31 L 696 680.625 L 696 691.875 L 707.262 691.875 L 707.262 703.125 L 701.631 703.125 L 696 703.125 L 696 709.312 L 696 715.5 L 689.806 715.5 L 683.6 715.5 L 683.6 738.158 L 672.361 737.561 L 672.361 732.127 L 672.35 726.705 L 649.544 727.009 L 626.738 727.312 L 626.4 732.611 L 626.051 737.921 L 615.138 738.236 L 604.214 738.562 L 603.65 744.188 L 603.087 749.812 L 580 750.375 L 556.913 750.938 L 556.575 756.225 L 556.226 761.501 L 550.842 761.839 L 545.459 762.176 L 545.031 772.875 L 522.09 772.864 C 518.847 763.133 528.994 760.781 510.175 761.625 L 510.175 750.375 L 464.113 750.375 L 463.437 738.562 L 440.35 737.921 L 440.35 726.75 L 405.324 726.75 L 405.324 715.5 L 400.076 715.5 L 394.817 715.5 L 394.062 726.637 L 382.913 727.312 L 382.924 738.169 L 371.808 739.395 L 370.817 761.366 L 359.262 762.188 L 359.262 773.336 L 348.619 774.562 L 347.91 784.688 L 348 796.5 L 336.772 796.5 L 336.772 772.875 L 342.391 772.875 L 348 772.875 L 348 767.25 L 348 761.636 L 359.735 761.636 L 360.467 739.688 L 370.896 738.36 L 371.279 726.75 L 382.913 726.75 L 382.913 709.324 L 382.913 691.886 L 371.223 691.886 L 371.65 680.738 L 382.935 679.781 L 394.051 679.781 L 394.4 674.303 L 394.738 668.812 L 400.177 668.475 L 405.617 668.126 L 405.617 656.775 L 405.989 645.84 L 411.631 645.514 L 417.262 645.188 L 417.589 633.859 L 417.915 622.519 L 394.963 622.778 L 394.513 633.938 L 382.901 634.342 L 382.913 640.046 L 382.913 645.75 L 371.65 645.75 L 371.65 644.512 L 371.65 610.875 L 382.913 610.875 L 382.901 599.197 L 394.175 599.197 L 394.175 605.036 L 394.175 610.875 L 406 610.875 L 417.825 610.875 L 417.825 605.284 L 417.825 599.681 L 406.777 599.681 L 394.141 598.871 L 394.141 587.25 L 405.989 587.25 L 417.825 587.25 L 417.825 517.5 L 429.087 517.5 L 429.087 564.75 C 444.595 565.369 438.863 562.905 440.913 552.938 L 463.628 551.824 L 464.056 541.125 L 475.262 541.125 L 475.262 535.5 L 475.262 529.875 L 496.66 529.875 L 498.237 528.311 C 500.118 521.359 498.35 503.944 497.584 495 L 487.988 495 L 486.569 472.939 L 475.217 471.87 L 475.262 460.125 L 475.262 448.875 L 486.963 448.481 Z M 638.18 169.864 L 649.825 169.864 L 649.825 175.5 L 649.825 181.125 L 656.583 181.125 L 672.35 181.125 L 672.789 193.511 L 661.087 193.511 L 661.087 245.824 L 661.087 298.125 L 655.456 298.125 L 649.825 298.125 L 649.825 309.375 L 649.825 320.625 L 644.25 320.625 L 638.676 320.625 L 638.338 326.531 L 638 332.438 L 632.087 332.775 L 626.175 333.113 L 626.175 338.681 L 626.175 344.239 L 649.127 344.239 L 648.699 355.5 L 626.175 355.5 L 626.175 366.75 L 614.913 366.75 L 614.913 379.125 L 614.913 390.375 L 603.223 390.386 L 602.828 379.114 L 597.209 379.114 L 591.577 379.125 L 591.577 389.79 L 579.989 390.195 L 580 396.067 L 580.011 401.929 L 568.727 402.322 L 568.738 414 L 556.35 414 L 556.35 419.625 L 556.35 425.25 L 550.718 425.25 L 545.087 425.25 L 545.087 430.875 L 545.087 436.5 L 556.913 436.5 L 568.738 436.5 L 568.738 430.875 L 568.738 425.25 L 580 425.25 L 580 436.5 L 580 448.875 L 585.597 448.875 L 591.206 448.875 L 591.206 460.125 L 568.535 460.147 L 567.983 448.875 L 533.825 448.875 L 533.825 458.629 L 532.609 460.035 L 521.437 460.125 L 521.752 470.79 L 510.163 471.195 L 510.175 460.035 L 510.175 448.875 L 504.544 448.875 L 498.913 448.875 L 498.913 437.062 L 498.913 425.25 L 492.718 425.25 L 486.524 425.25 L 486.524 414 L 486.524 401.625 L 475.161 401.625 L 475.161 390.375 L 469.575 390.375 L 464 390.375 L 464 384.75 L 464 379.125 L 458.369 379.125 L 452.738 379.125 L 452.738 390.375 L 452.738 401.625 L 464 401.625 L 464 425.25 L 452.738 425.25 C 450.925 412.942 457.93 398.711 440.361 401.479 L 440.35 379.125 L 429.087 379.125 L 429.087 355.5 L 406.349 355.5 L 383.476 355.5 L 359.262 355.5 L 359.262 344.25 L 429.087 344.25 L 429.087 338.062 L 429.087 331.875 L 423.456 331.875 L 417.825 331.875 L 417.825 320.625 L 417.825 309.375 L 411.631 309.375 L 405.437 309.375 L 405.437 245.25 L 405.437 181.114 L 417.104 181.114 L 417.938 216 L 429.087 216 L 568.738 216 L 568.738 228.431 L 417.825 228.431 L 417.825 234.034 L 417.825 239.625 L 452.738 239.625 L 452.738 250.763 L 440.338 251.561 L 440.35 274.5 L 429.087 274.5 L 429.087 262.688 L 429.087 250.875 L 423.456 250.875 L 417.825 250.875 L 417.825 268.312 L 417.825 285.75 L 435.282 285.75 L 452.738 285.75 L 452.738 274.5 L 464 274.5 L 498.913 274.5 L 498.913 280.125 L 498.913 285.739 L 567.938 285.739 L 568.332 274.477 L 574.166 274.489 L 580 274.5 L 580 257.062 L 580 239.625 L 574.369 239.625 L 568.738 239.625 L 568.738 228.431 L 579.448 228.004 L 579.448 216.529 L 579.448 205.065 L 568.738 204.626 L 568.468 204.188 L 568.738 193.5 L 580.056 193.5 L 580 204.75 L 591.262 204.75 L 591.262 320.625 L 580 320.625 L 580 331.875 L 580 344.25 L 568.817 344.25 L 567.341 355.387 L 558.039 356.062 L 557.352 366.75 L 580 366.75 L 580 355.5 L 602.4 355.5 L 603.087 344.812 L 614.35 343.688 L 615.025 331.875 C 615.408 331.504 624.35 332.145 624.812 331.875 C 627.155 330.48 625.814 309.735 626.175 309.375 L 637.437 309.375 C 637.437 309.375 637.73 286.886 638.867 285.75 L 649.825 285.75 L 649.825 208.305 C 648.147 201.96 644.757 205.729 638.755 204.739 C 638.248 204.469 637.302 172.688 638.18 169.864 Z M 498.124 286.324 L 498.575 297.562 L 556.226 298.147 C 567.499 298.136 569.47 299.689 568.738 286.875 L 580.056 286.875 L 579.437 320.062 L 568.175 321.188 L 567.533 344.126 L 556.913 344.812 L 556.226 355.5 L 545.087 355.5 L 545.087 366.626 L 534.388 367.312 L 533.262 378.562 C 517.991 379.485 492.223 379.485 476.951 378.562 L 474.857 366.75 L 464 366.75 L 464 355.5 L 451.612 355.5 L 451.612 344.25 C 451.127 343.766 442.016 344.452 441.735 344.25 C 439.719 342.799 440.473 320.749 440.35 320.625 L 429.087 320.625 L 429.087 298.125 C 443.469 296.55 453.549 304.031 453.121 286.447 C 462.953 285.255 487.189 285.457 498.124 286.324 Z M 173.437 297 L 174.608 298.204 L 174.563 308.25 L 185.825 308.25 L 185.825 309.375 L 185.825 320.625 L 179.631 320.625 L 173.437 320.625 L 173.437 326.812 L 173.437 333 L 167.806 333 L 162.175 333 L 162.175 338.625 L 162.175 344.25 L 167.806 344.25 L 173.437 344.25 L 173.437 349.875 L 173.437 355.5 L 179.631 355.5 L 185.825 355.5 L 185.825 349.875 L 185.825 344.25 L 197.087 344.25 L 197.087 355.5 L 220.749 355.387 L 220.749 366.75 L 208.856 366.75 L 196.975 366.75 L 197.313 372.656 L 197.65 378.562 L 214.915 378.877 L 232.169 379.192 L 232.563 367.954 L 255.087 367.684 L 255.403 349.774 L 255.707 331.875 L 249.49 331.875 L 243.262 331.875 L 243.262 326.25 L 243.262 320.625 L 237.631 320.625 L 232 320.625 L 232 309.375 L 254.524 309.375 L 254.524 315 L 254.524 320.625 L 277.555 320.625 L 300.586 320.625 L 300.924 326.531 L 301.262 332.438 L 330.262 332.741 L 359.262 333.034 L 359.262 344.25 L 348 344.25 L 324.969 344.25 L 324.744 401.479 L 319.203 401.827 L 313.65 402.188 L 313.087 407.812 L 312.524 413.438 L 307.175 413.775 L 301.825 414.124 L 301.825 425.25 L 278.175 425.25 L 278.175 419.625 L 278.175 414 L 272.544 414 L 266.913 414 L 266.913 401.625 L 289.437 401.625 C 285.506 419.254 305.564 418.59 301.825 401.625 L 313.087 401.625 L 313.087 379.125 L 313.087 344.329 L 301.544 344.002 L 290 343.688 L 289.662 338.344 L 289.313 333 L 278.107 333 L 266.901 333 L 266.901 366.57 L 255.786 367.639 L 255.02 373.32 L 254.254 379.012 L 248.916 379.35 L 243.577 379.676 L 243.138 390.375 L 197.087 390.375 L 197.087 384.75 L 197.087 379.125 L 190.893 379.125 L 184.699 379.125 L 184.699 373.5 L 184.699 367.875 L 179.068 367.875 L 173.437 367.875 L 173.437 373.5 L 173.437 379.125 L 162.175 379.125 L 150.913 379.125 L 150.913 366.75 L 162.175 366.75 L 162.175 355.5 L 162.175 344.25 L 150.913 344.25 L 150.913 333 L 139.087 333 L 127.262 333 L 127.262 315.619 L 127.262 298.238 L 133.175 297.9 L 139.087 297.562 L 139.403 286.031 L 139.729 274.5 L 162.772 274.5 L 185.825 274.5 L 185.825 280.125 L 185.825 285.75 L 197.65 285.75 L 209.476 285.75 L 209.476 291.375 L 209.476 297 L 220.738 297 L 232 297 L 232 309.375 L 208.35 309.375 L 208.35 303.705 L 208.35 298.035 L 185.915 298.035 L 185.003 297.529 L 185.003 285.75 L 167.963 285.75 L 150.913 285.75 L 150.913 291.375 L 150.913 297 L 173.437 297 Z M 440.338 866.036 L 440.338 888.75 L 434.707 888.75 L 429.087 888.75 L 429.087 894.938 L 429.087 901.125 L 423.456 901.125 L 417.825 901.125 L 417.825 918.562 L 417.825 936 L 412.194 936 L 406.563 936 L 406.563 959.062 L 406.563 982.125 L 394.817 982.125 L 394.096 1005.75 L 405.876 1005.345 L 406.27 1028.25 L 406.27 1051.875 L 400.223 1051.875 L 394.175 1051.875 L 394.175 1057.5 L 394.175 1063.125 L 324.699 1063.125 L 255.223 1063.125 L 255.223 1028.239 L 266.913 1028.239 L 266.913 1022.625 L 266.913 1017.011 L 289.944 1017.011 L 290 1028.25 L 269.165 1028.25 L 267.566 1029.847 L 267.318 1051.898 L 330.465 1051.605 L 393.612 1051.312 L 393.927 1034.156 L 394.231 1017 L 388.577 1017 L 382.913 1017 L 382.913 1010.869 L 382.924 1004.738 L 359.014 1005.424 C 358.282 1005.322 349.07 1006.492 348 1005.424 L 348 994.5 L 325.6 994.5 L 324.913 1005.188 L 313.65 1006.312 L 312.963 1017 C 307.704 1015.852 289.899 1019.666 289.55 1014.188 L 289.55 1004.625 L 301.318 1004.625 L 313.087 1004.625 L 313.087 999 L 313.087 993.375 L 318.718 993.375 L 324.35 993.375 L 324.35 987.75 L 324.35 982.125 L 330.544 982.125 L 336.738 982.125 L 336.738 947.25 L 348 947.25 L 348 970.312 L 348 993.375 L 370.524 993.375 L 382.913 993.375 L 382.913 987.896 L 382.913 982.418 L 388.544 981.664 L 394.175 980.921 L 394.175 958.489 L 394.175 936.056 L 399.524 935.156 L 404.874 934.268 L 405.189 917.696 L 405.493 901.125 L 376.752 901.125 L 348 901.125 L 348 895.5 L 348 889.875 L 342.369 889.875 L 336.738 889.875 L 336.738 912.375 L 336.738 947.25 L 324.35 947.25 L 324.35 878.062 L 348 877.59 L 348 883.192 L 348 888.784 L 388.262 888.48 L 428.524 888.188 L 428.851 877.41 L 429.177 866.633 L 440.338 866.036 Z M 719.662 471.262 L 730.913 472.027 L 730.913 482.501 L 741.612 483.188 L 742.299 495.124 L 730.35 494.438 C 727.984 493.594 732.737 482.366 726.971 483.39 L 707.262 483.188 L 707.262 495 L 696 495 L 696 489.375 L 696 483.75 L 661.087 483.75 L 626.175 483.75 L 626.175 495 L 614.913 495 L 614.913 483.75 L 608.718 483.75 L 602.524 483.75 L 602.524 477.574 L 602.524 471.386 L 591.96 471.386 L 591.96 460.125 L 597.242 460.125 L 602.524 460.125 L 602.524 454.489 L 602.524 448.864 L 614.214 448.864 L 614.969 460.125 L 614.913 471.375 L 637.437 471.375 L 649.825 471.375 L 649.555 437.062 L 649.825 436.5 L 661.087 436.5 L 661.087 453.881 L 661.087 471.262 L 719.662 471.262 Z M 591.577 111.938 L 487.864 112.511 L 476.388 112.5 L 476.388 123.75 L 464.214 123.638 L 452.738 124.312 L 452.839 134.809 L 440.35 136.868 L 440.766 158.062 L 429.087 159.255 L 429.087 169.875 L 429.087 180.866 L 423.321 181.676 L 417.555 182.486 L 417.307 158.276 L 429.087 157.871 L 429.087 135 L 434.718 135 L 440.35 135 L 440.35 129.375 L 440.35 123.75 L 446.544 123.75 L 452.738 123.75 L 452.738 117.562 L 452.738 111.375 L 464 111.375 L 475.262 111.375 L 475.262 105.75 L 475.262 100.125 L 533.42 100.125 L 591.577 100.125 L 591.577 111.938 Z M 500.41 390.375 L 556.428 390.375 L 555.786 413.438 L 545.211 414.124 L 544.524 424.688 L 533.825 425.374 L 533.825 436.5 C 509.15 439.92 535.593 422.235 510.175 425.25 L 510.175 414 L 498.913 414 L 498.913 391.871 C 506.098 385.661 494.194 397.553 500.41 390.375 Z M 718.524 414 L 707.262 414 L 707.262 401.625 L 701.631 401.625 L 696 401.625 L 696 396 L 696 390.375 L 689.806 390.375 L 683.612 390.375 L 683.612 384.75 L 683.612 379.125 L 672.406 379.125 L 661.2 379.125 L 661.2 390.161 L 649.825 390.938 L 649.825 401.366 L 649.938 414.011 L 638.315 413.989 L 638.315 390.375 L 644.07 390.375 L 649.825 390.375 L 649.825 373.5 L 649.825 356.625 L 661.189 356.614 L 672.563 356.603 L 673.104 366.772 L 696 366.772 L 696 372.949 L 696 379.125 L 701.631 379.125 L 707.262 379.125 L 707.262 384.75 L 707.262 390.375 L 712.893 390.375 L 718.524 390.375 L 718.524 414 Z M 568.738 506.25 L 580 506.25 L 580.034 517.815 L 567.612 519.21 L 567.612 529.875 L 557.476 529.875 L 557.183 541.024 L 545.087 541.688 L 545.087 552.375 L 545.11 564.041 L 522.563 564.829 L 522.563 575.933 L 498.913 576.562 L 499.037 587.363 L 487.741 588.42 L 487.414 593.719 L 487.087 599.018 L 464 599.018 L 464 587.25 L 475.262 587.25 L 486.524 587.25 L 486.524 581.625 L 486.524 576 L 497.223 576 C 500.478 577.406 498.259 567.337 498.913 564.356 C 504.758 564.885 517.484 565.256 521.854 564.109 L 522.27 552.364 L 528.048 552.364 L 533.825 552.375 L 533.825 541.125 L 545.087 541.125 L 544.986 529.864 L 545.65 517.5 L 556.35 517.5 L 556.35 506.25 L 568.738 506.25 Z M 417.825 471.375 L 417.825 517.5 L 406.619 517.5 L 406.315 500.344 L 406 483.188 L 400.087 482.85 L 394.175 482.512 L 394.175 476.944 L 394.175 471.375 L 388.544 471.375 L 382.913 471.375 L 382.913 460.125 L 405.448 460.125 L 406.372 425.25 L 417.825 425.25 L 417.825 471.375 Z M 602.997 518.153 L 602.84 528.75 L 602.524 529.875 L 580 529.875 L 580 546.592 L 580 563.31 L 591.161 564.626 L 591.262 587.25 L 579.989 587.678 L 580 564.75 L 568.254 564.75 L 568.738 541.125 L 568.738 529.999 L 574.087 529.65 L 579.437 529.312 L 579.775 523.733 L 580.124 518.153 L 602.997 518.153 Z M 325.51 842.625 L 324.856 877.5 L 313.087 877.5 L 313.065 819.709 L 325.476 820.125 L 325.51 842.625 Z M 359.409 448.875 L 313.087 448.875 L 313.087 436.478 L 359.127 437.062 L 359.409 448.875 Z M 696.011 738.686 L 696.011 761.625 L 701.654 761.625 L 707.296 761.625 L 707.296 784.496 C 710.787 784.856 695.516 786.038 695.989 784.879 C 695.64 784.541 696.991 763.02 694.637 761.625 C 694.423 761.501 683.826 761.839 683.612 761.625 L 683.612 738.686 C 683.612 738.686 695.414 739.879 696.011 738.686 Z M 487.774 808.312 L 486.986 820.114 L 481.682 820.125 L 476.388 820.125 L 476.388 825.75 L 476.388 831.375 L 470.194 831.375 L 464 831.375 L 464 836.989 L 464 842.614 L 452.524 842.614 L 453.121 831.386 C 464.631 831.904 464.293 830.947 464 819.124 L 474.699 818.438 L 475.386 807.592 L 487.774 808.312 Z M 522.687 773.438 L 521.899 785.239 L 516.031 785.25 L 510.175 785.25 L 510.175 790.875 L 510.175 796.5 L 504.544 796.5 L 498.913 796.5 L 498.913 802.125 L 498.913 807.75 L 487.313 807.75 L 487.65 796.5 C 501.525 797.467 496.593 793.26 499.037 784.249 L 509.612 783.562 L 510.299 772.717 L 522.687 773.438 Z M 638.315 413.989 L 637.257 425.137 L 631.896 425.475 L 626.535 425.801 L 626.107 437.918 L 626.175 448.988 L 614.901 448.178 L 614.8 444.938 L 614.913 436.5 L 614.913 425.25 L 620.251 425.25 L 625.6 425.25 L 626.366 413.764 L 638.315 413.989 Z M 591.915 390.082 L 602.524 390.375 L 602.536 401.861 L 591.825 402.412 L 591.217 414.562 L 591.262 425.25 L 580 425.25 L 580 414 L 579.977 402.334 L 590.699 401.49 L 591.915 390.082 Z M 753.797 448.459 L 754.191 460.125 L 765.15 460.114 L 764.699 483.964 L 753.324 483.188 L 753.55 471.364 L 752.817 460.688 L 742.175 460.001 L 742.175 448.875 L 753.797 448.459 Z M 591.848 112.185 L 626.175 112.5 L 626.175 123.75 L 591.15 123.75 L 591.848 112.185 Z M 591.262 726.75 L 580 726.75 L 580 691.875 L 591.262 691.875 L 591.262 726.75 Z M 139.65 309.375 L 173.437 309.375 L 173.437 320.625 L 139.65 320.625 L 139.65 309.375 Z M 208.35 331.819 L 220.749 332.561 L 220.738 344.306 L 197.087 344.25 L 197.087 331.875 L 208.35 331.819 Z M 730.485 425.261 L 742.175 425.25 L 742.197 448.166 L 730.642 448.312 L 730.485 425.261 Z M 359.96 460.136 C 361.132 459.517 359.96 447.75 359.96 447.75 C 363.407 447.086 382.361 448.627 382.913 449.179 L 382.913 460.125 L 359.96 460.136 Z M 638.18 506.093 L 636.874 517.309 L 626.186 517.725 L 626.175 495 L 638.563 495 L 638.18 506.093 Z M 649.352 135.36 L 661.087 135.754 L 661.087 147.375 L 666.718 147.375 L 672.35 147.375 L 672.35 158.625 L 661.211 158.625 L 660.862 153.281 L 660.524 147.938 L 655.22 147.566 L 649.915 147.206 L 649.352 135.36 Z M 475.713 425.239 L 475.262 448.875 L 464 448.875 L 464 436.5 L 464 425.25 L 475.713 425.239 Z M 615.476 147.004 L 626.175 147.004 L 626.175 152.145 L 626.175 157.275 L 637.854 158.062 L 637.437 169.875 L 626.175 169.875 L 626.175 158.625 L 620.623 158.625 L 615.07 158.636 L 615.476 147.004 Z M 336.772 796.5 L 336.524 819.562 L 330.78 819.911 L 325.025 820.249 L 325.025 796.489 L 336.772 796.5 Z M 649.127 123.739 L 648.699 135 L 626.096 135.067 L 626.175 123.75 L 649.127 123.739 Z M 673.059 181.148 L 672.124 160.312 L 672.35 158.625 L 683.612 158.625 L 683.612 169.886 L 683.612 181.148 L 673.059 181.148 Z M 150.913 344.25 L 150.913 366.75 L 139.65 366.75 L 139.65 355.5 L 139.65 344.25 L 150.913 344.25 Z M 243.96 401.636 L 243.96 390.375 L 255.437 390.375 L 266.913 390.375 L 266.913 401.625 L 243.96 401.636 Z M 556.35 460.125 L 556.372 471.656 L 533.825 471.375 L 533.825 460.125 L 556.35 460.125 Z M 556.8 564.322 L 556.35 587.25 L 545.076 587.678 L 545.087 576 L 545.087 564.75 L 556.8 564.322 Z M 708.76 669.375 L 718.524 669.375 L 718.524 680.625 L 718.524 691.875 L 707.262 691.875 L 707.262 669.375 L 708.76 669.375 Z M 719.087 784.688 L 718.524 785.25 L 718.524 796.5 L 718.524 807.75 L 712.893 807.75 L 707.262 807.75 L 707.262 796.5 L 707.262 785.25 L 719.087 784.688 Z M 440.35 842.625 L 451.612 842.625 L 451.612 865.125 L 440.35 865.125 L 440.35 842.625 Z M 452.456 263.273 L 452.456 250.875 L 458.223 250.875 L 464 250.875 L 464 263.25 L 452.456 263.273 Z M 447.298 366.75 L 452.738 366.75 L 452.738 372.375 L 452.738 378 L 446.544 378 L 440.35 378 L 440.35 373.129 C 440.35 367.02 440.642 366.75 447.298 366.75 Z M 730.214 413.989 L 729.786 425.25 L 718.378 425.261 L 718.524 414 L 730.214 413.989 Z M 313.087 436.478 L 301.825 436.5 L 301.825 425.25 L 313.087 425.25 L 313.087 436.478 Z M 556.35 495.056 L 544.772 494.415 L 545.087 483.75 L 556.35 483.75 L 556.35 495.056 Z M 718.806 494.978 L 718.524 506.25 L 707.262 506.25 L 707.262 495 L 718.806 494.978 Z M 707.318 668.137 L 696.023 668.543 L 696 657 L 707.262 657 L 707.318 668.137 Z M 545.065 784.508 L 545.031 772.875 L 556.35 772.875 L 556.35 778.691 L 556.35 784.508 L 545.065 784.508 Z M 197.087 355.5 L 197.087 361.125 L 197.087 366.75 L 191.456 366.75 L 185.825 366.75 L 185.825 361.125 L 185.825 355.5 L 197.087 355.5 Z" fill="#000000" style=""/><path d="M 498.124 286.324 L 498.575 297.562 L 556.226 298.147 L 556.665 308.824 L 567.612 309.499 L 567.612 320.501 L 556.913 321.188 L 556.226 331.751 L 545.65 332.438 L 544.975 342.832 L 533.262 344.812 L 532.575 355.376 L 522 356.062 L 521.313 366.75 L 487.65 366.75 C 487.898 353.576 487.786 355.433 475.262 355.5 L 475.262 309.375 L 464 309.375 L 464 286.324 C 473.55 287.224 488.123 287.246 498.124 286.324 Z" fill="#262d3d"/><path d="M 556.226 298.147 C 567.499 298.136 569.47 299.689 568.738 286.875 L 580.056 286.875 L 579.437 320.062 L 568.175 321.188 L 567.533 344.126 L 556.913 344.812 L 556.226 355.5 L 545.087 355.5 L 545.087 366.626 L 534.388 367.312 L 533.262 378.562 C 517.991 379.485 492.223 379.485 476.951 378.562 L 474.857 366.75 L 464 366.75 L 464 355.5 L 451.612 355.5 L 451.612 344.25 C 451.127 343.766 442.016 344.452 441.735 344.25 C 439.719 342.799 440.473 320.749 440.35 320.625 L 429.087 320.625 L 429.087 298.125 C 443.469 296.55 453.549 304.031 453.121 286.447 C 462.953 285.255 487.189 285.457 498.124 286.324 C 488.123 287.246 473.55 287.224 464 286.324 L 464 309.375 L 475.262 309.375 L 475.262 355.5 C 487.786 355.433 487.898 353.576 487.65 366.75 L 521.313 366.75 L 522 356.062 L 532.575 355.376 L 533.262 344.812 L 544.975 342.832 L 545.65 332.438 L 556.226 331.751 L 556.913 321.188 L 567.612 320.501 L 567.612 309.499 L 556.665 308.824 L 556.226 298.147 Z M 498.575 297.562 L 498.124 286.324 L 498.575 297.562 Z" fill="#121825"/><path d="M 336.738 912.375 L 336.738 889.875 L 342.369 889.875 L 348 889.875 L 348 895.5 L 348 901.125 L 376.752 901.125 L 405.493 901.125 L 405.189 917.696 L 404.874 934.268 L 399.524 935.156 L 394.175 936.056 L 394.175 958.489 L 394.175 980.921 L 388.544 981.664 L 382.913 982.418 L 382.913 987.896 L 382.913 993.375 L 370.524 993.375 L 370.524 936.124 L 365.175 935.775 L 359.825 935.438 L 359.487 930.195 L 359.15 924.941 L 353.575 924.176 L 348 923.411 L 348 917.899 L 348 912.375 L 336.738 912.375 Z" fill="#121825"/><path d="M 521.437 239.625 L 521.437 250.875 L 510.175 250.875 L 498.913 250.875 L 498.913 257.062 L 498.913 263.25 L 510.175 263.25 L 510.175 274.5 L 521.437 274.5 L 533.825 274.5 L 545.087 274.5 L 545.087 252.056 L 556.372 251.134 L 569.042 250.875 L 567.938 285.739 L 498.913 285.739 L 498.913 280.125 L 498.913 274.5 L 464 274.5 L 464 263.25 L 464 250.875 L 458.223 250.875 L 452.456 250.875 L 452.456 263.273 L 451.499 252 L 440.338 251.561 L 452.738 250.763 L 452.738 239.625 L 521.437 239.625 Z" fill="#e5b489"/><path d="M 232 309.375 L 232 320.625 L 237.631 320.625 L 243.262 320.625 L 243.262 326.25 L 243.262 331.875 L 249.49 331.875 L 255.707 331.875 L 255.403 349.774 L 255.087 367.684 L 232.563 367.954 L 231.752 356.062 L 220.749 355.387 L 197.087 355.5 L 197.087 344.25 L 220.738 344.306 L 231.448 343.879 L 231.786 338.22 L 232.124 332.561 L 220.749 332.561 L 208.35 331.819 L 208.35 320.625 L 202.718 320.625 L 197.087 320.625 L 197.087 315 L 197.087 309.375 L 185.825 309.375 L 185.825 308.25 L 185.915 298.035 L 208.35 298.035 L 208.35 303.705 L 208.35 309.375 L 232 309.375 Z" fill="#e5b489"/><path d="M 568.738 228.431 L 568.738 239.625 L 574.369 239.625 L 580 239.625 L 580 257.062 L 580 274.5 L 574.166 274.489 L 568.332 274.477 L 567.938 285.739 L 569.042 250.875 L 556.372 251.134 L 556.35 239.625 L 521.437 239.625 L 452.738 239.625 L 417.825 239.625 L 417.825 234.034 L 417.825 228.431 L 568.738 228.431 Z M 556.372 251.134 L 545.087 252.056 L 533.825 251.528 L 556.372 251.134 Z" fill="#bf8363"/><path d="M 452.873 656.921 L 452.738 669.375 L 464.113 669.386 L 463.347 680.625 L 458.11 680.625 L 452.862 680.625 L 452.513 685.969 L 452.175 691.312 L 446.262 691.65 L 440.35 691.988 L 440.35 714.904 C 434.651 714.465 423.513 713.722 417.825 714.904 C 418.096 703.856 418.602 702.484 406.563 703.125 L 406.563 680.749 L 417.262 680.062 L 417.949 669.499 L 428.524 668.812 L 429.223 657.383 L 452.873 656.921 Z" fill="#262d3d"/><path d="M 500.41 390.375 L 556.428 390.375 L 555.786 413.438 L 545.211 414.124 L 544.524 424.688 L 533.825 425.374 L 533.825 436.5 C 509.15 439.92 535.593 422.235 510.175 425.25 L 510.175 414 L 498.913 414 L 498.913 391.871 C 506.098 385.661 494.194 397.553 500.41 390.375 Z" fill="#121825"/><path d="M 370.524 993.375 L 348 993.375 L 348 970.312 L 348 947.25 L 336.738 947.25 L 336.738 912.375 L 348 912.375 L 348 917.899 L 348 923.411 L 353.575 924.176 L 359.15 924.941 L 359.487 930.195 L 359.825 935.438 L 365.175 935.775 L 370.524 936.124 L 370.524 993.375 Z" fill="#262d3d"/><path d="M 568.31 691.886 L 580 691.875 L 580 726.75 L 591.262 726.75 L 591.262 738 L 573.806 738 L 556.35 738 L 556.35 726.75 L 556.35 715.5 L 550.718 715.5 L 545.087 715.5 L 545.087 680.625 L 567.499 680.625 L 568.31 691.886 Z M 521.606 668.812 L 522.327 691.864 L 527.71 691.864 L 533.093 691.875 L 533.341 714.938 L 545.099 715.342 L 545.087 732.859 L 545.087 750.375 L 533.634 750.375 L 522.18 750.375 L 522 715.084 L 510.209 714.611 L 510.096 668.812 L 521.606 668.812 Z" fill="#262d3d"/><path d="M 580 691.875 L 580 669.375 L 591.262 669.375 L 602.524 669.375 L 602.524 680.625 L 602.524 691.875 L 614.913 691.875 L 614.913 726.75 L 591.262 726.75 L 591.262 691.875 L 580 691.875 Z" fill="#38404a"/><path d="M 440.35 714.904 C 444.043 715.039 408.635 716.389 407.149 714.904 L 405.212 704.363 C 386.742 707.974 396.101 690.975 395.481 680.625 L 405.144 680.625 L 406.619 669.499 L 417.262 668.812 L 417.904 645.75 L 451.803 645.761 L 452.873 656.921 L 429.223 657.383 L 428.524 668.812 L 417.949 669.499 L 417.262 680.062 L 406.563 680.749 L 406.563 703.125 C 418.602 702.484 418.096 703.856 417.825 714.904 C 423.513 713.722 434.651 714.465 440.35 714.904 Z M 464.113 669.386 L 452.738 669.375 L 452.873 656.921 L 464 657 L 464.113 669.386 Z" fill="#121825"/><path d="M 208.35 331.819 L 197.087 331.875 L 197.087 344.25 L 185.825 344.25 L 185.825 349.875 L 185.825 355.5 L 179.631 355.5 L 173.437 355.5 L 173.437 349.875 L 173.437 344.25 L 167.806 344.25 L 162.175 344.25 L 162.175 338.625 L 162.175 333 L 167.806 333 L 173.437 333 L 173.437 326.812 L 173.437 320.625 L 179.631 320.625 L 185.825 320.625 L 185.825 309.375 L 197.087 309.375 L 197.087 315 L 197.087 320.625 L 202.718 320.625 L 208.35 320.625 L 208.35 331.819 Z M 232.563 367.954 L 232.169 379.192 L 214.915 378.877 L 197.65 378.562 L 197.313 372.656 L 196.975 366.75 L 208.856 366.75 L 220.749 366.75 L 220.749 355.387 L 231.752 356.062 L 232.563 367.954 Z M 139.65 309.375 L 173.437 309.375 L 173.437 320.625 L 139.65 320.625 L 139.65 309.375 Z M 150.913 366.75 L 150.913 344.25 L 162.175 344.25 L 162.175 355.5 L 162.175 366.75 L 150.913 366.75 Z M 197.087 355.5 L 197.087 361.125 L 197.087 366.75 L 191.456 366.75 L 185.825 366.75 L 185.825 361.125 L 185.825 355.5 L 197.087 355.5 Z" fill="#bf8363"/><path d="M 475.262 680.738 L 475.262 680.625 L 475.262 709.312 L 475.262 738 L 469.631 738 L 464 738 L 464 732.375 L 464 726.75 L 458.369 726.75 L 452.738 726.75 L 452.738 709.312 L 452.738 691.875 L 458.369 691.875 L 464 691.875 L 464 686.25 L 464 680.625 L 475.262 680.738 Z" fill="#262d3d"/><path d="M 556.372 251.134 L 533.825 251.528 L 533.825 274.5 L 521.437 274.5 L 521.437 263.25 L 510.175 263.25 L 498.913 263.25 L 498.913 257.062 L 498.913 250.875 L 510.175 250.875 L 521.437 250.875 L 521.437 239.625 L 556.35 239.625 L 556.372 251.134 Z" fill="#000000" style=""/><path d="M 602.772 634.5 L 602.524 644.546 L 580.563 645.457 L 580 645.75 L 568.738 645.75 L 568.738 657 L 533.825 657 L 533.825 645.75 L 545.515 645.727 L 557.194 645.716 L 556.507 634.444 L 602.772 634.5 Z" fill="#262d3d"/><path d="M 440.35 274.5 L 452.738 274.5 L 452.738 285.75 L 435.282 285.75 L 417.825 285.75 L 417.825 268.312 L 417.825 250.875 L 423.456 250.875 L 429.087 250.875 L 429.087 262.688 L 429.087 274.5 L 440.35 274.5 Z" fill="#bf8363"/><path d="M 464 645.806 L 464 634.511 L 440.958 633.555 L 440.958 610.875 L 452.738 610.875 L 452.738 616.5 L 452.738 622.125 L 464 622.125 L 475.262 622.125 L 475.262 633.971 L 475.262 645.806 L 464 645.806 Z" fill="#262d3d"/><path d="M 568.31 691.886 L 567.499 680.625 L 545.087 680.625 L 533.825 680.625 L 533.341 714.938 L 533.093 691.875 L 527.71 691.864 L 522.327 691.864 L 521.606 668.812 C 522.811 668.79 523.126 682.324 522.36 680.839 L 533.262 680.062 L 533.949 669.375 L 567.375 669.375 C 569.616 673.571 568.817 686.194 568.31 691.886 Z M 510.096 668.812 L 510.772 657 L 516.189 657 L 521.606 657 L 521.606 668.812 L 510.096 668.812 Z" fill="#121825"/><path d="M 556.507 634.444 L 557.194 645.716 L 545.515 645.727 L 533.825 645.75 L 533.825 657 L 522.878 657 C 522.878 657 520.39 636.739 521.426 634.793 L 556.507 634.444 Z" fill="#121825"/><path d="M 498.913 703.688 L 498.913 715.714 L 498.913 726.75 L 510.175 726.75 L 510.175 738 L 498.913 738 L 487.65 738 L 487.65 702.911 L 498.913 703.688 Z" fill="#262d3d"/><path d="M 185.003 297.529 L 174.608 298.204 L 173.437 297 L 150.913 297 L 150.913 291.375 L 150.913 285.75 L 167.963 285.75 L 185.003 285.75 L 185.003 297.529 Z" fill="#e5b489"/><path d="M 487.65 645.75 L 487.65 634.5 L 498.913 634.5 L 510.175 634.5 L 510.175 645.75 L 510.175 657 L 498.913 657 L 498.913 645.75 L 487.65 645.75 Z" fill="#262d3d"/><path d="M 580.563 645.457 L 602.524 644.546 L 602.772 634.5 C 604.946 624.634 597.513 621.259 614.991 622.125 L 614.35 645.266 C 606.23 646.133 590.767 645.863 580.563 645.457 Z" fill="#121825"/><path d="M 626.175 622.125 L 649.938 622.125 L 649.262 633.938 L 626.175 634.579 L 626.175 622.125 Z" fill="#383938"/><path d="M 452.456 263.273 L 452.738 274.5 L 440.35 274.5 L 440.338 251.561 L 451.499 252 L 452.456 263.273 Z" fill="#f5e2cb"/><path d="M 487.65 702.911 L 487.65 680.625 L 493.282 680.625 L 498.913 680.625 L 498.913 703.688 L 487.65 702.911 Z" fill="#121825"/><path d="M 545.087 252.056 L 545.087 274.5 L 533.825 274.5 L 533.825 251.528 L 545.087 252.056 Z" fill="#f5e2cb"/><path d="M 683.612 634.028 L 683.612 657 L 673.194 656.977 L 672.169 634.5 L 683.612 634.028 Z" fill="#7b6859"/><path d="M 673.194 656.977 L 672.8 645.727 L 666.944 645.739 L 661.087 645.75 L 661.087 639.765 L 661.087 633.769 L 683.612 634.028 L 672.169 634.5 L 673.194 656.977 Z" fill="#5f4c3f"/><path d="M 475.172 669.938 L 475.825 657 L 486.367 657 C 487.155 662.783 488.833 674.663 486.941 679.928 L 486.524 669.161 L 475.172 669.938 Z M 486.941 679.928 L 475.262 680.738 L 475.262 679.5 L 486.941 679.928 Z" fill="#121825"/><path d="M 464 645.806 L 453.29 645.379 L 452.963 639.832 L 452.648 634.298 L 440.958 633.555 L 464 634.511 L 464 645.806 Z M 440.958 610.875 L 440.958 633.555 L 440.958 610.875 Z" fill="#121825"/><path d="M 510.209 714.611 L 522 715.084 L 510.175 715.5 L 510.175 726.75 L 498.913 726.75 L 498.913 715.714 L 510.209 714.611 Z" fill="#121825"/><path d="M 447.298 366.75 L 452.738 366.75 L 452.738 372.375 L 452.738 378 L 446.544 378 L 440.35 378 L 440.35 373.129 C 440.35 367.02 440.642 366.75 447.298 366.75 Z" fill="#212932"/><path d="M 464 263.25 L 464 274.5 L 452.738 274.5 L 452.456 263.273 L 464 263.25 Z" fill="#ca8e6d" style=""/><path d="M 521.437 274.5 L 510.175 274.5 L 510.175 263.25 L 521.437 263.25 L 521.437 274.5 Z" fill="#bf8363"/><path d="M 498.913 657 L 487.65 657 L 487.65 645.75 L 498.913 645.75 L 498.913 657 Z" fill="#121825"/><path d="M 580 645.75 L 580 657 L 568.738 657 L 568.738 645.75 L 580 645.75 Z" fill="#121825"/><path d="M 220.738 344.306 L 220.749 332.561 L 232.124 332.561 L 231.786 338.22 L 231.448 343.879 L 220.738 344.306 Z" fill="#c28460"/><path d="M 185.915 298.035 L 185.825 308.25 L 174.563 308.25 L 174.608 298.204 L 185.003 297.529 L 185.915 298.035 Z" fill="#bf8363"/><path d="M 486.941 679.928 L 475.262 679.5 L 475.172 669.938 L 486.524 669.161 L 486.941 679.928 Z" fill="#262d3d"/></g><path d="M 684.265 1016.651 L 684.389 1040.625 L 684.197 1074.791 L 695.977 1075.05 L 695.977 1086.75 L 736.532 1086.75 L 777.087 1086.75 L 777.087 1080.562 L 777.087 1074.375 L 782.718 1074.375 L 788.35 1074.375 L 788.35 1039.388 L 800.186 1039.793 L 800.524 1045.834 L 800.85 1051.875 L 812.056 1051.875 L 823.262 1051.875 L 823.262 1057.5 L 823.262 1063.125 L 834.524 1063.125 L 845.786 1063.125 L 845.786 1068.75 L 845.786 1074.375 L 834.524 1074.375 L 823.262 1074.375 L 823.262 1080.562 L 823.262 1086.75 L 812 1086.75 L 800.738 1086.75 L 800.738 1092.375 L 800.738 1098 L 736.544 1098 L 672.35 1098 L 672.35 1103.625 L 672.35 1109.25 L 510.175 1109.25 L 348 1109.25 L 348 1103.625 L 348 1098 L 296.25 1098 L 244.501 1098 L 244.163 1092.094 L 243.825 1086.188 L 232.282 1085.872 L 220.738 1085.546 L 220.738 1079.966 L 220.738 1074.375 L 203.282 1074.375 L 185.825 1074.375 L 185.825 1068.75 L 185.825 1063.125 L 197.65 1063.125 L 209.476 1063.125 L 209.476 1057.5 L 209.476 1051.875 L 220.738 1051.875 L 232 1051.875 L 232 1045.688 L 232 1039.5 L 243.42 1039.511 L 254.828 1039.511 L 255.223 1028.239 L 255.223 1063.125 L 324.699 1063.125 L 394.175 1063.125 L 394.175 1057.5 L 394.175 1051.875 L 400.223 1051.875 L 406.27 1051.875 L 406.27 1028.25 L 672.35 1028.25 L 672.35 1033.875 L 672.35 1039.5 L 678.183 1039.5 L 684.006 1039.5 L 684.265 1016.651 Z M 394.817 982.125 L 395.301 1004.501 L 405.876 1005.345 L 394.096 1005.75 L 394.817 982.125 Z M 406.27 1028.25 L 405.876 1005.345 L 406.27 1028.25 Z M 696 1016.246 L 684.265 1016.651 L 696 1016.246 Z" fill="#4b4949"/><g id="group"><path d="M 696.011 738.686 C 695.414 739.879 683.612 738.686 683.612 738.686 L 683.612 761.625 C 683.826 761.839 694.423 761.501 694.637 761.625 C 696.991 763.02 695.64 784.541 695.989 784.879 C 695.516 786.038 710.787 784.856 707.296 784.496 L 719.087 784.688 L 719.346 807.75 L 725.023 807.75 L 730.699 807.75 L 730.699 831.375 L 731.093 865.125 L 742.186 865.553 L 730.913 866.363 L 730.395 923.974 C 730 908.201 729.032 883.485 730.271 866.25 L 718.524 866.25 L 718.524 888.75 L 707.262 888.75 C 707.048 888.964 707.386 899.55 707.262 899.764 C 705.866 902.092 685.222 900.765 684.862 901.125 L 684.175 911.812 L 649.825 912.431 L 649.814 901.564 L 626.175 900.979 L 614.901 900.428 L 626.175 900.428 L 626.175 888.964 L 626.175 877.5 L 620.577 877.5 L 614.991 877.5 L 614.665 865.969 L 614.35 854.438 L 609 854.1 L 603.65 853.751 L 603.65 848.475 L 603.65 843.188 L 591.262 843.188 L 591.262 842.625 L 591.262 819 L 580 819 L 580 807.75 L 568.738 807.75 L 568.738 785.25 L 562.87 785.25 L 557.003 785.25 L 557.003 807.761 L 556.271 785.812 L 545.065 784.508 L 556.35 784.508 L 556.35 778.691 L 556.35 772.875 L 545.031 772.875 L 545.459 762.176 L 550.842 761.839 L 556.226 761.501 L 556.575 756.225 L 556.913 750.938 L 580 750.375 L 603.087 749.812 L 603.65 744.188 L 604.214 738.562 L 615.138 738.236 L 626.051 737.921 L 626.4 732.611 L 626.738 727.312 L 649.544 727.009 L 672.35 726.705 L 672.361 732.127 L 672.361 737.561 L 683.6 738.158 L 696.011 738.686 Z M 742.175 924.379 L 730.395 923.974 L 742.175 924.379 Z" fill="#121825"/><path d="M 719.087 784.688 L 718.524 785.25 L 718.524 796.5 L 718.524 807.75 L 712.893 807.75 L 707.262 807.75 L 707.262 796.5 L 707.262 785.25 L 719.087 784.688 Z" fill="#000000" style=""/><path d="M 638.676 738 L 660.975 738 L 661.65 749.812 L 672.35 750.499 L 672.35 772.875 L 683.612 772.875 C 684.006 773.269 682.598 795.082 684.974 796.5 C 685.188 796.624 695.786 796.286 696 796.5 L 696 831.375 L 707.386 831.375 L 706.699 842.062 L 696 842.749 L 696 853.875 C 683.161 853.515 683.251 853.425 683.612 866.25 L 649.825 866.25 C 652.731 847.125 639.667 855.799 626.175 853.875 L 626.175 831.375 L 614.913 831.375 C 614.98 818.865 616.838 818.752 603.65 819 C 603.898 805.826 603.786 807.683 591.262 807.75 L 591.262 796.613 C 598.785 795.173 604.011 800.291 603.842 790.65 C 603.65 780.525 595.046 787.905 591.825 784.688 L 591.15 772.875 L 580 772.875 L 580 761.681 L 614.35 761.062 L 615.037 750.454 L 638 749.812 L 638.676 738 Z" fill="#262d3d"/></g><g id="group"><path d="M 591.848 112.185 L 591.15 123.75 L 626.175 123.75 L 626.096 135.067 C 629.52 137.936 628.506 141.964 627.898 146.216 C 626.941 145.44 616.951 146.678 615.476 147.004 L 615.07 158.636 L 620.623 158.625 L 626.175 158.625 L 626.175 169.875 L 626.175 250.875 L 614.913 250.875 L 614.913 297 C 595.767 294.098 604.45 307.147 602.524 320.625 L 591.262 320.625 L 591.262 204.75 L 591.262 193.5 L 580.056 193.5 L 579.651 181.732 C 555.685 183.69 581.475 166.005 556.913 170.438 C 556.09 172.035 555.798 192.476 557.521 193.5 C 557.678 193.59 568.017 193.466 568.028 193.477 C 567.308 195.559 567.184 203.22 568.468 204.188 L 568.738 204.626 L 568.738 216 L 429.087 216 L 429.087 193.624 L 434.437 193.275 L 439.786 192.938 L 440.102 181.406 L 440.428 169.875 L 429.087 169.875 L 429.087 159.255 L 440.766 158.062 L 441.183 146.239 L 446.623 146.239 L 452.062 146.239 L 452.839 134.809 L 463.437 135 L 464.214 123.638 L 476.388 123.75 L 487.087 123.75 L 487.864 112.511 L 591.577 111.938 L 591.848 112.185 Z M 591.262 320.625 L 591.262 331.875 L 580 331.875 L 580 320.625 L 591.262 320.625 Z" fill="#262d3d"/><path d="M 608.989 135.214 L 614.35 135.562 L 614.35 140.625 L 614.35 145.688 L 608.718 145.688 C 603.155 145.688 603.087 145.643 602.727 141.919 C 602.13 135.743 602.975 134.831 608.989 135.214 Z" fill="#171d2a"/></g><path d="M 405.324 726.75 L 406.068 737.629 L 429.087 739.035 C 429.155 739.091 428.986 749.036 429.087 749.205 C 430.439 751.466 450.654 749.419 452.175 750.938 L 452.862 761.625 L 475.262 761.625 L 475.262 772.796 L 452.175 773.438 C 449.731 775.879 454.101 781.639 452.175 783.562 L 429.65 784.688 L 428.975 796.421 L 452.175 797.062 C 452.963 797.85 452.963 806.4 452.175 807.188 L 429.65 808.312 L 428.963 819 C 416.53 820.496 399.873 813.173 406.8 831.375 L 429.087 831.375 L 429.087 842.569 L 394.738 843.188 C 393.364 853.976 392.226 855.585 405.561 855 L 404.874 865.688 L 348 866.284 C 347.989 854.044 350.174 853.549 336.738 853.875 L 336.738 842.625 L 325.51 842.625 L 325.476 820.125 L 313.065 819.709 L 323.786 818.865 L 325.025 796.489 L 325.025 820.249 L 330.78 819.911 L 336.524 819.562 L 336.772 796.5 L 348 796.5 L 347.91 784.688 L 359.262 783.911 L 359.262 773.336 L 359.262 762.188 L 370.817 761.366 L 371.2 750.352 L 377.068 750.364 L 382.924 750.375 L 382.924 738.169 L 394.175 738 L 394.062 726.637 L 405.324 726.75 Z M 370.896 738.36 L 360.467 739.688 L 359.735 761.636 L 359.262 738 L 370.896 738.36 Z M 371.279 726.75 L 370.896 738.36 L 371.279 726.75 Z" fill="#262d3d"/><path d="M 348 344.25 L 348 355.5 L 359.262 355.5 C 358.958 367.616 358.665 368.392 370.4 367.875 L 371.087 378.562 C 371.988 379.463 382.136 379.215 382.766 378.574 L 383.476 355.5 L 406.349 355.5 L 407.07 367.886 L 416.44 367.875 C 420.641 379.103 411.665 379.733 429.087 379.125 L 429.087 401.625 L 440.361 401.479 L 440.35 425.25 L 452.738 425.25 L 452.738 436.5 L 464 436.5 L 464 448.875 L 464 460.125 L 475.262 460.125 L 475.217 471.87 L 475.589 482.861 L 486.524 484.043 C 486.592 484.11 485.961 504.844 487.91 506.25 C 488.326 506.554 497.741 505.755 498.237 506.25 C 497.223 511.751 497.877 523.744 498.237 528.311 L 496.66 529.875 L 475.262 529.875 L 475.262 535.5 L 475.262 541.125 L 464.056 541.125 C 463.797 538.11 464.394 519.424 464.056 518.861 C 463.414 517.781 455.835 517.129 452.738 517.5 C 452.377 517.14 453.718 496.395 451.375 495 C 450.688 494.595 442.298 495.405 441.735 495 C 439.358 493.279 440.721 460.496 440.35 460.125 L 429.087 460.125 L 429.087 471.375 L 417.825 471.375 L 417.825 425.25 L 406.372 425.25 C 407.104 412.796 406.89 413.685 394.175 414 L 394.175 436.5 L 382.913 436.5 L 382.913 425.363 L 371.087 424.688 L 370.4 414 L 359.262 414 L 359.262 401.625 L 348 401.625 L 348 412.875 L 336.738 412.875 C 336.209 412.346 337.943 380.655 335.375 379.125 C 334.913 378.855 325.431 379.586 324.969 379.125 C 325.802 369.315 325.802 354.06 324.969 344.25 L 348 344.25 Z" fill="#262d3d"/><g id="group"><path d="M 522.09 772.864 L 522.687 773.438 L 510.299 772.717 L 509.612 783.562 L 499.037 784.249 C 496.593 793.26 501.525 797.467 487.65 796.5 L 487.313 807.75 L 487.774 808.312 L 475.386 807.592 L 474.699 818.438 L 464 819.124 C 464.293 830.947 464.631 831.904 453.121 831.386 L 452.524 842.614 L 452.738 866.25 L 440.338 866.036 L 429.177 866.633 L 428.851 877.41 L 428.524 888.188 L 388.262 888.48 L 348 888.784 L 348 883.192 L 348 877.59 L 324.35 878.062 L 324.856 877.5 L 325.51 842.625 L 336.738 842.625 L 336.738 853.875 C 350.174 853.549 347.989 854.044 348 866.284 L 404.874 865.688 L 405.561 855 C 392.226 855.585 393.364 853.976 394.738 843.188 L 429.087 842.569 L 429.087 831.375 L 406.8 831.375 C 399.873 813.173 416.53 820.496 428.963 819 L 429.65 808.312 L 452.175 807.188 C 452.963 806.4 452.963 797.85 452.175 797.062 L 428.975 796.421 L 429.65 784.688 L 452.175 783.562 C 454.101 781.639 449.731 775.879 452.175 773.438 L 475.262 772.796 L 475.262 761.625 L 452.862 761.625 L 452.175 750.938 C 450.654 749.419 430.439 751.466 429.087 749.205 C 428.986 749.036 429.155 739.091 429.087 739.035 L 406.068 737.629 L 405.324 726.75 L 440.35 726.75 L 440.35 737.921 L 463.437 738.562 L 464.113 750.375 L 510.175 750.375 L 510.175 761.625 C 528.994 760.781 518.847 763.133 522.09 772.864 Z M 382.924 738.169 L 382.924 750.375 L 377.068 750.364 L 371.2 750.352 L 370.817 761.366 L 371.808 739.395 L 382.924 738.169 Z M 394.062 726.637 L 394.175 738 L 382.924 738.169 L 382.913 727.312 L 394.062 726.637 Z M 394.062 726.637 L 394.817 715.5 L 400.076 715.5 L 405.324 715.5 L 405.324 726.75 L 394.062 726.637 Z" fill="#121825"/><path d="M 440.35 842.625 L 451.612 842.625 L 451.612 865.125 L 440.35 865.125 L 440.35 842.625 Z" fill="#000000" style=""/></g><path d="M 707.262 414 L 707.262 425.25 L 718.378 425.261 L 719.459 436.489 L 724.842 436.489 L 730.226 436.478 L 730.642 448.312 L 742.197 448.166 L 753.797 448.459 L 742.175 448.875 L 742.175 460.001 L 742.175 471.375 L 753.55 471.364 L 753.324 483.188 L 754.18 495 L 765.037 495 C 764.474 500.94 764.485 511.673 765.037 517.376 L 754 518.062 L 753.324 528.446 C 746.454 528.727 739.438 530.528 730.913 529.875 L 730.913 506.25 L 719.763 506.25 L 718.806 494.978 L 718.524 483.75 L 726.971 483.39 C 732.737 482.366 727.984 493.594 730.35 494.438 L 742.299 495.124 L 741.612 483.188 L 730.913 482.501 L 730.913 472.027 L 719.662 471.262 C 719.245 469.699 720.169 461.239 718.288 460.125 L 684.738 460.125 C 685.098 447.3 685.188 447.39 672.35 447.75 L 672.35 425.25 L 649.825 425.25 L 649.825 436.5 L 649.555 437.062 C 648.271 438.03 648.395 445.691 649.116 447.772 C 630.984 444.814 639.295 458.348 637.437 471.375 L 614.913 471.375 L 614.969 460.125 L 626.175 460.125 L 626.175 448.988 L 626.107 437.918 C 636.953 436.95 639.363 438.491 638.563 425.25 L 649.172 425.25 L 649.938 414.011 L 649.825 401.366 L 660.524 402.975 L 661.2 390.161 L 661.2 379.125 L 672.406 379.125 L 683.612 379.125 L 683.612 384.75 L 683.612 390.375 L 689.806 390.375 L 696 390.375 L 696 396 L 696 401.625 L 701.631 401.625 L 707.262 401.625 L 707.262 414 Z M 754.191 460.125 L 753.797 448.459 L 754.191 460.125 Z" fill="#262d3d"/><path d="M 638.18 169.864 C 637.302 172.688 638.248 204.469 638.755 204.739 C 644.757 205.729 648.147 201.96 649.825 208.305 L 649.825 285.75 L 638.867 285.75 C 637.73 286.886 637.437 309.375 637.437 309.375 L 626.175 309.375 C 625.814 309.735 627.155 330.48 624.812 331.875 C 624.35 332.145 615.408 331.504 615.025 331.875 L 614.35 343.688 L 603.087 344.812 L 602.4 355.5 L 580 355.5 L 580 366.75 L 557.352 366.75 L 558.039 356.062 L 567.341 355.387 L 568.817 344.25 L 580 344.25 L 580 331.875 L 591.262 331.875 L 591.262 320.625 L 602.524 320.625 C 604.45 307.147 595.767 294.098 614.913 297 L 614.913 250.875 L 626.175 250.875 L 626.175 169.875 L 637.437 169.875 L 637.854 158.062 L 638.18 169.864 Z" fill="#121825"/><path d="M 324.969 344.25 C 325.802 354.06 325.802 369.315 324.969 379.125 C 325.431 379.586 334.913 378.855 335.375 379.125 C 337.943 380.655 336.209 412.346 336.738 412.875 L 348 412.875 L 348 401.625 L 359.262 401.625 L 359.262 414 L 370.4 414 L 371.087 424.688 L 382.913 425.363 L 382.913 436.5 L 394.175 436.5 L 394.175 414 C 406.89 413.685 407.104 412.796 406.372 425.25 L 405.448 460.125 L 382.913 460.125 L 382.913 449.179 C 382.361 448.627 363.407 447.086 359.96 447.75 C 359.96 447.75 361.132 459.517 359.96 460.136 L 359.409 448.875 L 359.127 437.062 L 313.087 436.478 L 313.087 425.25 L 301.825 425.25 L 301.825 414.124 L 307.175 413.775 L 312.524 413.438 L 313.087 407.812 L 313.65 402.188 L 319.203 401.827 L 324.744 401.479 L 324.969 344.25 Z" fill="#121825"/><path d="M 753.336 1017.113 L 754 1028.25 L 764.496 1028.25 L 765.476 1039.264 L 777.087 1040.062 L 777.087 1063.125 L 742.175 1063.125 L 741.612 1051.403 L 730.496 1051.403 L 729.674 1063.125 L 696 1063.125 L 696 1051.875 L 707.262 1051.875 L 707.262 1028.25 L 707.262 1017.113 L 718.862 1016.438 L 719.313 1005.278 L 742.175 1005.278 L 742.175 1011.195 L 742.175 1017.113 L 753.336 1017.113 Z" fill="#262d3d"/><g id="group"><path d="M 464.056 541.125 L 463.628 551.824 L 440.913 552.938 C 438.863 562.905 444.595 565.369 429.087 564.75 L 429.087 517.5 L 417.825 517.5 L 417.825 471.375 L 429.087 471.375 L 429.087 460.125 L 440.35 460.125 C 440.721 460.496 439.358 493.279 441.735 495 C 442.298 495.405 450.688 494.595 451.375 495 C 453.718 496.395 452.377 517.14 452.738 517.5 C 455.835 517.129 463.414 517.781 464.056 518.861 C 464.394 519.424 463.797 538.11 464.056 541.125 Z" fill="#121825"/><path d="M 429.087 517.5 L 429.087 506.194 L 429.087 494.876 L 434.437 495.225 L 439.786 495.562 L 440.113 506.531 L 440.428 517.5 L 429.087 517.5 Z" fill="#262d3d"/><path d="M 446.938 518.85 L 452.175 519.188 L 452.175 524.25 L 452.175 529.312 L 447.231 529.661 C 440.991 530.111 439.922 529.009 440.901 523.181 L 441.69 518.512 L 446.938 518.85 Z" fill="#262d3d"/></g><path d="M 267.566 1029.847 C 268.287 1027.35 268.332 1040.625 267.566 1039.5 L 348 1039.5 L 348 1028.25 L 370.231 1028.25 C 371.853 1017.304 373.689 1016.269 359.791 1017 L 359.014 1005.424 L 382.924 1004.738 L 382.913 1010.869 L 382.913 1017 L 388.577 1017 L 394.231 1017 L 393.927 1034.156 L 393.612 1051.312 L 330.465 1051.605 L 267.318 1051.898 L 267.566 1029.847 Z" fill="#121825"/><path d="M 626.175 495 L 626.175 483.75 L 661.087 483.75 L 696 483.75 L 696 489.375 L 696 495 L 707.262 495 L 707.262 506.25 L 718.524 506.25 L 718.524 529.875 L 696 529.875 C 695.786 529.661 696.124 519.075 696 518.861 C 694.356 516.094 650.805 518.254 650.05 517.5 L 649.217 506.543 L 638.18 506.093 L 638.563 495 L 626.175 495 Z" fill="#262d3d"/><path d="M 359.014 1005.424 L 359.791 1017 C 373.689 1016.269 371.853 1017.304 370.231 1028.25 L 348 1028.25 L 348 1039.5 L 267.566 1039.5 C 268.332 1040.625 268.287 1027.35 267.566 1029.847 L 269.165 1028.25 L 290 1028.25 L 289.944 1017.011 L 289.55 1014.188 C 289.899 1019.666 307.704 1015.852 312.963 1017 L 313.65 1006.312 L 324.913 1005.188 L 325.6 994.5 L 348 994.5 L 348 1005.424 C 349.07 1006.492 358.282 1005.322 359.014 1005.424 Z" fill="#262d3d"/><path d="M 730.395 923.974 L 742.175 924.379 L 742.163 958.714 L 730.946 958.477 L 730.755 925.312 L 724.64 924.244 L 718.524 923.175 L 718.524 912.15 L 718.524 901.125 L 712.893 901.125 L 707.262 901.125 L 707.262 906.75 L 707.262 912.375 L 696 912.375 L 684.738 912.375 L 684.738 917.966 L 684.738 923.546 L 673.194 923.873 L 661.65 924.188 L 661.313 929.745 L 660.963 935.291 L 649.352 935.291 L 649.352 924.188 L 637.437 924.964 L 637.437 918.664 L 637.437 912.375 L 631.806 912.375 L 626.175 912.375 L 626.175 900.979 L 649.814 901.564 L 649.825 912.431 L 684.175 911.812 L 684.862 901.125 C 685.222 900.765 705.866 902.092 707.262 899.764 C 707.386 899.55 707.048 888.964 707.262 888.75 L 718.524 888.75 L 718.524 866.25 L 730.271 866.25 C 729.032 883.485 730 908.201 730.395 923.974 Z M 753.437 993.51 L 742.175 993.611 L 742.175 999.315 L 742.175 1005.019 L 719.313 1005.278 L 718.862 1016.438 L 707.262 1017.113 L 707.262 1028.25 L 696 1028.25 L 696 1051.875 L 696 1063.125 L 696 1074.375 L 684.197 1074.791 L 684.389 1040.625 L 684.265 1016.651 L 696 1016.246 L 696 1004.625 L 690.369 1004.625 L 684.738 1004.625 L 684.738 982.125 L 696 982.125 L 696 993.375 L 707.262 993.375 L 707.262 1004.625 L 712.792 1004.625 L 718.333 1004.625 L 719.087 993.375 L 742.175 993.375 L 742.107 982.125 L 742.738 958.5 L 753.437 958.5 L 753.437 993.51 Z M 788.372 1028.959 L 788.35 1039.388 L 788.35 1074.375 L 782.718 1074.375 L 777.087 1074.375 L 777.087 1080.562 L 777.087 1086.75 L 736.532 1086.75 L 695.977 1086.75 L 695.977 1075.05 L 730.913 1074.319 L 730.496 1051.403 L 741.612 1051.403 L 742.175 1063.125 L 742.58 1074.938 C 749.878 1074.308 768.922 1075.376 777.087 1073.115 L 777.087 1063.125 L 777.087 1040.062 L 777.087 1029.375 L 788.372 1028.959 Z M 614.901 900.428 L 614.901 888.75 L 609.27 888.75 L 603.65 888.75 L 603.65 877.5 L 603.65 866.25 L 597.456 866.25 L 591.262 866.25 L 591.262 843.188 L 603.65 843.188 L 603.65 848.475 L 603.65 853.751 L 609 854.1 L 614.35 854.438 L 614.665 865.969 L 614.991 877.5 L 620.577 877.5 L 626.175 877.5 L 626.175 888.964 L 626.175 900.428 L 614.901 900.428 Z M 765.825 1016.438 L 753.336 1017.113 C 753.426 998.044 753.854 994.511 756.252 993.488 L 765.825 993.375 L 765.825 1016.438 Z M 672.789 958.477 L 661.087 958.5 L 661.065 935.584 L 672.057 935.438 L 672.789 958.477 Z M 683.398 958.5 L 684.738 958.5 L 684.738 981 L 679.107 981 L 673.476 981 L 673.476 969.75 L 673.476 958.5 L 683.398 958.5 Z M 765.397 1016.989 L 776.344 1016.977 L 775.961 1028.25 L 764.496 1028.25 L 765.397 1016.989 Z" fill="#000000" style=""/><path d="M 730.946 958.477 L 719.087 958.061 L 718.761 947.036 L 718.445 936 L 707.217 936 L 696 936 L 696 941.625 L 696 947.25 L 690.076 947.25 L 684.152 947.25 L 683.398 958.5 L 673.476 958.5 L 673.476 969.75 L 673.476 981 L 679.107 981 L 684.738 981 L 684.738 958.5 L 696 958.5 L 696 982.125 L 684.738 982.125 L 672.35 982.125 L 672.789 958.477 L 672.057 935.438 L 661.065 935.584 L 649.352 935.291 L 660.963 935.291 L 661.313 929.745 L 661.65 924.188 L 673.194 923.873 L 684.738 923.546 L 684.738 917.966 L 684.738 912.375 L 696 912.375 L 707.262 912.375 L 707.262 906.75 L 707.262 901.125 L 712.893 901.125 L 718.524 901.125 L 718.524 912.15 L 718.524 923.175 L 724.64 924.244 L 730.755 925.312 L 730.946 958.477 Z M 742.163 958.714 L 742.738 958.5 L 742.107 982.125 L 730.913 982.125 L 730.946 958.477 L 742.163 958.714 Z M 707.262 993.375 L 696 993.375 L 696 982.125 L 707.262 982.125 L 707.262 993.375 Z M 649.352 924.188 L 649.352 935.291 L 649.352 924.188 Z" fill="#121825"/><path d="M 638.18 506.093 L 649.217 506.543 L 650.05 517.5 C 650.805 518.254 694.356 516.094 696 518.861 C 696.124 519.075 695.786 529.661 696 529.875 L 718.524 529.875 L 718.524 541.001 L 713.175 541.35 L 707.825 541.688 L 707.487 547.031 L 707.138 552.375 L 689.75 552.375 L 672.35 552.375 L 672.35 546.75 L 672.35 541.125 L 654.893 541.125 L 637.437 541.125 L 637.437 535.5 L 637.437 529.875 L 631.885 529.875 L 626.332 529.875 L 625.612 517.5 L 626.186 517.725 L 636.874 517.309 L 638.18 506.093 Z" fill="#121825"/><path d="M 602.524 529.875 L 602.524 541.125 L 626.175 541.125 L 626.175 552.038 L 648.519 553.399 C 649.363 559.17 650.828 570.296 649.262 575.438 L 603.65 576.045 L 603.65 587.194 L 614.913 587.194 L 614.913 588.375 L 603.65 588.375 L 603.223 598.928 L 602.389 587.137 C 602.085 576.394 603.279 560.767 602.524 552.375 L 591.87 552.375 L 591.161 564.626 L 580 563.31 L 580 546.592 L 580 529.875 L 602.524 529.875 Z M 614.913 598.5 L 614.913 599.794 L 603.223 598.928 L 614.913 598.5 Z" fill="#121825"/><path d="M 266.901 366.57 L 289.989 366.817 L 290.383 372.971 L 290.777 379.125 L 313.087 379.125 L 313.087 401.625 L 301.825 401.625 C 305.564 418.59 285.506 419.254 289.437 401.625 L 266.913 401.625 L 266.913 390.375 L 255.437 390.375 L 243.96 390.375 L 243.96 401.636 L 243.138 390.375 L 243.577 379.676 L 248.916 379.35 L 254.254 379.012 L 255.02 373.32 L 255.786 367.639 L 266.901 366.57 Z" fill="#121825"/><path d="M 683.398 958.5 L 684.152 947.25 L 690.076 947.25 L 696 947.25 L 696 941.625 L 696 936 L 707.217 936 L 718.445 936 L 718.761 947.036 L 719.087 958.061 L 730.946 958.477 L 730.913 982.125 L 742.107 982.125 L 742.175 993.375 L 719.087 993.375 L 707.262 993.375 L 707.262 982.125 L 696 982.125 L 696 958.5 L 684.738 958.5 L 683.398 958.5 Z" fill="#262d3d"/><path d="M 591.206 460.125 L 591.96 471.386 L 602.524 471.386 L 602.524 477.574 L 602.524 483.75 L 608.718 483.75 L 614.913 483.75 L 614.913 495 L 614.913 506.25 L 580 506.25 L 580 495 L 568.794 495 L 568.04 483.941 L 545.087 482.479 L 545.087 472.613 L 556.372 471.656 L 568.04 471.386 L 568.535 460.147 L 591.206 460.125 Z" fill="#e5b489"/><path d="M 475.161 401.625 L 475.825 414 L 486.524 414 L 486.524 425.25 L 492.718 425.25 L 498.913 425.25 L 498.913 437.062 L 498.913 448.875 L 504.544 448.875 L 510.175 448.875 L 510.175 460.035 L 510.163 471.195 L 521.752 470.79 L 522 471.06 L 521.403 495 L 510.175 495 L 510.175 483.75 L 498.913 483.75 L 498.913 471.938 L 487.211 471.127 L 486.963 448.481 L 476.951 447.604 L 475.713 425.239 L 464 425.25 L 464 401.625 L 475.161 401.625 Z" fill="#38404a"/><path d="M 568.175 587.981 L 557.476 587.981 L 557.476 599.423 L 557.476 610.875 L 562.544 610.875 L 567.612 610.875 L 567.612 616.5 L 567.612 622.125 L 522.056 622.125 L 476.512 622.125 L 476.163 616.781 L 475.825 611.438 L 469.913 611.1 L 464 610.762 L 464 604.991 L 464 599.231 L 441.138 598.972 L 464 599.018 L 487.087 599.018 L 487.414 593.719 L 487.741 588.42 L 499.037 587.363 L 498.327 599.625 L 492.989 599.625 L 487.65 599.625 L 487.65 605.25 L 487.65 610.875 L 532.699 610.875 C 537.79 612.877 532.485 601.841 533.487 599.288 L 543.939 600.525 C 543.939 600.525 543.713 608.153 544.952 608.062 C 544.952 610.774 545.369 610.875 550.651 610.875 L 556.35 610.875 L 556.361 599.467 L 556.361 588.071 L 545.076 587.678 L 556.35 587.25 L 556.8 564.322 L 558.039 587.104 L 568.175 587.981 Z M 556.8 564.322 L 545.087 564.75 L 545.087 576 L 522.563 575.933 L 522.563 564.829 L 545.11 564.041 L 556.8 564.322 Z M 522.563 575.933 L 522.563 584.516 L 518.948 588.15 L 499.037 587.363 L 498.913 576.562 L 522.563 575.933 Z M 441.138 598.972 L 440.687 587.812 L 441.138 598.972 Z" fill="#121825"/><path d="M 266.901 366.57 L 266.901 333 L 278.107 333 L 289.313 333 L 289.662 338.344 L 290 343.688 L 301.544 344.002 L 313.087 344.329 L 313.087 379.125 L 290.777 379.125 L 290.383 372.971 L 289.989 366.817 L 266.901 366.57 Z" fill="#262d3d"/><path d="M 730.913 529.875 C 739.438 530.528 746.454 528.727 753.324 528.446 L 754 518.062 L 765.037 517.376 C 764.485 511.673 764.474 500.94 765.037 495 C 765.499 500.344 767.852 538.864 763.629 541.125 C 763.043 541.44 753.763 540.923 753.561 541.125 L 752.874 551.812 L 742.738 552.938 C 741.702 565.312 743.256 563.096 731.476 564.581 C 729.19 564.874 708.445 565.38 707.262 563.389 C 704.638 547.234 716.643 553.939 718.209 552.375 C 718.288 552.296 719.369 541.249 719.549 541.125 L 730.913 541.125 L 730.913 529.875 Z M 777.11 483.334 L 764.699 483.75 L 765.037 495 L 754.18 495 L 753.324 483.188 L 764.699 483.964 L 765.15 460.114 L 766.388 482.49 L 777.11 483.334 Z" fill="#121825"/><path d="M 649.825 436.5 L 649.825 425.25 L 672.35 425.25 L 672.35 447.75 C 685.188 447.39 685.098 447.3 684.738 460.125 L 718.288 460.125 C 720.169 461.239 719.245 469.699 719.662 471.262 L 661.087 471.262 L 661.087 453.881 L 661.087 436.5 L 649.825 436.5 Z" fill="#121825"/><path d="M 684.175 680.31 L 683.927 704.25 L 678.138 704.25 L 672.35 704.25 L 672.35 709.639 L 672.35 715.028 L 626.175 714.893 L 650.208 714.375 L 648.136 703.834 L 637.437 703.001 L 637.381 691.875 L 661.087 691.875 C 663.193 679.174 654.251 663.008 672.35 669.476 L 672.338 680.389 C 673.442 681.491 684.366 680.051 683.814 679.995 L 684.175 680.31 Z" fill="#121825"/><path d="M 567.578 541.125 L 568.254 564.75 L 580 564.75 L 579.989 587.678 L 591.228 588.004 L 591.251 599.062 L 568.884 598.871 L 568.175 587.981 L 558.039 587.104 L 556.8 564.322 L 545.11 564.041 L 545.087 552.375 L 556.136 552.375 L 557.183 541.024 L 567.578 541.125 Z" fill="#38404a"/><path d="M 405.617 656.775 L 394.175 657.54 L 394.175 662.895 L 394.175 668.25 L 388.555 668.25 L 382.935 668.25 L 382.935 679.781 L 371.65 679.5 L 371.65 645.75 L 382.913 645.75 L 382.913 640.046 L 382.901 634.342 L 394.513 633.938 L 394.963 622.778 L 406.619 623.25 L 405.617 656.775 Z M 371.65 644.512 L 371.65 645.75 L 370.524 645.75 L 359.251 645.311 L 371.65 644.512 Z" fill="#5f594e"/><path d="M 649.352 135.36 L 649.915 147.206 L 655.22 147.566 L 660.524 147.938 L 660.862 153.281 L 661.211 158.625 L 672.35 158.625 L 672.124 160.312 C 670.615 170.28 670.548 168.21 662.743 167.861 C 661.425 171.641 655.366 173.936 656.583 181.125 L 649.825 181.125 L 649.825 175.5 L 649.825 169.864 L 638.18 169.864 L 637.854 158.062 L 626.175 157.275 L 626.175 152.145 L 626.175 147.004 L 615.476 147.004 C 616.951 146.678 626.941 145.44 627.898 146.216 C 628.506 141.964 629.52 137.936 626.096 135.067 L 648.699 135 L 649.127 123.739 L 649.352 135.36 Z M 661.087 135.754 L 649.352 135.36 L 661.087 135.754 Z" fill="#1b222f"/><path d="M 475.262 587.25 L 464 587.25 L 464 599.018 L 441.138 598.972 L 440.687 587.812 L 429.076 587.408 L 429.087 581.704 L 429.087 576 L 434.876 576.011 L 440.654 576.011 L 441.048 564.739 L 441.048 576 L 446.893 576 L 452.738 576 L 452.738 564.806 L 464.011 564.188 L 475.262 564.964 L 475.262 587.25 Z" fill="#3e3b34"/><g id="group"><path d="M 545.087 517.5 L 545.65 517.5 L 544.986 529.864 L 533.825 529.875 L 533.825 541.125 L 533.825 552.375 L 528.048 552.364 L 522.27 552.364 L 521.854 564.109 L 521.854 541.125 L 515.986 541.125 L 510.118 541.125 L 510.118 529.875 L 510.524 518.051 L 515.918 517.714 L 521.313 517.376 L 521.662 512.1 L 522 506.812 L 527.913 506.475 L 533.825 506.137 L 533.825 511.819 L 533.825 517.5 L 545.087 517.5 Z M 487.639 541.024 L 487.639 552.251 L 493 552.6 L 498.35 552.938 L 498.687 558.517 L 499.037 564.109 L 521.854 564.109 C 517.484 565.256 504.758 564.885 498.913 564.356 C 498.259 567.337 500.478 577.406 497.223 576 L 497.978 564.885 L 492.527 564.536 L 487.087 564.188 L 486.75 558.63 L 486.4 553.072 L 463.989 553.072 L 475.273 552.679 L 475.273 547.211 L 475.262 541.744 L 487.639 541.024 Z" fill="#3e3b34"/><path d="M 527.823 517.5 L 532.699 517.5 L 532.699 523.688 L 532.699 529.875 L 527.068 529.875 L 521.437 529.875 L 521.437 524.441 C 521.437 517.793 521.707 517.5 527.823 517.5 Z" fill="#5f594e"/></g><path d="M 626.175 495 L 626.186 517.725 L 625.612 517.5 L 614.913 517.5 L 614.913 523.688 L 614.913 529.875 L 602.524 529.875 L 602.84 528.75 L 602.997 518.153 L 580.034 517.815 L 580 506.25 L 614.913 506.25 L 614.913 495 L 626.175 495 Z" fill="#bf8363"/><path d="M 518.948 588.15 C 523.577 586.553 520.547 596.768 521.437 598.264 C 522.394 599.861 532.699 599.625 532.699 599.625 L 532.699 610.875 L 487.65 610.875 L 487.65 605.25 L 487.65 599.625 L 492.989 599.625 L 498.327 599.625 L 499.037 587.363 L 518.948 588.15 Z" fill="#262d3d"/><path d="M 626.366 413.764 L 615.476 413.314 L 615.127 407.79 L 614.766 402.266 L 603.662 401.512 L 603.223 390.386 L 614.913 390.375 L 614.913 379.125 L 626.175 379.125 L 626.175 384.75 L 626.175 390.375 L 631.806 390.375 L 637.437 390.375 L 637.448 401.873 L 637.459 413.37 L 626.366 413.764 Z" fill="#5f594e"/><path d="M 510.118 529.875 L 510.118 541.125 L 515.986 541.125 L 521.854 541.125 L 521.854 564.109 L 499.037 564.109 L 498.687 558.517 L 498.35 552.938 L 493 552.6 L 487.639 552.251 L 487.639 541.024 L 498.913 541.024 L 498.913 535.444 L 498.913 529.875 L 510.118 529.875 Z" fill="#5f594e"/><path d="M 417.307 158.276 L 417.555 182.486 L 423.321 181.676 L 429.087 180.866 L 429.087 169.875 L 440.428 169.875 L 440.102 181.406 L 439.786 192.938 L 434.437 193.275 L 429.087 193.624 L 429.087 216 L 417.938 216 L 417.104 181.114 L 417.307 158.276 Z M 429.087 157.871 L 417.307 158.276 L 429.087 157.871 Z" fill="#121825"/><path d="M 673.104 366.772 L 672.563 356.603 L 661.189 356.614 L 649.825 356.625 L 649.825 373.5 L 649.825 390.375 L 644.07 390.375 L 638.315 390.375 L 638.315 413.989 L 626.366 413.764 L 637.459 413.37 L 637.448 401.873 L 637.437 390.375 L 631.806 390.375 L 626.175 390.375 L 626.175 384.75 L 626.175 379.125 L 614.913 379.125 L 614.913 366.75 L 626.175 366.75 L 637.595 366.75 L 638.237 372.938 L 638.878 379.125 L 643.789 379.125 L 648.699 379.125 L 648.699 355.5 L 649.127 344.239 L 649.521 355.511 L 661.313 355.511 L 673.104 355.5 L 673.104 366.772 Z M 603.662 401.512 L 614.766 402.266 L 615.127 407.79 L 615.476 413.314 L 626.366 413.764 L 625.6 425.25 L 620.251 425.25 L 614.913 425.25 L 614.913 436.5 L 603.65 436.5 L 603.65 430.931 L 603.65 425.374 L 609 425.025 L 614.35 424.688 L 614.71 419.625 L 615.07 414.562 L 591.217 414.562 L 591.825 402.412 L 602.536 401.861 L 603.662 401.512 Z" fill="#3e3b34"/><path d="M 614.913 436.5 L 614.8 444.938 L 613.696 447.739 L 602.524 447.739 L 602.524 442.114 L 602.524 436.5 L 580 436.5 L 580 425.25 L 591.262 425.25 L 591.217 414.562 L 615.07 414.562 L 614.71 419.625 L 614.35 424.688 L 609 425.025 L 603.65 425.374 L 603.65 430.931 L 603.65 436.5 L 614.913 436.5 Z" fill="#5f594e"/><path d="M 545.087 576 L 545.076 587.678 L 556.361 588.071 L 556.361 599.467 L 556.35 610.875 L 550.651 610.875 C 545.369 610.875 544.952 610.774 544.952 608.062 C 544.31 606.217 546.225 599.186 544.412 599.074 C 527.575 597.656 537.103 600.3 532.463 587.25 C 530.908 586.327 520.277 589.534 522.563 584.516 L 522.563 575.933 L 545.087 576 Z" fill="#262d3d"/><path d="M 497.223 576 L 486.524 576 L 486.524 581.625 L 486.524 587.25 L 475.262 587.25 L 475.262 564.964 L 464.011 564.188 L 463.989 553.072 L 486.4 553.072 L 486.75 558.63 L 487.087 564.188 L 492.527 564.536 L 497.978 564.885 L 497.223 576 Z" fill="#5f594e"/><path d="M 568.738 414 L 580 414 L 580 425.25 L 568.738 425.25 L 568.738 430.875 L 568.738 436.5 L 556.913 436.5 L 545.087 436.5 L 545.087 430.875 L 545.087 425.25 L 550.718 425.25 L 556.35 425.25 L 556.35 419.625 L 556.35 414 L 568.738 414 Z" fill="#38404a"/><path d="M 625.42 691.841 L 614.913 691.875 L 614.913 668.25 L 603.696 668.25 C 597.073 650.284 613.572 659.149 625.353 656.91 C 626.546 657.551 626.389 677.329 625.826 680.726 L 625.42 691.841 Z" fill="#121825"/><path d="M 568.468 204.188 C 567.184 203.22 567.308 195.559 568.028 193.477 C 568.017 193.466 557.678 193.59 557.521 193.5 C 555.798 192.476 556.09 172.035 556.913 170.438 C 581.475 166.005 555.685 183.69 579.651 181.732 L 580.056 193.5 L 568.738 193.5 L 568.468 204.188 Z M 591.262 204.75 L 580 204.75 L 580.056 193.5 L 591.262 193.5 L 591.262 204.75 Z" fill="#121825"/><path d="M 613.696 447.739 L 614.214 448.864 L 602.524 448.864 L 602.524 454.489 L 602.524 460.125 L 597.242 460.125 L 591.96 460.125 L 591.96 471.386 L 591.206 460.125 L 591.206 448.875 L 585.597 448.875 L 580 448.875 L 580 436.5 L 602.524 436.5 L 602.524 442.114 L 602.524 447.739 L 613.696 447.739 Z" fill="#3e3b34"/><path d="M 383.476 355.5 L 382.766 378.574 C 382.136 379.215 371.988 379.463 371.087 378.562 L 370.4 367.875 C 358.665 368.392 358.958 367.616 359.262 355.5 L 383.476 355.5 Z M 359.262 344.25 L 359.262 355.5 L 348 355.5 L 348 344.25 L 359.262 344.25 Z" fill="#121825"/><path d="M 730.496 1051.403 L 730.913 1074.319 L 695.977 1075.05 L 684.197 1074.791 L 696 1074.375 L 696 1063.125 L 729.674 1063.125 L 730.496 1051.403 Z M 684.389 1040.625 L 684.197 1074.791 L 684.389 1040.625 Z M 730.496 1051.403 L 741.612 1051.403 L 730.496 1051.403 Z" fill="#121825"/><path d="M 429.087 379.125 C 411.665 379.733 420.641 379.103 416.44 367.875 L 407.07 367.886 L 406.349 355.5 L 429.087 355.5 L 429.087 379.125 Z M 452.738 425.25 L 440.35 425.25 L 440.361 401.479 C 457.93 398.711 450.925 412.942 452.738 425.25 Z M 440.361 401.479 L 429.087 401.625 L 429.087 379.125 L 440.35 379.125 L 440.361 401.479 Z M 464 425.25 L 464 436.5 L 452.738 436.5 L 452.738 425.25 L 464 425.25 Z" fill="#121825"/><path d="M 602.389 587.137 L 591.228 588.004 L 579.989 587.678 L 591.262 587.25 L 591.161 564.626 L 591.87 552.375 L 602.524 552.375 C 603.279 560.767 602.085 576.394 602.389 587.137 Z" fill="#262d3d"/><path d="M 777.087 1063.125 L 777.087 1073.115 C 768.922 1075.376 749.878 1074.308 742.58 1074.938 L 742.175 1063.125 L 777.087 1063.125 Z" fill="#121825"/><path d="M 591.251 599.062 L 591.251 610.875 L 596.893 610.875 L 602.524 610.875 L 602.524 616.5 L 602.524 622.125 L 591.262 622.125 L 580 622.125 L 580.011 610.684 L 580.023 599.254 L 568.884 598.871 L 591.251 599.062 Z" fill="#212932"/><path d="M 649.262 680.22 L 638.608 679.444 L 637.752 656.989 L 637.437 645.75 L 649.882 645.75 L 649.262 680.22 Z" fill="#7b6859"/><path d="M 567.983 448.875 L 568.535 460.147 L 568.04 471.386 L 567.612 460.125 L 556.35 460.125 L 533.825 460.125 L 533.825 458.629 L 533.825 448.875 L 567.983 448.875 Z" fill="#e1ad85"/><path d="M 370.524 645.75 L 370.468 680.625 L 359.262 680.625 L 359.251 645.311 L 370.524 645.75 Z" fill="#000000" style=""/><path d="M 730.699 831.375 L 742.175 831.375 L 742.186 865.553 L 731.093 865.125 L 730.699 831.375 Z M 718.524 808.875 L 729.786 808.875 L 729.786 831.375 L 718.524 831.375 L 718.524 808.875 Z" fill="#000000" style=""/><path d="M 648.699 355.5 L 648.699 379.125 L 643.789 379.125 L 638.878 379.125 L 638.237 372.938 L 637.595 366.75 L 626.175 366.75 L 626.175 355.5 L 648.699 355.5 Z" fill="#5f594e"/><path d="M 475.161 401.625 L 464 401.625 L 452.738 401.625 L 452.738 390.375 L 452.738 379.125 L 458.369 379.125 L 464 379.125 L 464 384.75 L 464 390.375 L 469.575 390.375 L 475.161 390.375 L 475.161 401.625 Z M 486.524 414 L 475.825 414 L 475.161 401.625 L 486.524 401.625 L 486.524 414 Z" fill="#212932"/><g id="group"><path d="M 626.197 598.793 L 637.437 598.793 L 637.437 593.021 L 637.437 587.25 L 643.631 587.25 L 649.825 587.25 L 649.825 593.438 L 649.825 599.625 L 644.037 599.614 L 638.259 599.614 L 637.865 610.886 L 637.865 599.625 L 632.02 599.625 L 626.175 599.625 L 626.175 610.875 L 614.913 610.875 L 614.913 599.794 L 626.197 598.793 Z" fill="#636e72"/><path d="M 638.563 588.375 L 648.699 588.375 L 648.699 598.5 L 638.563 598.5 L 638.563 588.375 Z" fill="#8e969a"/></g><path d="M 394.963 622.778 L 417.915 622.519 L 417.589 633.859 L 417.262 645.188 L 411.631 645.514 L 405.989 645.84 L 405.617 656.775 L 406.619 623.25 L 394.963 622.778 Z M 405.617 656.775 L 405.617 668.126 L 400.177 668.475 L 394.738 668.812 L 394.4 674.303 L 394.051 679.781 L 382.935 679.781 L 382.935 668.25 L 388.555 668.25 L 394.175 668.25 L 394.175 662.895 L 394.175 657.54 L 405.617 656.775 Z M 371.65 645.75 L 371.65 679.5 L 382.935 679.781 L 371.65 680.738 L 371.223 691.886 L 370.468 680.625 L 370.524 645.75 L 371.65 645.75 Z M 394.963 622.778 L 394.513 633.938 L 394.963 622.778 Z" fill="#3e3b34"/><path d="M 649.555 437.062 L 649.825 471.375 L 637.437 471.375 C 639.295 458.348 630.984 444.814 649.116 447.772 C 648.395 445.691 648.271 438.03 649.555 437.062 Z" fill="#121825"/><path d="M 498.237 528.311 C 497.877 523.744 497.223 511.751 498.237 506.25 C 497.741 505.755 488.326 506.554 487.91 506.25 C 485.961 504.844 486.592 484.11 486.524 484.043 L 475.589 482.861 L 475.217 471.87 L 486.569 472.939 L 487.988 495 L 497.584 495 C 498.35 503.944 500.118 521.359 498.237 528.311 Z" fill="#121825"/><path d="M 638.608 679.444 L 638.135 680.614 L 637.381 691.875 L 637.437 703.001 L 648.136 703.834 L 626.231 704.25 L 625.42 691.841 L 625.826 680.726 L 637.448 679.928 L 638.608 679.444 Z" fill="#1b222f"/><path d="M 756.252 993.488 C 753.854 994.511 753.426 998.044 753.336 1017.113 L 742.175 1017.113 L 742.175 1011.195 L 742.175 1005.278 L 719.313 1005.278 L 742.175 1005.019 L 742.175 999.315 L 742.175 993.611 L 753.437 993.51 L 756.252 993.488 Z M 788.372 1028.959 L 777.087 1029.375 L 777.087 1040.062 L 765.476 1039.264 L 764.496 1028.25 L 775.961 1028.25 L 776.344 1016.977 L 777.65 1028.115 L 788.372 1028.959 Z M 765.825 1016.438 L 765.397 1016.989 L 764.496 1028.25 L 754 1028.25 L 753.336 1017.113 L 765.825 1016.438 Z M 719.313 1005.278 L 718.862 1016.438 L 719.313 1005.278 Z" fill="#121825"/><path d="M 649.938 414.011 L 649.172 425.25 L 638.563 425.25 C 639.363 438.491 636.953 436.95 626.107 437.918 L 626.535 425.801 L 631.896 425.475 L 637.257 425.137 L 638.315 413.989 L 649.938 414.011 Z" fill="#121825"/><path d="M 684.76 599.209 L 672.35 599.209 L 672.35 610.661 L 672.35 622.125 L 666.718 622.125 L 661.087 622.125 L 661.087 610.875 L 661.087 599.625 L 666.91 599.625 L 672.732 599.625 L 672.732 587.227 L 674.039 598.365 L 684.76 599.209 Z" fill="#3e3b34"/><path d="M 591.262 842.625 L 580 842.625 L 580 819 L 591.262 819 L 591.262 842.625 Z M 557.003 807.761 L 557.003 785.25 L 562.87 785.25 L 568.738 785.25 L 568.738 807.75 L 557.003 807.761 Z M 580 819 L 568.738 819 L 568.738 807.75 L 580 807.75 L 580 819 Z" fill="#000000" style=""/><path d="M 707.262 1028.25 L 707.262 1051.875 L 696 1051.875 L 696 1028.25 L 707.262 1028.25 Z" fill="#121825"/><path d="M 568.738 228.431 L 568.738 216 L 568.738 204.626 L 579.448 205.065 L 579.448 216.529 L 579.448 228.004 L 568.738 228.431 Z" fill="#121825"/><path d="M 707.262 669.375 L 707.262 691.875 L 696 691.875 L 696 680.625 L 696 669.375 L 707.262 669.375 Z" fill="#8e969a"/><path d="M 648.136 703.834 L 650.208 714.375 L 626.175 714.893 L 626.231 704.25 L 648.136 703.834 Z" fill="#262d3d"/><path d="M 672.124 160.312 L 673.059 181.148 L 672.789 193.511 L 672.35 181.125 L 656.583 181.125 C 655.366 173.936 661.425 171.641 662.743 167.861 C 670.548 168.21 670.615 170.28 672.124 160.312 Z" fill="#171d2a"/><path d="M 522.563 584.516 C 520.277 589.534 530.908 586.327 532.463 587.25 C 537.103 600.3 527.575 597.656 544.412 599.074 C 546.225 599.186 544.31 606.217 544.952 608.062 C 543.713 608.153 543.939 600.525 543.939 600.525 L 533.487 599.288 C 532.485 601.841 537.79 612.877 532.699 610.875 L 532.699 599.625 C 532.699 599.625 522.394 599.861 521.437 598.264 C 520.547 596.768 523.577 586.553 518.948 588.15 L 522.563 584.516 Z" fill="#171d2a"/><path d="M 602.997 518.153 L 580.124 518.153 L 579.775 523.733 L 579.437 529.312 L 574.087 529.65 L 568.738 529.999 L 568.738 541.125 L 567.578 541.125 L 567.612 529.875 L 567.612 519.21 L 580.034 517.815 L 602.997 518.153 Z M 602.84 528.75 L 602.997 518.153 L 602.84 528.75 Z" fill="#121825"/><path d="M 486.963 448.481 L 475.262 448.875 L 475.262 460.125 L 464 460.125 L 464 448.875 L 475.262 448.875 L 475.713 425.239 L 476.951 447.604 L 486.963 448.481 Z M 487.211 471.127 L 486.963 448.481 L 487.211 471.127 Z" fill="#121825"/><path d="M 730.485 425.261 L 730.642 448.312 L 730.226 436.478 L 724.842 436.489 L 719.459 436.489 L 718.378 425.261 L 729.786 425.25 L 730.214 413.989 L 730.485 425.261 Z M 718.524 414 L 718.378 425.261 L 707.262 425.25 L 707.262 414 L 718.524 414 Z" fill="#121825"/><path d="M 533.825 458.629 L 533.825 460.125 L 533.825 471.375 L 556.372 471.656 L 545.087 472.613 L 545.087 482.479 L 533.882 482.625 L 533.127 471.364 L 532.609 460.035 L 533.825 458.629 Z M 568.04 483.941 L 567.612 495 L 556.35 495.056 L 556.35 483.75 L 545.087 483.75 L 545.087 482.479 L 568.04 483.941 Z M 544.772 494.415 L 556.35 495.056 L 556.35 506.25 L 545.144 506.25 L 544.502 494.685 L 544.772 494.415 Z M 568.04 471.386 L 556.372 471.656 L 556.35 460.125 L 567.612 460.125 L 568.04 471.386 Z M 568.535 460.147 L 567.983 448.875 L 568.535 460.147 Z" fill="#bf8363"/><path d="M 568.794 495 L 568.738 506.25 L 556.35 506.25 L 556.35 495.056 L 567.612 495 L 568.04 483.941 L 568.794 495 Z M 556.35 506.25 L 556.35 517.5 L 545.65 517.5 L 545.087 517.5 L 545.144 506.25 L 556.35 506.25 Z" fill="#e1ad85"/><path d="M 696.023 668.543 L 707.318 668.137 L 707.262 669.375 L 696 669.375 L 696 680.625 L 684.175 680.31 L 683.814 679.995 L 684.321 669.6 L 696.023 668.543 Z" fill="#5e6a6f"/><path d="M 394.141 598.871 L 406.777 599.681 L 406 610.875 L 394.175 610.875 L 394.175 605.036 L 394.175 599.197 L 382.901 599.197 L 394.141 598.871 Z M 382.913 610.875 L 394.175 610.875 L 394.175 622.125 L 382.913 622.125 L 382.913 610.875 Z" fill="#5f594e"/><path d="M 718.806 494.978 L 707.262 495 L 707.262 483.188 L 726.971 483.39 L 718.524 483.75 L 718.806 494.978 Z M 719.763 506.25 L 718.524 506.25 L 718.806 494.978 L 719.763 506.25 Z" fill="#121825"/><path d="M 452.839 134.809 L 452.062 146.239 L 446.623 146.239 L 441.183 146.239 L 440.766 158.062 L 440.35 136.868 L 452.839 134.809 Z M 464.214 123.638 L 463.437 135 L 452.839 134.809 L 452.738 124.312 L 464.214 123.638 Z" fill="#121825"/><path d="M 591.915 390.082 L 590.699 401.49 L 579.977 402.334 L 568.727 402.322 L 580.011 401.929 L 580 396.067 L 579.989 390.195 L 591.577 389.79 L 591.915 390.082 Z" fill="#1b242d"/><path d="M 591.577 389.79 L 591.577 379.125 L 597.209 379.114 L 602.828 379.114 L 603.223 390.386 L 603.662 401.512 L 602.536 401.861 L 602.524 390.375 L 591.915 390.082 L 591.577 389.79 Z M 602.536 401.861 L 591.825 402.412 L 602.536 401.861 Z" fill="#212932"/><path d="M 545.087 482.479 L 545.087 483.75 L 544.772 494.415 L 544.502 494.685 L 533.825 495 L 533.882 482.625 L 545.087 482.479 Z" fill="#e1ad85"/><path d="M 696 657 L 696.023 668.543 L 684.321 669.6 L 684.738 657 L 696 657 Z" fill="#8e969a"/><path d="M 661.2 390.161 L 660.524 402.975 L 649.825 401.366 L 649.825 390.938 L 661.2 390.161 Z" fill="#121825"/><path d="M 614.901 448.178 L 626.175 448.988 L 626.175 460.125 L 614.969 460.125 L 614.214 448.864 L 613.696 447.739 L 614.901 448.178 Z" fill="#121825"/><path d="M 406 610.875 L 406.777 599.681 L 417.825 599.681 L 417.825 605.284 L 417.825 610.875 L 406 610.875 Z" fill="#3e3b34"/><path d="M 719.087 993.375 L 718.333 1004.625 L 712.792 1004.625 L 707.262 1004.625 L 707.262 993.375 L 719.087 993.375 Z" fill="#171d2a"/><path d="M 579.977 402.334 L 580 414 L 568.738 414 L 568.727 402.322 L 579.977 402.334 Z" fill="#212932"/><path d="M 510.175 495 L 498.913 495 L 498.913 483.75 L 510.175 483.75 L 510.175 495 Z" fill="#181f28"/><path d="M 521.403 495 L 521.403 506.25 L 515.783 506.25 L 510.175 506.25 L 510.175 495 L 521.403 495 Z" fill="#212932"/><path d="M 580 506.25 L 568.738 506.25 L 568.794 495 L 580 495 L 580 506.25 Z" fill="#c28460"/><path d="M 544.986 529.864 L 545.087 541.125 L 533.825 541.125 L 533.825 529.875 L 544.986 529.864 Z" fill="#5f594e"/><path d="M 557.183 541.024 L 556.136 552.375 L 545.087 552.375 L 545.087 541.688 L 557.183 541.024 Z M 567.612 529.875 L 567.578 541.125 L 557.183 541.024 L 557.476 529.875 L 567.612 529.875 Z M 568.738 541.125 L 568.254 564.75 L 567.578 541.125 L 568.738 541.125 Z" fill="#212932"/><path d="M 452.738 564.806 L 452.738 576 L 446.893 576 L 441.048 576 L 441.048 564.739 L 452.738 564.806 Z M 464 587.25 L 452.738 587.25 L 452.738 576 L 464 576 L 464 587.25 Z" fill="#5f594e"/><path d="M 626.175 610.875 L 626.175 599.625 L 632.02 599.625 L 637.865 599.625 L 637.865 610.886 L 626.175 610.875 Z" fill="#999fa3"/><path d="M 637.437 645.75 L 637.752 656.989 L 626.175 656.989 L 626.175 651.375 L 626.175 645.75 L 637.437 645.75 Z M 638.608 679.444 L 637.448 679.928 L 637.752 656.989 L 638.608 679.444 Z M 649.262 680.22 L 638.135 680.614 L 638.608 679.444 L 649.262 680.22 Z" fill="#564337"/><path d="M 487.864 112.511 L 487.087 123.75 L 476.388 123.75 L 476.388 112.5 L 487.864 112.511 Z" fill="#121825"/><path d="M 532.609 460.035 L 533.127 471.364 L 522 471.06 L 521.752 470.79 L 521.437 460.125 L 532.609 460.035 Z" fill="#e1ad85"/><path d="M 626.186 587.947 L 626.197 598.793 L 614.913 599.794 L 614.913 598.5 L 614.913 588.375 L 626.186 587.947 Z" fill="#8e969a"/><path d="M 753.55 471.364 L 742.175 471.375 L 742.175 460.001 L 752.817 460.688 L 753.55 471.364 Z" fill="#121825"/><path d="M 614.913 588.375 L 614.913 598.5 L 603.223 598.928 L 603.65 588.375 L 614.913 588.375 Z M 626.186 587.947 L 614.913 588.375 L 614.913 587.194 L 626.186 587.947 Z" fill="#526168"/><path d="M 359.262 773.336 L 359.262 783.911 L 347.91 784.688 L 348.619 774.562 L 359.262 773.336 Z" fill="#121825"/></g></svg>